%TF.GenerationSoftware,KiCad,Pcbnew,(6.0.2)*%
%TF.CreationDate,2024-04-26T16:10:55+03:00*%
%TF.ProjectId,Gel_Imager_Trans_LEDS,47656c5f-496d-4616-9765-725f5472616e,rev?*%
%TF.SameCoordinates,PX4c7e850PY4374110*%
%TF.FileFunction,Copper,L1,Top*%
%TF.FilePolarity,Positive*%
%FSLAX46Y46*%
G04 Gerber Fmt 4.6, Leading zero omitted, Abs format (unit mm)*
G04 Created by KiCad (PCBNEW (6.0.2)) date 2024-04-26 16:10:55*
%MOMM*%
%LPD*%
G01*
G04 APERTURE LIST*
%TA.AperFunction,SMDPad,CuDef*%
%ADD10R,4.000000X4.000000*%
%TD*%
%TA.AperFunction,SMDPad,CuDef*%
%ADD11C,7.000000*%
%TD*%
%TA.AperFunction,SMDPad,CuDef*%
%ADD12R,3.500000X1.500000*%
%TD*%
%TA.AperFunction,SMDPad,CuDef*%
%ADD13R,3.000000X3.000000*%
%TD*%
%TA.AperFunction,SMDPad,CuDef*%
%ADD14R,3.500000X2.700000*%
%TD*%
%TA.AperFunction,SMDPad,CuDef*%
%ADD15C,5.700000*%
%TD*%
%TA.AperFunction,SMDPad,CuDef*%
%ADD16R,6.000000X6.000000*%
%TD*%
%TA.AperFunction,SMDPad,CuDef*%
%ADD17R,3.000000X1.500000*%
%TD*%
%TA.AperFunction,Conductor*%
%ADD18C,1.500000*%
%TD*%
%TA.AperFunction,Conductor*%
%ADD19C,4.000000*%
%TD*%
%TA.AperFunction,Conductor*%
%ADD20C,1.000000*%
%TD*%
%TA.AperFunction,Conductor*%
%ADD21C,3.000000*%
%TD*%
G04 APERTURE END LIST*
D10*
%TO.P,REF\u002A\u002A,1*%
%TO.N,+12V*%
X75280000Y27590000D03*
%TD*%
D11*
%TO.P,LED_RGB,*%
%TO.N,*%
X105690000Y18980000D03*
D12*
%TO.P,LED_RGB,1*%
%TO.N,N/C*%
X111940000Y16480000D03*
%TO.P,LED_RGB,2*%
X111940000Y18980000D03*
%TO.P,LED_RGB,3*%
X111940000Y21480000D03*
%TO.P,LED_RGB,4*%
X99440000Y21480000D03*
%TO.P,LED_RGB,5*%
X99440000Y18980000D03*
%TO.P,LED_RGB,6*%
X99440000Y16480000D03*
%TD*%
D13*
%TO.P,REF\u002A\u002A,1*%
%TO.N,Blue_Cathode*%
X15490000Y15700000D03*
%TD*%
D14*
%TO.P,REF\u002A\u002A,1*%
%TO.N,White_Cathode*%
X19840000Y4740000D03*
%TO.P,REF\u002A\u002A,2*%
%TO.N,N/C*%
X32540000Y7440000D03*
D15*
%TO.P,REF\u002A\u002A,3*%
X26190000Y6090000D03*
%TD*%
D14*
%TO.P,REF\u002A\u002A,1*%
%TO.N,N/C*%
X113070000Y7440000D03*
%TO.P,REF\u002A\u002A,2*%
X100370000Y4740000D03*
D15*
%TO.P,REF\u002A\u002A,3*%
X106720000Y6090000D03*
%TD*%
D14*
%TO.P,REF\u002A\u002A,1*%
%TO.N,N/C*%
X59780000Y4740000D03*
%TO.P,REF\u002A\u002A,2*%
%TO.N,+12V*%
X72480000Y7440000D03*
D15*
%TO.P,REF\u002A\u002A,3*%
%TO.N,N/C*%
X66130000Y6090000D03*
%TD*%
D10*
%TO.P,REF\u002A\u002A,1*%
%TO.N,+12V*%
X75540000Y19080000D03*
%TD*%
D13*
%TO.P,REF\u002A\u002A,1*%
%TO.N,Green_Cathode*%
X7090000Y23380000D03*
%TD*%
D11*
%TO.P,LED_RGB,*%
%TO.N,*%
X65690000Y18980000D03*
D12*
%TO.P,LED_RGB,1*%
%TO.N,N/C*%
X59440000Y21480000D03*
%TO.P,LED_RGB,2*%
X59440000Y18980000D03*
%TO.P,LED_RGB,3*%
X59440000Y16480000D03*
%TO.P,LED_RGB,4*%
%TO.N,+12V*%
X71940000Y16480000D03*
%TO.P,LED_RGB,5*%
X71940000Y18980000D03*
%TO.P,LED_RGB,6*%
X71940000Y21480000D03*
%TD*%
D13*
%TO.P,REF\u002A\u002A,1*%
%TO.N,Red_Cathode*%
X7150000Y18970000D03*
%TD*%
D14*
%TO.P,REF\u002A\u002A,1*%
%TO.N,N/C*%
X92480000Y7440000D03*
%TO.P,REF\u002A\u002A,2*%
%TO.N,+12V*%
X79780000Y4740000D03*
D15*
%TO.P,REF\u002A\u002A,3*%
%TO.N,N/C*%
X86130000Y6090000D03*
%TD*%
D13*
%TO.P,REF\u002A\u002A,1*%
%TO.N,Green_Cathode*%
X137440000Y25380000D03*
%TD*%
D14*
%TO.P,REF\u002A\u002A,1*%
%TO.N,N/C*%
X39190000Y4740000D03*
%TO.P,REF\u002A\u002A,2*%
X51890000Y7440000D03*
D15*
%TO.P,REF\u002A\u002A,3*%
X45540000Y6090000D03*
%TD*%
D16*
%TO.P,REF\u002A\u002A,1*%
%TO.N,+12V*%
X75240000Y6170000D03*
%TD*%
D11*
%TO.P,LED_RGB,*%
%TO.N,*%
X125690000Y18980000D03*
D12*
%TO.P,LED_RGB,1*%
%TO.N,Green_Cathode*%
X131940000Y16480000D03*
%TO.P,LED_RGB,2*%
%TO.N,Red_Cathode*%
X131940000Y18980000D03*
%TO.P,LED_RGB,3*%
%TO.N,Blue_Cathode*%
X131940000Y21480000D03*
%TO.P,LED_RGB,4*%
%TO.N,N/C*%
X119440000Y21480000D03*
%TO.P,LED_RGB,5*%
X119440000Y18980000D03*
%TO.P,LED_RGB,6*%
X119440000Y16480000D03*
%TD*%
D13*
%TO.P,REF\u002A\u002A,1*%
%TO.N,Green_Cathode*%
X137340000Y15630000D03*
%TD*%
%TO.P,,1*%
%TO.N,GND*%
X2640000Y4730000D03*
%TD*%
D11*
%TO.P,LED_RGB,*%
%TO.N,*%
X45690000Y18980000D03*
D12*
%TO.P,LED_RGB,1*%
%TO.N,N/C*%
X39440000Y21480000D03*
%TO.P,LED_RGB,2*%
X39440000Y18980000D03*
%TO.P,LED_RGB,3*%
X39440000Y16480000D03*
%TO.P,LED_RGB,4*%
X51940000Y16480000D03*
%TO.P,LED_RGB,5*%
X51940000Y18980000D03*
%TO.P,LED_RGB,6*%
X51940000Y21480000D03*
%TD*%
D17*
%TO.P,REF\u002A\u002A,1*%
%TO.N,Blue_Cathode*%
X15560000Y9827500D03*
%TD*%
D11*
%TO.P,LED_RGB,*%
%TO.N,*%
X25740000Y18980000D03*
D12*
%TO.P,LED_RGB,1*%
%TO.N,Green_Cathode*%
X19490000Y21480000D03*
%TO.P,LED_RGB,2*%
%TO.N,Red_Cathode*%
X19490000Y18980000D03*
%TO.P,LED_RGB,3*%
%TO.N,Blue_Cathode*%
X19490000Y16480000D03*
%TO.P,LED_RGB,4*%
%TO.N,N/C*%
X31990000Y16480000D03*
%TO.P,LED_RGB,5*%
X31990000Y18980000D03*
%TO.P,LED_RGB,6*%
X31990000Y21480000D03*
%TD*%
D10*
%TO.P,REF\u002A\u002A,1*%
%TO.N,+12V*%
X6840000Y27590000D03*
%TD*%
D13*
%TO.P,REF\u002A\u002A,1*%
%TO.N,Blue_Cathode*%
X7200000Y14380000D03*
%TD*%
D11*
%TO.P,LED_RGB,*%
%TO.N,*%
X85790000Y18980000D03*
D12*
%TO.P,LED_RGB,1*%
%TO.N,N/C*%
X92040000Y16480000D03*
%TO.P,LED_RGB,2*%
X92040000Y18980000D03*
%TO.P,LED_RGB,3*%
X92040000Y21480000D03*
%TO.P,LED_RGB,4*%
%TO.N,+12V*%
X79540000Y21480000D03*
%TO.P,LED_RGB,5*%
X79540000Y18980000D03*
%TO.P,LED_RGB,6*%
X79540000Y16480000D03*
%TD*%
D14*
%TO.P,REF\u002A\u002A,1*%
%TO.N,White_Cathode*%
X132420000Y7440000D03*
%TO.P,REF\u002A\u002A,2*%
%TO.N,N/C*%
X119720000Y4740000D03*
D15*
%TO.P,REF\u002A\u002A,3*%
X126070000Y6090000D03*
%TD*%
D13*
%TO.P,REF\u002A\u002A,1*%
%TO.N,GND*%
X119810000Y27850000D03*
%TD*%
%TO.P,REF\u002A\u002A,1*%
%TO.N,White_Cathode*%
X7370000Y5660000D03*
%TD*%
D18*
%TO.N,*%
X98290000Y7440000D02*
X92480000Y7440000D01*
X55960000Y7440000D02*
X58660000Y4740000D01*
X111940000Y21480000D02*
X119440000Y21480000D01*
X92040000Y16480000D02*
X99440000Y16480000D01*
X51940000Y21480000D02*
X59440000Y21480000D01*
X92040000Y18980000D02*
X99440000Y18980000D01*
X100370000Y5360000D02*
X98290000Y7440000D01*
X51940000Y16480000D02*
X59440000Y16480000D01*
X119720000Y4740000D02*
X119720000Y4860000D01*
X111940000Y18980000D02*
X119440000Y18980000D01*
X119720000Y4860000D02*
X117140000Y7440000D01*
X31990000Y16480000D02*
X39440000Y16480000D01*
X111940000Y16480000D02*
X119440000Y16480000D01*
X51890000Y7440000D02*
X55960000Y7440000D01*
X117140000Y7440000D02*
X113070000Y7440000D01*
X58660000Y4740000D02*
X59780000Y4740000D01*
X32540000Y7440000D02*
X34870000Y7440000D01*
X51940000Y18980000D02*
X59440000Y18980000D01*
X92040000Y21480000D02*
X99440000Y21480000D01*
X37570000Y4740000D02*
X39190000Y4740000D01*
X31990000Y21480000D02*
X39440000Y21480000D01*
X31990000Y18980000D02*
X39440000Y18980000D01*
X100370000Y4740000D02*
X100370000Y5360000D01*
X34870000Y7440000D02*
X37570000Y4740000D01*
%TO.N,+12V*%
X79780000Y4740000D02*
X79780000Y4780000D01*
X79780000Y4780000D02*
X77120000Y7440000D01*
D19*
X6770000Y27581918D02*
X74750000Y27581918D01*
D18*
X75690000Y21480000D02*
X79540000Y21480000D01*
X75690000Y16480000D02*
X79540000Y16480000D01*
X74820000Y27210000D02*
X75430000Y27820000D01*
X71940000Y21480000D02*
X75690000Y21480000D01*
X77120000Y7440000D02*
X72480000Y7440000D01*
X71940000Y16480000D02*
X75690000Y16480000D01*
X71940000Y18980000D02*
X79540000Y18980000D01*
X75690000Y16480000D02*
X75690000Y21480000D01*
D20*
%TO.N,Blue_Cathode*%
X9490000Y10810000D02*
X7200000Y13100000D01*
D18*
X16270000Y16480000D02*
X15490000Y15700000D01*
D20*
X7200000Y13100000D02*
X7200000Y14380000D01*
X19070000Y10810000D02*
X9490000Y10810000D01*
X138794164Y21480000D02*
X141830000Y18444164D01*
X141830000Y11350000D02*
X141290000Y10810000D01*
X131940000Y21480000D02*
X138794164Y21480000D01*
X141830000Y18444164D02*
X141830000Y11350000D01*
X19070000Y10810000D02*
X16952500Y10810000D01*
X16952500Y10810000D02*
X15550000Y9407500D01*
D18*
X19490000Y16480000D02*
X16270000Y16480000D01*
D20*
X141290000Y10810000D02*
X19070000Y10810000D01*
%TO.N,Red_Cathode*%
X139900000Y17970000D02*
X138890000Y18980000D01*
D18*
X19480000Y18970000D02*
X19490000Y18980000D01*
D21*
X7150000Y18970000D02*
X10940000Y18970000D01*
D20*
X10940000Y18970000D02*
X10940000Y13160000D01*
X138890000Y18980000D02*
X131940000Y18980000D01*
X139900000Y12510000D02*
X139900000Y17970000D01*
X10940000Y13160000D02*
X11590000Y12510000D01*
D18*
X10940000Y18970000D02*
X19480000Y18970000D01*
D20*
X11590000Y12510000D02*
X139900000Y12510000D01*
D18*
%TO.N,Green_Cathode*%
X136490000Y16480000D02*
X137340000Y15630000D01*
D21*
X14480000Y23380000D02*
X16490000Y23380000D01*
X7090000Y23380000D02*
X14480000Y23380000D01*
D20*
X15730000Y24630000D02*
X14480000Y23380000D01*
X137390000Y24630000D02*
X15730000Y24630000D01*
D18*
X16490000Y21580000D02*
X16490000Y23380000D01*
X16590000Y21480000D02*
X16490000Y21580000D01*
D20*
X131940000Y16480000D02*
X136490000Y16480000D01*
D18*
X19490000Y21480000D02*
X16590000Y21480000D01*
%TO.N,White_Cathode*%
X21270000Y1070000D02*
X129980000Y1070000D01*
X19840000Y4740000D02*
X19840000Y2500000D01*
X7370000Y5660000D02*
X12080000Y5660000D01*
X132420000Y3510000D02*
X132420000Y7440000D01*
X12170000Y5750000D02*
X13180000Y4740000D01*
X13180000Y4740000D02*
X19840000Y4740000D01*
X19840000Y2500000D02*
X21270000Y1070000D01*
X129980000Y1070000D02*
X132420000Y3510000D01*
X12080000Y5660000D02*
X12170000Y5750000D01*
%TD*%
%TA.AperFunction,Conductor*%
%TO.N,GND*%
G36*
X147367343Y29310293D02*
G01*
X147436584Y29255074D01*
X147475011Y29175282D01*
X147480000Y29131000D01*
X147480000Y19331280D01*
X147460293Y19244937D01*
X147405074Y19175696D01*
X147338351Y19140723D01*
X147229526Y19107970D01*
X147108675Y19071598D01*
X147103336Y19069282D01*
X147103333Y19069281D01*
X147095606Y19065929D01*
X146802512Y18938792D01*
X146797480Y18935869D01*
X146533723Y18782666D01*
X146513936Y18771173D01*
X146509281Y18767685D01*
X146509279Y18767683D01*
X146314358Y18621598D01*
X146246886Y18571031D01*
X146005011Y18341099D01*
X146001291Y18336626D01*
X146001289Y18336624D01*
X145845836Y18149712D01*
X145791614Y18084517D01*
X145788446Y18079648D01*
X145612782Y17809666D01*
X145612778Y17809659D01*
X145609610Y17804790D01*
X145461485Y17505739D01*
X145459531Y17500267D01*
X145459529Y17500262D01*
X145363778Y17232101D01*
X145349262Y17191448D01*
X145274474Y16866211D01*
X145238142Y16534469D01*
X145238188Y16528651D01*
X145240518Y16231997D01*
X145240763Y16200754D01*
X145241487Y16194984D01*
X145241487Y16194981D01*
X145274169Y15934447D01*
X145282301Y15869624D01*
X145283693Y15863978D01*
X145360793Y15551257D01*
X145360796Y15551249D01*
X145362188Y15545601D01*
X145479334Y15233112D01*
X145481999Y15227938D01*
X145482001Y15227933D01*
X145612162Y14975210D01*
X145632138Y14936425D01*
X145635383Y14931605D01*
X145635386Y14931600D01*
X145740576Y14775356D01*
X145818514Y14659591D01*
X145822294Y14655189D01*
X145822299Y14655182D01*
X145929420Y14530423D01*
X146035914Y14406393D01*
X146040196Y14402449D01*
X146277090Y14184231D01*
X146277095Y14184227D01*
X146281371Y14180288D01*
X146337661Y14139466D01*
X146546828Y13987776D01*
X146546832Y13987773D01*
X146551532Y13984365D01*
X146556602Y13981526D01*
X146556603Y13981525D01*
X146685212Y13909500D01*
X146842706Y13821299D01*
X147150916Y13693319D01*
X147234607Y13669558D01*
X147335351Y13640955D01*
X147413029Y13598415D01*
X147464556Y13526385D01*
X147480000Y13449521D01*
X147480000Y929000D01*
X147460293Y842657D01*
X147405074Y773416D01*
X147325282Y734989D01*
X147281000Y730000D01*
X132171745Y730000D01*
X132085402Y749707D01*
X132016161Y804926D01*
X131977734Y884718D01*
X131977734Y973282D01*
X132016161Y1053074D01*
X132031031Y1069714D01*
X133362691Y2401374D01*
X133373868Y2411073D01*
X133373687Y2411277D01*
X133379790Y2416695D01*
X133386325Y2421602D01*
X133458124Y2496735D01*
X133461279Y2499962D01*
X133488412Y2527095D01*
X133491053Y2530209D01*
X133491075Y2530233D01*
X133494648Y2534446D01*
X133502543Y2543215D01*
X133545468Y2588134D01*
X133545472Y2588139D01*
X133551113Y2594042D01*
X133569612Y2621161D01*
X133582215Y2637704D01*
X133603444Y2662737D01*
X133607640Y2669747D01*
X133607643Y2669752D01*
X133639541Y2723048D01*
X133645900Y2732991D01*
X133680921Y2784330D01*
X133680930Y2784347D01*
X133685525Y2791082D01*
X133699339Y2820841D01*
X133709076Y2839233D01*
X133725934Y2867400D01*
X133728928Y2875001D01*
X133728931Y2875007D01*
X133751707Y2932828D01*
X133756358Y2943681D01*
X133766188Y2964856D01*
X133785949Y3007428D01*
X133794716Y3039041D01*
X133801321Y3058782D01*
X133813351Y3089322D01*
X133828089Y3158070D01*
X133830906Y3169538D01*
X133847508Y3229400D01*
X133847508Y3229401D01*
X133849691Y3237272D01*
X133853178Y3269898D01*
X133856472Y3290462D01*
X133861636Y3314549D01*
X133861637Y3314555D01*
X133863349Y3322542D01*
X133865233Y3362497D01*
X133866660Y3392756D01*
X133867566Y3404528D01*
X133869937Y3426711D01*
X133869938Y3426726D01*
X133870500Y3431986D01*
X133870500Y3469501D01*
X133870721Y3478875D01*
X133872513Y3516873D01*
X133874584Y3560795D01*
X133871859Y3583992D01*
X133870500Y3607209D01*
X133870500Y5190501D01*
X133890207Y5276844D01*
X133945426Y5346085D01*
X134025218Y5384512D01*
X134069500Y5389501D01*
X134225992Y5389501D01*
X134298594Y5396171D01*
X134399633Y5427835D01*
X134448938Y5443286D01*
X134448940Y5443287D01*
X134460383Y5446873D01*
X134470639Y5453084D01*
X134470643Y5453086D01*
X134595144Y5528487D01*
X134605408Y5534703D01*
X134725297Y5654592D01*
X134760800Y5713215D01*
X134806914Y5789357D01*
X134806916Y5789361D01*
X134813127Y5799617D01*
X134816715Y5811064D01*
X134839403Y5883463D01*
X134863829Y5961406D01*
X134868789Y6015381D01*
X134870083Y6029466D01*
X134870083Y6029472D01*
X134870500Y6034007D01*
X134870499Y8845992D01*
X134863829Y8918594D01*
X134813127Y9080383D01*
X134806916Y9090639D01*
X134806914Y9090643D01*
X134731513Y9215144D01*
X134725297Y9225408D01*
X134680919Y9269786D01*
X134633800Y9344774D01*
X134623884Y9432781D01*
X134653135Y9516374D01*
X134715759Y9578998D01*
X134799352Y9608249D01*
X134821633Y9609500D01*
X141242878Y9609500D01*
X141255892Y9609074D01*
X141321560Y9604770D01*
X141330617Y9605842D01*
X141330619Y9605842D01*
X141393890Y9613331D01*
X141412940Y9615585D01*
X141418110Y9616128D01*
X141462608Y9620218D01*
X141500625Y9623711D01*
X141500626Y9623711D01*
X141509711Y9624546D01*
X141518494Y9627023D01*
X141525036Y9628236D01*
X141531599Y9629631D01*
X141540667Y9630704D01*
X141628525Y9657984D01*
X141633487Y9659454D01*
X141713279Y9681957D01*
X141713283Y9681959D01*
X141722064Y9684435D01*
X141730250Y9688472D01*
X141736452Y9690853D01*
X141742654Y9693422D01*
X141751379Y9696131D01*
X141832772Y9738954D01*
X141837413Y9741318D01*
X141911757Y9777980D01*
X141911767Y9777986D01*
X141919947Y9782020D01*
X141927261Y9787481D01*
X141932963Y9790976D01*
X141938566Y9794614D01*
X141946641Y9798863D01*
X141959073Y9808663D01*
X142018886Y9855816D01*
X142023018Y9858987D01*
X142089420Y9908572D01*
X142089421Y9908572D01*
X142096733Y9914033D01*
X142154441Y9976461D01*
X142159857Y9982093D01*
X142645561Y10467798D01*
X142655051Y10476687D01*
X142704543Y10520090D01*
X142761515Y10592359D01*
X142764793Y10596407D01*
X142823601Y10667116D01*
X142828056Y10675071D01*
X142831822Y10680551D01*
X142835485Y10686192D01*
X142841137Y10693360D01*
X142845383Y10701431D01*
X142845386Y10701435D01*
X142883971Y10774773D01*
X142886456Y10779351D01*
X142926950Y10851658D01*
X142931410Y10859621D01*
X142934343Y10868263D01*
X142937062Y10874369D01*
X142939620Y10880544D01*
X142943869Y10888620D01*
X142971158Y10976504D01*
X142972745Y10981391D01*
X143002331Y11068548D01*
X143003641Y11077583D01*
X143005205Y11084099D01*
X143006591Y11090618D01*
X143009297Y11099333D01*
X143010371Y11108403D01*
X143020115Y11190721D01*
X143020794Y11195883D01*
X143032682Y11277877D01*
X143032682Y11277883D01*
X143033990Y11286902D01*
X143030653Y11371836D01*
X143030500Y11379649D01*
X143030500Y18397045D01*
X143030926Y18410061D01*
X143034633Y18466617D01*
X143035230Y18475725D01*
X143024411Y18567128D01*
X143023873Y18572254D01*
X143016289Y18654790D01*
X143016289Y18654792D01*
X143015454Y18663875D01*
X143012978Y18672655D01*
X143011756Y18679249D01*
X143010368Y18685777D01*
X143009296Y18694832D01*
X142982019Y18782679D01*
X142980543Y18787661D01*
X142958041Y18867448D01*
X142955565Y18876228D01*
X142951532Y18884406D01*
X142949134Y18890654D01*
X142946572Y18896840D01*
X142943869Y18905544D01*
X142939626Y18913608D01*
X142939623Y18913616D01*
X142901043Y18986943D01*
X142898677Y18991586D01*
X142862015Y19065929D01*
X142862015Y19065930D01*
X142857980Y19074111D01*
X142852522Y19081420D01*
X142849044Y19087095D01*
X142845386Y19092728D01*
X142841137Y19100805D01*
X142784179Y19173056D01*
X142781008Y19177189D01*
X142731428Y19243584D01*
X142731428Y19243585D01*
X142725967Y19250897D01*
X142663540Y19308604D01*
X142657907Y19314020D01*
X139676374Y22295553D01*
X139667472Y22305057D01*
X139630089Y22347685D01*
X139630085Y22347689D01*
X139624074Y22354543D01*
X139551812Y22411510D01*
X139547765Y22414788D01*
X139484066Y22467765D01*
X139484062Y22467768D01*
X139477047Y22473602D01*
X139469084Y22478062D01*
X139463559Y22481859D01*
X139457968Y22485490D01*
X139450804Y22491137D01*
X139369321Y22534007D01*
X139364866Y22536427D01*
X139284543Y22581410D01*
X139275903Y22584343D01*
X139269798Y22587061D01*
X139263618Y22589621D01*
X139255544Y22593869D01*
X139167660Y22621158D01*
X139162773Y22622745D01*
X139075616Y22652331D01*
X139066596Y22653639D01*
X139060104Y22655198D01*
X139053541Y22656593D01*
X139044831Y22659297D01*
X138953443Y22670113D01*
X138948277Y22670794D01*
X138926897Y22673894D01*
X138857262Y22683991D01*
X138848148Y22683633D01*
X138848147Y22683633D01*
X138772303Y22680653D01*
X138764490Y22680500D01*
X134312633Y22680500D01*
X134226290Y22700207D01*
X134171919Y22738786D01*
X134125408Y22785297D01*
X134101532Y22799757D01*
X133990643Y22866914D01*
X133990639Y22866916D01*
X133980383Y22873127D01*
X133968940Y22876713D01*
X133968938Y22876714D01*
X133901091Y22897976D01*
X133818594Y22923829D01*
X133771124Y22928191D01*
X133750534Y22930083D01*
X133750528Y22930083D01*
X133745993Y22930500D01*
X131940397Y22930500D01*
X130134008Y22930499D01*
X130061406Y22923829D01*
X129960367Y22892165D01*
X129911062Y22876714D01*
X129911060Y22876713D01*
X129899617Y22873127D01*
X129889361Y22866916D01*
X129889357Y22866914D01*
X129778468Y22799757D01*
X129754592Y22785297D01*
X129634703Y22665408D01*
X129628487Y22655144D01*
X129553086Y22530643D01*
X129553084Y22530639D01*
X129546873Y22520383D01*
X129543287Y22508940D01*
X129543286Y22508938D01*
X129522024Y22441091D01*
X129496171Y22358594D01*
X129495205Y22348076D01*
X129489918Y22290538D01*
X129489500Y22285993D01*
X129489501Y21634118D01*
X129489501Y21510294D01*
X129469794Y21423951D01*
X129414576Y21354710D01*
X129334783Y21316283D01*
X129246220Y21316283D01*
X129166427Y21354709D01*
X129130327Y21392204D01*
X128951972Y21634118D01*
X128949080Y21638041D01*
X128908342Y21683286D01*
X128677401Y21939772D01*
X128674147Y21943386D01*
X128370729Y22220444D01*
X128041723Y22466572D01*
X127731247Y22654603D01*
X127694422Y22676905D01*
X127694420Y22676906D01*
X127690269Y22679420D01*
X127685898Y22681514D01*
X127685891Y22681518D01*
X127456312Y22791513D01*
X127319722Y22856956D01*
X126933620Y22997486D01*
X126776794Y23037752D01*
X126698065Y23078313D01*
X126644730Y23149016D01*
X126627355Y23235858D01*
X126649380Y23321639D01*
X126706443Y23389369D01*
X126787241Y23425633D01*
X126826283Y23429500D01*
X135317367Y23429500D01*
X135403710Y23409793D01*
X135458081Y23371214D01*
X135504592Y23324703D01*
X135514856Y23318487D01*
X135639357Y23243086D01*
X135639361Y23243084D01*
X135649617Y23236873D01*
X135661060Y23233287D01*
X135661062Y23233286D01*
X135728909Y23212024D01*
X135811406Y23186171D01*
X135858876Y23181809D01*
X135879466Y23179917D01*
X135879472Y23179917D01*
X135884007Y23179500D01*
X137439658Y23179500D01*
X138995992Y23179501D01*
X139068594Y23186171D01*
X139169633Y23217835D01*
X139218938Y23233286D01*
X139218940Y23233287D01*
X139230383Y23236873D01*
X139240639Y23243084D01*
X139240643Y23243086D01*
X139365144Y23318487D01*
X139375408Y23324703D01*
X139495297Y23444592D01*
X139509757Y23468468D01*
X139576914Y23579357D01*
X139576916Y23579361D01*
X139583127Y23589617D01*
X139633829Y23751406D01*
X139640500Y23824007D01*
X139640499Y26935992D01*
X139633829Y27008594D01*
X139583127Y27170383D01*
X139576916Y27180639D01*
X139576914Y27180643D01*
X139501513Y27305144D01*
X139495297Y27315408D01*
X139375408Y27435297D01*
X139351532Y27449757D01*
X139240643Y27516914D01*
X139240639Y27516916D01*
X139230383Y27523127D01*
X139218940Y27526713D01*
X139218938Y27526714D01*
X139151091Y27547976D01*
X139068594Y27573829D01*
X139021124Y27578191D01*
X139000534Y27580083D01*
X139000528Y27580083D01*
X138995993Y27580500D01*
X137440342Y27580500D01*
X135884008Y27580499D01*
X135811406Y27573829D01*
X135710367Y27542165D01*
X135661062Y27526714D01*
X135661060Y27526713D01*
X135649617Y27523127D01*
X135639361Y27516916D01*
X135639357Y27516914D01*
X135528468Y27449757D01*
X135504592Y27435297D01*
X135384703Y27315408D01*
X135378487Y27305144D01*
X135303086Y27180643D01*
X135303084Y27180639D01*
X135296873Y27170383D01*
X135246171Y27008594D01*
X135245205Y26998076D01*
X135239918Y26940538D01*
X135239500Y26935993D01*
X135239500Y26029500D01*
X135219793Y25943157D01*
X135164574Y25873916D01*
X135084782Y25835489D01*
X135040500Y25830500D01*
X79189000Y25830500D01*
X79102657Y25850207D01*
X79033416Y25905426D01*
X78994989Y25985218D01*
X78990000Y26029500D01*
X78990000Y29131000D01*
X79009707Y29217343D01*
X79064926Y29286584D01*
X79144718Y29325011D01*
X79189000Y29330000D01*
X147281000Y29330000D01*
X147367343Y29310293D01*
G37*
%TD.AperFunction*%
%TA.AperFunction,Conductor*%
G36*
X4026843Y29310293D02*
G01*
X4096084Y29255074D01*
X4134511Y29175282D01*
X4139500Y29131000D01*
X4139500Y28224598D01*
X4136072Y28187822D01*
X4085897Y27920999D01*
X4064601Y27596084D01*
X4064930Y27590106D01*
X4064930Y27590101D01*
X4080613Y27305144D01*
X4082494Y27270963D01*
X4083538Y27265069D01*
X4083539Y27265065D01*
X4136448Y26966524D01*
X4139501Y26931797D01*
X4139501Y25534008D01*
X4146171Y25461406D01*
X4196873Y25299617D01*
X4203084Y25289361D01*
X4203086Y25289357D01*
X4270243Y25178468D01*
X4284703Y25154592D01*
X4404592Y25034703D01*
X4549617Y24946873D01*
X4561070Y24943284D01*
X4570508Y24940326D01*
X4647007Y24895701D01*
X4696568Y24822304D01*
X4710000Y24750432D01*
X4710000Y11650000D01*
X6470000Y11650000D01*
X6470000Y11661499D01*
X6470048Y11661599D01*
X6471251Y11672279D01*
X6474587Y11671903D01*
X6489707Y11738151D01*
X6544926Y11807392D01*
X6624718Y11845819D01*
X6713282Y11845819D01*
X6793074Y11807392D01*
X6809714Y11792522D01*
X8607790Y9994447D01*
X8616692Y9984943D01*
X8654075Y9942315D01*
X8654079Y9942311D01*
X8660090Y9935457D01*
X8667252Y9929811D01*
X8667253Y9929810D01*
X8732352Y9878490D01*
X8736399Y9875212D01*
X8800098Y9822235D01*
X8800102Y9822232D01*
X8807117Y9816398D01*
X8815080Y9811938D01*
X8820605Y9808141D01*
X8826196Y9804510D01*
X8833360Y9798863D01*
X8914843Y9755993D01*
X8919298Y9753573D01*
X8999621Y9708590D01*
X9008261Y9705657D01*
X9014366Y9702939D01*
X9020546Y9700379D01*
X9028620Y9696131D01*
X9116504Y9668842D01*
X9121391Y9667255D01*
X9208548Y9637669D01*
X9217568Y9636361D01*
X9224060Y9634802D01*
X9230623Y9633407D01*
X9239333Y9630703D01*
X9291355Y9624546D01*
X9330720Y9619887D01*
X9335886Y9619206D01*
X9426902Y9606009D01*
X9436016Y9606367D01*
X9436017Y9606367D01*
X9511861Y9609347D01*
X9519674Y9609500D01*
X13160501Y9609500D01*
X13246844Y9589793D01*
X13316085Y9534574D01*
X13354512Y9454782D01*
X13359501Y9410500D01*
X13359501Y9021508D01*
X13366171Y8948906D01*
X13390723Y8870560D01*
X13401848Y8835063D01*
X13416873Y8787117D01*
X13423084Y8776861D01*
X13423086Y8776857D01*
X13469075Y8700921D01*
X13504703Y8642092D01*
X13624592Y8522203D01*
X13634856Y8515987D01*
X13759357Y8440586D01*
X13759361Y8440584D01*
X13769617Y8434373D01*
X13781060Y8430787D01*
X13781062Y8430786D01*
X13841098Y8411972D01*
X13931406Y8383671D01*
X13978876Y8379309D01*
X13999466Y8377417D01*
X13999472Y8377417D01*
X14004007Y8377000D01*
X14873979Y8377000D01*
X14957293Y8358720D01*
X15104350Y8290925D01*
X15147548Y8271010D01*
X15156385Y8268766D01*
X15156387Y8268765D01*
X15352552Y8218946D01*
X15361396Y8216700D01*
X15370498Y8216103D01*
X15370501Y8216103D01*
X15459330Y8210281D01*
X15581560Y8202270D01*
X15590617Y8203342D01*
X15590618Y8203342D01*
X15642309Y8209460D01*
X15800667Y8228204D01*
X16011379Y8293631D01*
X16126337Y8354114D01*
X16218993Y8377001D01*
X17115992Y8377001D01*
X17188594Y8383671D01*
X17289633Y8415335D01*
X17338938Y8430786D01*
X17338940Y8430787D01*
X17350383Y8434373D01*
X17360639Y8440584D01*
X17360643Y8440586D01*
X17485144Y8515987D01*
X17495408Y8522203D01*
X17615297Y8642092D01*
X17650925Y8700921D01*
X17696914Y8776857D01*
X17696916Y8776861D01*
X17703127Y8787117D01*
X17718153Y8835063D01*
X17732748Y8881636D01*
X17753829Y8948906D01*
X17759449Y9010067D01*
X17760083Y9016966D01*
X17760083Y9016972D01*
X17760500Y9021507D01*
X17760500Y9410500D01*
X17780207Y9496843D01*
X17835426Y9566084D01*
X17915218Y9604511D01*
X17959500Y9609500D01*
X24447865Y9609500D01*
X24534208Y9589793D01*
X24603449Y9534574D01*
X24641876Y9454782D01*
X24641876Y9366218D01*
X24603449Y9286426D01*
X24538209Y9233190D01*
X24412314Y9169043D01*
X24407960Y9166215D01*
X24407954Y9166212D01*
X24185129Y9021508D01*
X24100204Y8966357D01*
X24096163Y8963084D01*
X24096158Y8963081D01*
X23897872Y8802512D01*
X23810991Y8732157D01*
X23547843Y8469009D01*
X23544565Y8464961D01*
X23332326Y8202867D01*
X23313643Y8179796D01*
X23110957Y7867686D01*
X22942005Y7536100D01*
X22808639Y7188671D01*
X22784231Y7097578D01*
X22715915Y6842619D01*
X22712320Y6829204D01*
X22654104Y6461638D01*
X22653831Y6456435D01*
X22653831Y6456432D01*
X22648024Y6345631D01*
X22623825Y6260438D01*
X22565058Y6194181D01*
X22483364Y6159984D01*
X22394922Y6164619D01*
X22317249Y6207169D01*
X22265731Y6279205D01*
X22259403Y6296537D01*
X22236715Y6368936D01*
X22236713Y6368941D01*
X22233127Y6380383D01*
X22226916Y6390639D01*
X22226914Y6390643D01*
X22151513Y6515144D01*
X22145297Y6525408D01*
X22025408Y6645297D01*
X21944222Y6694465D01*
X21890643Y6726914D01*
X21890639Y6726916D01*
X21880383Y6733127D01*
X21868940Y6736713D01*
X21868938Y6736714D01*
X21778843Y6764948D01*
X21718594Y6783829D01*
X21671124Y6788191D01*
X21650534Y6790083D01*
X21650528Y6790083D01*
X21645993Y6790500D01*
X19840397Y6790500D01*
X18034008Y6790499D01*
X17961406Y6783829D01*
X17860367Y6752165D01*
X17811062Y6736714D01*
X17811060Y6736713D01*
X17799617Y6733127D01*
X17789361Y6726916D01*
X17789357Y6726914D01*
X17735778Y6694465D01*
X17654592Y6645297D01*
X17534703Y6525408D01*
X17528487Y6515144D01*
X17453086Y6390643D01*
X17453084Y6390639D01*
X17446873Y6380383D01*
X17443286Y6368936D01*
X17443285Y6368934D01*
X17431081Y6329992D01*
X17386456Y6253493D01*
X17313058Y6203932D01*
X17241187Y6190500D01*
X13863245Y6190500D01*
X13776902Y6210207D01*
X13722531Y6248786D01*
X13207270Y6764047D01*
X13205561Y6765776D01*
X13130573Y6842619D01*
X13124875Y6848458D01*
X13075186Y6884958D01*
X13064286Y6893566D01*
X13023493Y6928161D01*
X13023490Y6928163D01*
X13017263Y6933444D01*
X13010254Y6937639D01*
X13010251Y6937641D01*
X12981673Y6954745D01*
X12966059Y6965119D01*
X12939232Y6984825D01*
X12932646Y6989663D01*
X12877679Y7017550D01*
X12865520Y7024262D01*
X12819608Y7051740D01*
X12819606Y7051741D01*
X12812600Y7055934D01*
X12805003Y7058927D01*
X12805000Y7058928D01*
X12774005Y7071137D01*
X12756920Y7078815D01*
X12719936Y7097578D01*
X12661133Y7116118D01*
X12648044Y7120754D01*
X12598277Y7140358D01*
X12598273Y7140359D01*
X12590678Y7143351D01*
X12550130Y7152044D01*
X12532005Y7156833D01*
X12500259Y7166843D01*
X12500251Y7166845D01*
X12492458Y7169302D01*
X12431428Y7177987D01*
X12417753Y7180423D01*
X12365445Y7191637D01*
X12365442Y7191637D01*
X12357458Y7193349D01*
X12349302Y7193734D01*
X12349299Y7193734D01*
X12316025Y7195303D01*
X12297363Y7197067D01*
X12264406Y7201757D01*
X12256318Y7202908D01*
X12248155Y7202723D01*
X12248151Y7202723D01*
X12194683Y7201510D01*
X12180798Y7201680D01*
X12135102Y7203834D01*
X12119205Y7204584D01*
X12078020Y7199746D01*
X12059320Y7198438D01*
X12017862Y7197498D01*
X12009840Y7195982D01*
X12009838Y7195982D01*
X11957271Y7186049D01*
X11943540Y7183948D01*
X11890424Y7177709D01*
X11890419Y7177708D01*
X11882315Y7176756D01*
X11874470Y7174492D01*
X11874472Y7174492D01*
X11842481Y7165258D01*
X11824242Y7160913D01*
X11783490Y7153213D01*
X11775829Y7150410D01*
X11775820Y7150407D01*
X11725577Y7132020D01*
X11712382Y7127707D01*
X11679805Y7118304D01*
X11624622Y7110500D01*
X9761453Y7110500D01*
X9675110Y7130207D01*
X9605869Y7185426D01*
X9566326Y7270428D01*
X9564795Y7278076D01*
X9563829Y7288594D01*
X9513127Y7450383D01*
X9506916Y7460639D01*
X9506914Y7460643D01*
X9431513Y7585144D01*
X9425297Y7595408D01*
X9305408Y7715297D01*
X9242747Y7753246D01*
X9170643Y7796914D01*
X9170639Y7796916D01*
X9160383Y7803127D01*
X9148940Y7806713D01*
X9148938Y7806714D01*
X9081091Y7827976D01*
X8998594Y7853829D01*
X8951124Y7858191D01*
X8930534Y7860083D01*
X8930528Y7860083D01*
X8925993Y7860500D01*
X7370342Y7860500D01*
X5814008Y7860499D01*
X5741406Y7853829D01*
X5640367Y7822165D01*
X5591062Y7806714D01*
X5591060Y7806713D01*
X5579617Y7803127D01*
X5569361Y7796916D01*
X5569357Y7796914D01*
X5497253Y7753246D01*
X5434592Y7715297D01*
X5314703Y7595408D01*
X5308487Y7585144D01*
X5233086Y7460643D01*
X5233084Y7460639D01*
X5226873Y7450383D01*
X5176171Y7288594D01*
X5169500Y7215993D01*
X5169501Y4104008D01*
X5176171Y4031406D01*
X5226873Y3869617D01*
X5233084Y3859361D01*
X5233086Y3859357D01*
X5277433Y3786132D01*
X5314703Y3724592D01*
X5434592Y3604703D01*
X5444856Y3598487D01*
X5569357Y3523086D01*
X5569361Y3523084D01*
X5579617Y3516873D01*
X5591060Y3513287D01*
X5591062Y3513286D01*
X5658909Y3492024D01*
X5741406Y3466171D01*
X5788876Y3461809D01*
X5809466Y3459917D01*
X5809472Y3459917D01*
X5814007Y3459500D01*
X7369658Y3459500D01*
X8925992Y3459501D01*
X8998594Y3466171D01*
X9099633Y3497835D01*
X9148938Y3513286D01*
X9148940Y3513287D01*
X9160383Y3516873D01*
X9170639Y3523084D01*
X9170643Y3523086D01*
X9295144Y3598487D01*
X9305408Y3604703D01*
X9425297Y3724592D01*
X9462567Y3786132D01*
X9506914Y3859357D01*
X9506916Y3859361D01*
X9513127Y3869617D01*
X9554765Y4002481D01*
X9560671Y4021328D01*
X9560671Y4021330D01*
X9563829Y4031406D01*
X9564795Y4041924D01*
X9566328Y4049577D01*
X9602607Y4130369D01*
X9670347Y4187419D01*
X9761454Y4209500D01*
X11576756Y4209500D01*
X11663099Y4189793D01*
X11717470Y4151214D01*
X12071371Y3797313D01*
X12081074Y3786132D01*
X12081277Y3786313D01*
X12086695Y3780210D01*
X12091602Y3773675D01*
X12097510Y3768029D01*
X12097511Y3768028D01*
X12166756Y3701856D01*
X12169984Y3698700D01*
X12197096Y3671588D01*
X12204460Y3665343D01*
X12213203Y3657470D01*
X12264042Y3608887D01*
X12291152Y3590394D01*
X12307715Y3577775D01*
X12332737Y3556555D01*
X12388660Y3523086D01*
X12393069Y3520447D01*
X12403016Y3514085D01*
X12461082Y3474475D01*
X12468491Y3471036D01*
X12490845Y3460659D01*
X12509249Y3450914D01*
X12537401Y3434066D01*
X12545002Y3431072D01*
X12602819Y3408297D01*
X12613670Y3403646D01*
X12677428Y3374051D01*
X12685293Y3371870D01*
X12709041Y3365284D01*
X12728795Y3358674D01*
X12751725Y3349641D01*
X12751736Y3349638D01*
X12759323Y3346649D01*
X12767302Y3344938D01*
X12767307Y3344937D01*
X12797018Y3338568D01*
X12828062Y3331913D01*
X12839511Y3329102D01*
X12907272Y3310309D01*
X12915392Y3309441D01*
X12915393Y3309441D01*
X12939898Y3306822D01*
X12960461Y3303528D01*
X12984549Y3298364D01*
X12984555Y3298363D01*
X12992542Y3296651D01*
X13000703Y3296266D01*
X13000704Y3296266D01*
X13043342Y3294255D01*
X13062771Y3293339D01*
X13074539Y3292433D01*
X13076659Y3292207D01*
X13096713Y3290063D01*
X13096722Y3290062D01*
X13101986Y3289500D01*
X13139487Y3289500D01*
X13148861Y3289279D01*
X13230795Y3285415D01*
X13238907Y3286368D01*
X13238908Y3286368D01*
X13254000Y3288141D01*
X13277218Y3289500D01*
X17241187Y3289500D01*
X17327530Y3269793D01*
X17396771Y3214574D01*
X17431081Y3150008D01*
X17446873Y3099617D01*
X17453084Y3089361D01*
X17453086Y3089357D01*
X17502704Y3007428D01*
X17534703Y2954592D01*
X17654592Y2834703D01*
X17664856Y2828487D01*
X17789357Y2753086D01*
X17789361Y2753084D01*
X17799617Y2746873D01*
X17811060Y2743287D01*
X17811062Y2743286D01*
X17875642Y2723048D01*
X17961406Y2696171D01*
X18008876Y2691809D01*
X18029466Y2689917D01*
X18029472Y2689917D01*
X18034007Y2689500D01*
X18190214Y2689500D01*
X18276557Y2669793D01*
X18345798Y2614574D01*
X18384225Y2534782D01*
X18389163Y2495013D01*
X18389449Y2482404D01*
X18389500Y2477891D01*
X18389500Y2439537D01*
X18389835Y2435464D01*
X18390289Y2429940D01*
X18390907Y2418152D01*
X18392502Y2347862D01*
X18394019Y2339835D01*
X18394019Y2339832D01*
X18398593Y2315625D01*
X18401384Y2294987D01*
X18404073Y2262284D01*
X18406063Y2254362D01*
X18406063Y2254361D01*
X18421199Y2194100D01*
X18423734Y2182570D01*
X18436787Y2113490D01*
X18439592Y2105826D01*
X18439593Y2105821D01*
X18448061Y2082682D01*
X18454185Y2062774D01*
X18460188Y2038876D01*
X18460190Y2038869D01*
X18462179Y2030952D01*
X18465433Y2023469D01*
X18490217Y1966470D01*
X18494601Y1955508D01*
X18518756Y1889500D01*
X18534919Y1860932D01*
X18544205Y1842306D01*
X18557288Y1812216D01*
X18561727Y1805355D01*
X18595475Y1753188D01*
X18601591Y1743090D01*
X18636208Y1681904D01*
X18641331Y1675555D01*
X18641333Y1675552D01*
X18656810Y1656371D01*
X18669020Y1639503D01*
X18682410Y1618806D01*
X18686845Y1611951D01*
X18734171Y1559942D01*
X18741833Y1551001D01*
X18759177Y1529506D01*
X18785696Y1502987D01*
X18792168Y1496203D01*
X18847371Y1435536D01*
X18853776Y1430478D01*
X18853782Y1430472D01*
X18865705Y1421056D01*
X18883084Y1405599D01*
X19218969Y1069714D01*
X19266088Y994726D01*
X19276004Y906719D01*
X19246753Y823126D01*
X19184129Y760502D01*
X19100536Y731251D01*
X19078255Y730000D01*
X939000Y730000D01*
X852657Y749707D01*
X783416Y804926D01*
X744989Y884718D01*
X740000Y929000D01*
X740000Y13010759D01*
X759707Y13097102D01*
X814926Y13166343D01*
X881649Y13201316D01*
X927015Y13214970D01*
X1071325Y13258402D01*
X1076664Y13260718D01*
X1076667Y13260719D01*
X1191219Y13310409D01*
X1377488Y13391208D01*
X1666064Y13558827D01*
X1670721Y13562317D01*
X1928463Y13755483D01*
X1928466Y13755486D01*
X1933114Y13758969D01*
X2174989Y13988901D01*
X2235229Y14061331D01*
X2384671Y14241016D01*
X2384672Y14241018D01*
X2388386Y14245483D01*
X2495956Y14410810D01*
X2567218Y14520334D01*
X2567222Y14520341D01*
X2570390Y14525210D01*
X2694359Y14775492D01*
X2715936Y14819054D01*
X2715937Y14819056D01*
X2718515Y14824261D01*
X2756041Y14929356D01*
X2828781Y15133070D01*
X2828783Y15133077D01*
X2830738Y15138552D01*
X2905526Y15463789D01*
X2941858Y15795531D01*
X2939792Y16058568D01*
X2939283Y16123425D01*
X2939283Y16123430D01*
X2939237Y16129246D01*
X2937071Y16146518D01*
X2898422Y16454613D01*
X2898422Y16454614D01*
X2897699Y16460376D01*
X2875122Y16551948D01*
X2819207Y16778743D01*
X2819204Y16778751D01*
X2817812Y16784399D01*
X2700666Y17096888D01*
X2695880Y17106182D01*
X2550526Y17388403D01*
X2550524Y17388406D01*
X2547862Y17393575D01*
X2513528Y17444574D01*
X2364732Y17665588D01*
X2364729Y17665591D01*
X2361486Y17670409D01*
X2357706Y17674811D01*
X2357701Y17674818D01*
X2171998Y17891099D01*
X2144086Y17923607D01*
X1929765Y18121031D01*
X1902910Y18145769D01*
X1902905Y18145773D01*
X1898629Y18149712D01*
X1662199Y18321173D01*
X1633172Y18342224D01*
X1633168Y18342227D01*
X1628468Y18345635D01*
X1337294Y18508701D01*
X1029084Y18636681D01*
X884649Y18677688D01*
X806972Y18720228D01*
X755444Y18792258D01*
X740000Y18869122D01*
X740000Y29131000D01*
X759707Y29217343D01*
X814926Y29286584D01*
X894718Y29325011D01*
X939000Y29330000D01*
X3940500Y29330000D01*
X4026843Y29310293D01*
G37*
%TD.AperFunction*%
%TA.AperFunction,Conductor*%
G36*
X13181932Y17499793D02*
G01*
X13251173Y17444574D01*
X13289600Y17364782D01*
X13293754Y17302292D01*
X13289500Y17255993D01*
X13289501Y14144008D01*
X13296171Y14071406D01*
X13299327Y14061334D01*
X13299328Y14061331D01*
X13328260Y13969009D01*
X13335274Y13880724D01*
X13303289Y13798138D01*
X13238639Y13737609D01*
X13154128Y13711125D01*
X13138366Y13710500D01*
X12339500Y13710500D01*
X12253157Y13730207D01*
X12183916Y13785426D01*
X12145489Y13865218D01*
X12140500Y13909500D01*
X12140500Y17019839D01*
X12160207Y17106182D01*
X12215426Y17175423D01*
X12227646Y17184428D01*
X12292332Y17228388D01*
X12292336Y17228391D01*
X12297795Y17232101D01*
X12515716Y17426945D01*
X12535480Y17450004D01*
X12606633Y17502737D01*
X12686575Y17519500D01*
X13095589Y17519500D01*
X13181932Y17499793D01*
G37*
%TD.AperFunction*%
%TA.AperFunction,Conductor*%
G36*
X84735652Y23409793D02*
G01*
X84804893Y23354574D01*
X84843320Y23274782D01*
X84843320Y23186218D01*
X84804893Y23106426D01*
X84735652Y23051207D01*
X84696102Y23037080D01*
X84602594Y23014458D01*
X84418090Y22950207D01*
X84219158Y22880932D01*
X84219154Y22880930D01*
X84214567Y22879333D01*
X83841578Y22706988D01*
X83790303Y22676905D01*
X83491391Y22501535D01*
X83491383Y22501530D01*
X83487187Y22499068D01*
X83154776Y22257557D01*
X83151140Y22254329D01*
X83151134Y22254324D01*
X82892633Y22024816D01*
X82847520Y21984762D01*
X82568350Y21683286D01*
X82348006Y21392994D01*
X82280109Y21336137D01*
X82194263Y21314369D01*
X82107473Y21332004D01*
X82036930Y21385549D01*
X81996605Y21464399D01*
X81990500Y21513312D01*
X81990499Y22281432D01*
X81990499Y22285992D01*
X81983829Y22358594D01*
X81952165Y22459633D01*
X81936714Y22508938D01*
X81936713Y22508940D01*
X81933127Y22520383D01*
X81926916Y22530639D01*
X81926914Y22530643D01*
X81851513Y22655144D01*
X81845297Y22665408D01*
X81725408Y22785297D01*
X81701532Y22799757D01*
X81590643Y22866914D01*
X81590639Y22866916D01*
X81580383Y22873127D01*
X81568940Y22876713D01*
X81568938Y22876714D01*
X81501091Y22897976D01*
X81418594Y22923829D01*
X81371124Y22928191D01*
X81350534Y22930083D01*
X81350528Y22930083D01*
X81345993Y22930500D01*
X75706387Y22930500D01*
X75703956Y22930515D01*
X75588471Y22931926D01*
X75581645Y22930882D01*
X75570725Y22930500D01*
X71879537Y22930500D01*
X71879533Y22930499D01*
X70134008Y22930499D01*
X70061406Y22923829D01*
X69960367Y22892165D01*
X69911062Y22876714D01*
X69911060Y22876713D01*
X69899617Y22873127D01*
X69889361Y22866916D01*
X69889357Y22866914D01*
X69778468Y22799757D01*
X69754592Y22785297D01*
X69634703Y22665408D01*
X69628487Y22655144D01*
X69553086Y22530643D01*
X69553084Y22530639D01*
X69546873Y22520383D01*
X69543287Y22508940D01*
X69543286Y22508938D01*
X69522024Y22441091D01*
X69496171Y22358594D01*
X69495205Y22348076D01*
X69489918Y22290538D01*
X69489500Y22285993D01*
X69489501Y21634118D01*
X69489501Y21510294D01*
X69469794Y21423951D01*
X69414576Y21354710D01*
X69334783Y21316283D01*
X69246220Y21316283D01*
X69166427Y21354709D01*
X69130327Y21392204D01*
X68951972Y21634118D01*
X68949080Y21638041D01*
X68908342Y21683286D01*
X68677401Y21939772D01*
X68674147Y21943386D01*
X68370729Y22220444D01*
X68041723Y22466572D01*
X67731247Y22654603D01*
X67694422Y22676905D01*
X67694420Y22676906D01*
X67690269Y22679420D01*
X67685898Y22681514D01*
X67685891Y22681518D01*
X67456312Y22791513D01*
X67319722Y22856956D01*
X66933620Y22997486D01*
X66776794Y23037752D01*
X66698065Y23078313D01*
X66644730Y23149016D01*
X66627355Y23235858D01*
X66649380Y23321639D01*
X66706443Y23389369D01*
X66787241Y23425633D01*
X66826283Y23429500D01*
X84649309Y23429500D01*
X84735652Y23409793D01*
G37*
%TD.AperFunction*%
%TD*%
%TA.AperFunction,NonConductor*%
G36*
X124635652Y23409793D02*
G01*
X124704893Y23354574D01*
X124743320Y23274782D01*
X124743320Y23186218D01*
X124704893Y23106426D01*
X124635652Y23051207D01*
X124596102Y23037080D01*
X124502594Y23014458D01*
X124318090Y22950207D01*
X124119158Y22880932D01*
X124119154Y22880930D01*
X124114567Y22879333D01*
X123741578Y22706988D01*
X123690303Y22676905D01*
X123391391Y22501535D01*
X123391383Y22501530D01*
X123387187Y22499068D01*
X123054776Y22257557D01*
X123051140Y22254329D01*
X123051134Y22254324D01*
X122792633Y22024816D01*
X122747520Y21984762D01*
X122468350Y21683286D01*
X122248006Y21392994D01*
X122180109Y21336137D01*
X122094263Y21314369D01*
X122007473Y21332004D01*
X121936930Y21385549D01*
X121896605Y21464399D01*
X121890500Y21513312D01*
X121890499Y22281432D01*
X121890499Y22285992D01*
X121883829Y22358594D01*
X121852165Y22459633D01*
X121836714Y22508938D01*
X121836713Y22508940D01*
X121833127Y22520383D01*
X121826916Y22530639D01*
X121826914Y22530643D01*
X121751513Y22655144D01*
X121745297Y22665408D01*
X121625408Y22785297D01*
X121601532Y22799757D01*
X121490643Y22866914D01*
X121490639Y22866916D01*
X121480383Y22873127D01*
X121468940Y22876713D01*
X121468938Y22876714D01*
X121401091Y22897976D01*
X121318594Y22923829D01*
X121271124Y22928191D01*
X121250534Y22930083D01*
X121250528Y22930083D01*
X121245993Y22930500D01*
X111879537Y22930500D01*
X111879533Y22930499D01*
X110134008Y22930499D01*
X110061406Y22923829D01*
X109960367Y22892165D01*
X109911062Y22876714D01*
X109911060Y22876713D01*
X109899617Y22873127D01*
X109889361Y22866916D01*
X109889357Y22866914D01*
X109778468Y22799757D01*
X109754592Y22785297D01*
X109634703Y22665408D01*
X109628487Y22655144D01*
X109553086Y22530643D01*
X109553084Y22530639D01*
X109546873Y22520383D01*
X109543287Y22508940D01*
X109543286Y22508938D01*
X109522024Y22441091D01*
X109496171Y22358594D01*
X109495205Y22348076D01*
X109489918Y22290538D01*
X109489500Y22285993D01*
X109489501Y21634118D01*
X109489501Y21510294D01*
X109469794Y21423951D01*
X109414576Y21354710D01*
X109334783Y21316283D01*
X109246220Y21316283D01*
X109166427Y21354709D01*
X109130327Y21392204D01*
X108951972Y21634118D01*
X108949080Y21638041D01*
X108908342Y21683286D01*
X108677401Y21939772D01*
X108674147Y21943386D01*
X108370729Y22220444D01*
X108041723Y22466572D01*
X107731247Y22654603D01*
X107694422Y22676905D01*
X107694420Y22676906D01*
X107690269Y22679420D01*
X107685898Y22681514D01*
X107685891Y22681518D01*
X107456312Y22791513D01*
X107319722Y22856956D01*
X106933620Y22997486D01*
X106776794Y23037752D01*
X106698065Y23078313D01*
X106644730Y23149016D01*
X106627355Y23235858D01*
X106649380Y23321639D01*
X106706443Y23389369D01*
X106787241Y23425633D01*
X106826283Y23429500D01*
X124549309Y23429500D01*
X124635652Y23409793D01*
G37*
%TD.AperFunction*%
%TA.AperFunction,NonConductor*%
G36*
X24685652Y23409793D02*
G01*
X24754893Y23354574D01*
X24793320Y23274782D01*
X24793320Y23186218D01*
X24754893Y23106426D01*
X24685652Y23051207D01*
X24646102Y23037080D01*
X24552594Y23014458D01*
X24368090Y22950207D01*
X24169158Y22880932D01*
X24169154Y22880930D01*
X24164567Y22879333D01*
X23791578Y22706988D01*
X23740303Y22676905D01*
X23441391Y22501535D01*
X23441383Y22501530D01*
X23437187Y22499068D01*
X23104776Y22257557D01*
X23101140Y22254329D01*
X23101134Y22254324D01*
X22842633Y22024816D01*
X22797520Y21984762D01*
X22518350Y21683286D01*
X22298006Y21392994D01*
X22230109Y21336137D01*
X22144263Y21314369D01*
X22057473Y21332004D01*
X21986930Y21385549D01*
X21946605Y21464399D01*
X21940500Y21513312D01*
X21940499Y22281432D01*
X21940499Y22285992D01*
X21933829Y22358594D01*
X21902165Y22459633D01*
X21886714Y22508938D01*
X21886713Y22508940D01*
X21883127Y22520383D01*
X21876916Y22530639D01*
X21876914Y22530643D01*
X21801513Y22655144D01*
X21795297Y22665408D01*
X21675408Y22785297D01*
X21651532Y22799757D01*
X21540643Y22866914D01*
X21540639Y22866916D01*
X21530383Y22873127D01*
X21518940Y22876713D01*
X21518938Y22876714D01*
X21451091Y22897976D01*
X21368594Y22923829D01*
X21321124Y22928191D01*
X21300534Y22930083D01*
X21300528Y22930083D01*
X21295993Y22930500D01*
X18880674Y22930500D01*
X18794331Y22950207D01*
X18725090Y23005426D01*
X18686663Y23085218D01*
X18681879Y23138526D01*
X18683229Y23168258D01*
X18686465Y23239527D01*
X18710068Y23324887D01*
X18768370Y23391552D01*
X18849824Y23426320D01*
X18885260Y23429500D01*
X24599309Y23429500D01*
X24685652Y23409793D01*
G37*
%TD.AperFunction*%
%TA.AperFunction,NonConductor*%
G36*
X104635652Y23409793D02*
G01*
X104704893Y23354574D01*
X104743320Y23274782D01*
X104743320Y23186218D01*
X104704893Y23106426D01*
X104635652Y23051207D01*
X104596102Y23037080D01*
X104502594Y23014458D01*
X104318090Y22950207D01*
X104119158Y22880932D01*
X104119154Y22880930D01*
X104114567Y22879333D01*
X103741578Y22706988D01*
X103690303Y22676905D01*
X103391391Y22501535D01*
X103391383Y22501530D01*
X103387187Y22499068D01*
X103054776Y22257557D01*
X103051140Y22254329D01*
X103051134Y22254324D01*
X102792633Y22024816D01*
X102747520Y21984762D01*
X102468350Y21683286D01*
X102248006Y21392994D01*
X102180109Y21336137D01*
X102094263Y21314369D01*
X102007473Y21332004D01*
X101936930Y21385549D01*
X101896605Y21464399D01*
X101890500Y21513312D01*
X101890499Y22281432D01*
X101890499Y22285992D01*
X101883829Y22358594D01*
X101852165Y22459633D01*
X101836714Y22508938D01*
X101836713Y22508940D01*
X101833127Y22520383D01*
X101826916Y22530639D01*
X101826914Y22530643D01*
X101751513Y22655144D01*
X101745297Y22665408D01*
X101625408Y22785297D01*
X101601532Y22799757D01*
X101490643Y22866914D01*
X101490639Y22866916D01*
X101480383Y22873127D01*
X101468940Y22876713D01*
X101468938Y22876714D01*
X101401091Y22897976D01*
X101318594Y22923829D01*
X101271124Y22928191D01*
X101250534Y22930083D01*
X101250528Y22930083D01*
X101245993Y22930500D01*
X91979537Y22930500D01*
X91979533Y22930499D01*
X90234008Y22930499D01*
X90161406Y22923829D01*
X90060367Y22892165D01*
X90011062Y22876714D01*
X90011060Y22876713D01*
X89999617Y22873127D01*
X89989361Y22866916D01*
X89989357Y22866914D01*
X89878468Y22799757D01*
X89854592Y22785297D01*
X89734703Y22665408D01*
X89728487Y22655144D01*
X89653086Y22530643D01*
X89653084Y22530639D01*
X89646873Y22520383D01*
X89643287Y22508940D01*
X89643286Y22508938D01*
X89622024Y22441091D01*
X89596171Y22358594D01*
X89595205Y22348076D01*
X89589918Y22290538D01*
X89589500Y22285993D01*
X89589501Y21634118D01*
X89589501Y21510294D01*
X89569794Y21423951D01*
X89514576Y21354710D01*
X89434783Y21316283D01*
X89346220Y21316283D01*
X89266427Y21354709D01*
X89230327Y21392204D01*
X89051972Y21634118D01*
X89049080Y21638041D01*
X89008342Y21683286D01*
X88777401Y21939772D01*
X88774147Y21943386D01*
X88470729Y22220444D01*
X88141723Y22466572D01*
X87831247Y22654603D01*
X87794422Y22676905D01*
X87794420Y22676906D01*
X87790269Y22679420D01*
X87785898Y22681514D01*
X87785891Y22681518D01*
X87556312Y22791513D01*
X87419722Y22856956D01*
X87033620Y22997486D01*
X86876794Y23037752D01*
X86798065Y23078313D01*
X86744730Y23149016D01*
X86727355Y23235858D01*
X86749380Y23321639D01*
X86806443Y23389369D01*
X86887241Y23425633D01*
X86926283Y23429500D01*
X104549309Y23429500D01*
X104635652Y23409793D01*
G37*
%TD.AperFunction*%
%TA.AperFunction,NonConductor*%
G36*
X44635652Y23409793D02*
G01*
X44704893Y23354574D01*
X44743320Y23274782D01*
X44743320Y23186218D01*
X44704893Y23106426D01*
X44635652Y23051207D01*
X44596102Y23037080D01*
X44502594Y23014458D01*
X44318090Y22950207D01*
X44119158Y22880932D01*
X44119154Y22880930D01*
X44114567Y22879333D01*
X43741578Y22706988D01*
X43690303Y22676905D01*
X43391391Y22501535D01*
X43391383Y22501530D01*
X43387187Y22499068D01*
X43054776Y22257557D01*
X43051140Y22254329D01*
X43051134Y22254324D01*
X42792633Y22024816D01*
X42747520Y21984762D01*
X42468350Y21683286D01*
X42248006Y21392994D01*
X42180109Y21336137D01*
X42094263Y21314369D01*
X42007473Y21332004D01*
X41936930Y21385549D01*
X41896605Y21464399D01*
X41890500Y21513312D01*
X41890499Y22281432D01*
X41890499Y22285992D01*
X41883829Y22358594D01*
X41852165Y22459633D01*
X41836714Y22508938D01*
X41836713Y22508940D01*
X41833127Y22520383D01*
X41826916Y22530639D01*
X41826914Y22530643D01*
X41751513Y22655144D01*
X41745297Y22665408D01*
X41625408Y22785297D01*
X41601532Y22799757D01*
X41490643Y22866914D01*
X41490639Y22866916D01*
X41480383Y22873127D01*
X41468940Y22876713D01*
X41468938Y22876714D01*
X41401091Y22897976D01*
X41318594Y22923829D01*
X41271124Y22928191D01*
X41250534Y22930083D01*
X41250528Y22930083D01*
X41245993Y22930500D01*
X31929537Y22930500D01*
X31929533Y22930499D01*
X30184008Y22930499D01*
X30111406Y22923829D01*
X30010367Y22892165D01*
X29961062Y22876714D01*
X29961060Y22876713D01*
X29949617Y22873127D01*
X29939361Y22866916D01*
X29939357Y22866914D01*
X29828468Y22799757D01*
X29804592Y22785297D01*
X29684703Y22665408D01*
X29678487Y22655144D01*
X29603086Y22530643D01*
X29603084Y22530639D01*
X29596873Y22520383D01*
X29593287Y22508940D01*
X29593286Y22508938D01*
X29572024Y22441091D01*
X29546171Y22358594D01*
X29545205Y22348076D01*
X29539918Y22290538D01*
X29539500Y22285993D01*
X29539501Y21634118D01*
X29539501Y21510294D01*
X29519794Y21423951D01*
X29464576Y21354710D01*
X29384783Y21316283D01*
X29296220Y21316283D01*
X29216427Y21354709D01*
X29180327Y21392204D01*
X29001972Y21634118D01*
X28999080Y21638041D01*
X28958342Y21683286D01*
X28727401Y21939772D01*
X28724147Y21943386D01*
X28420729Y22220444D01*
X28091723Y22466572D01*
X27781247Y22654603D01*
X27744422Y22676905D01*
X27744420Y22676906D01*
X27740269Y22679420D01*
X27735898Y22681514D01*
X27735891Y22681518D01*
X27506312Y22791513D01*
X27369722Y22856956D01*
X26983620Y22997486D01*
X26826794Y23037752D01*
X26748065Y23078313D01*
X26694730Y23149016D01*
X26677355Y23235858D01*
X26699380Y23321639D01*
X26756443Y23389369D01*
X26837241Y23425633D01*
X26876283Y23429500D01*
X44549309Y23429500D01*
X44635652Y23409793D01*
G37*
%TD.AperFunction*%
%TA.AperFunction,NonConductor*%
G36*
X64635652Y23409793D02*
G01*
X64704893Y23354574D01*
X64743320Y23274782D01*
X64743320Y23186218D01*
X64704893Y23106426D01*
X64635652Y23051207D01*
X64596102Y23037080D01*
X64502594Y23014458D01*
X64318090Y22950207D01*
X64119158Y22880932D01*
X64119154Y22880930D01*
X64114567Y22879333D01*
X63741578Y22706988D01*
X63690303Y22676905D01*
X63391391Y22501535D01*
X63391383Y22501530D01*
X63387187Y22499068D01*
X63054776Y22257557D01*
X63051140Y22254329D01*
X63051134Y22254324D01*
X62792633Y22024816D01*
X62747520Y21984762D01*
X62468350Y21683286D01*
X62248006Y21392994D01*
X62180109Y21336137D01*
X62094263Y21314369D01*
X62007473Y21332004D01*
X61936930Y21385549D01*
X61896605Y21464399D01*
X61890500Y21513312D01*
X61890499Y22281432D01*
X61890499Y22285992D01*
X61883829Y22358594D01*
X61852165Y22459633D01*
X61836714Y22508938D01*
X61836713Y22508940D01*
X61833127Y22520383D01*
X61826916Y22530639D01*
X61826914Y22530643D01*
X61751513Y22655144D01*
X61745297Y22665408D01*
X61625408Y22785297D01*
X61601532Y22799757D01*
X61490643Y22866914D01*
X61490639Y22866916D01*
X61480383Y22873127D01*
X61468940Y22876713D01*
X61468938Y22876714D01*
X61401091Y22897976D01*
X61318594Y22923829D01*
X61271124Y22928191D01*
X61250534Y22930083D01*
X61250528Y22930083D01*
X61245993Y22930500D01*
X51879537Y22930500D01*
X51879533Y22930499D01*
X50134008Y22930499D01*
X50061406Y22923829D01*
X49960367Y22892165D01*
X49911062Y22876714D01*
X49911060Y22876713D01*
X49899617Y22873127D01*
X49889361Y22866916D01*
X49889357Y22866914D01*
X49778468Y22799757D01*
X49754592Y22785297D01*
X49634703Y22665408D01*
X49628487Y22655144D01*
X49553086Y22530643D01*
X49553084Y22530639D01*
X49546873Y22520383D01*
X49543287Y22508940D01*
X49543286Y22508938D01*
X49522024Y22441091D01*
X49496171Y22358594D01*
X49495205Y22348076D01*
X49489918Y22290538D01*
X49489500Y22285993D01*
X49489501Y21634118D01*
X49489501Y21510294D01*
X49469794Y21423951D01*
X49414576Y21354710D01*
X49334783Y21316283D01*
X49246220Y21316283D01*
X49166427Y21354709D01*
X49130327Y21392204D01*
X48951972Y21634118D01*
X48949080Y21638041D01*
X48908342Y21683286D01*
X48677401Y21939772D01*
X48674147Y21943386D01*
X48370729Y22220444D01*
X48041723Y22466572D01*
X47731247Y22654603D01*
X47694422Y22676905D01*
X47694420Y22676906D01*
X47690269Y22679420D01*
X47685898Y22681514D01*
X47685891Y22681518D01*
X47456312Y22791513D01*
X47319722Y22856956D01*
X46933620Y22997486D01*
X46776794Y23037752D01*
X46698065Y23078313D01*
X46644730Y23149016D01*
X46627355Y23235858D01*
X46649380Y23321639D01*
X46706443Y23389369D01*
X46787241Y23425633D01*
X46826283Y23429500D01*
X64549309Y23429500D01*
X64635652Y23409793D01*
G37*
%TD.AperFunction*%
%TA.AperFunction,NonConductor*%
G36*
X15038246Y21159793D02*
G01*
X15107487Y21104574D01*
X15134396Y21059855D01*
X15140215Y21046473D01*
X15144601Y21035508D01*
X15168756Y20969500D01*
X15184919Y20940932D01*
X15194205Y20922306D01*
X15207288Y20892216D01*
X15211727Y20885355D01*
X15245475Y20833188D01*
X15251591Y20823090D01*
X15286208Y20761904D01*
X15291329Y20755557D01*
X15291334Y20755550D01*
X15300280Y20744464D01*
X15339163Y20664893D01*
X15339670Y20576331D01*
X15301702Y20496319D01*
X15232778Y20440705D01*
X15145409Y20420500D01*
X12682824Y20420500D01*
X12596481Y20440207D01*
X12537285Y20483782D01*
X12454224Y20572854D01*
X12454215Y20572862D01*
X12449717Y20577686D01*
X12223829Y20763233D01*
X12146190Y20811371D01*
X12083193Y20873619D01*
X12053442Y20957036D01*
X12062831Y21045100D01*
X12109500Y21120369D01*
X12184205Y21167936D01*
X12251054Y21179500D01*
X14951903Y21179500D01*
X15038246Y21159793D01*
G37*
%TD.AperFunction*%
%TA.AperFunction,NonConductor*%
G36*
X22263573Y16606952D02*
G01*
X22301306Y16567210D01*
X22444125Y16367722D01*
X22714769Y16058568D01*
X22718300Y16055252D01*
X22718304Y16055248D01*
X22868943Y15913789D01*
X23014289Y15777300D01*
X23339826Y15526603D01*
X23343944Y15524030D01*
X23343948Y15524027D01*
X23684164Y15311437D01*
X23688274Y15308869D01*
X24056306Y15126176D01*
X24440409Y14980269D01*
X24836916Y14872540D01*
X25242044Y14804018D01*
X25584801Y14780050D01*
X25647076Y14775695D01*
X25647078Y14775695D01*
X25651925Y14775356D01*
X26062647Y14786829D01*
X26470289Y14838326D01*
X26870960Y14929356D01*
X26875575Y14930891D01*
X26875585Y14930894D01*
X27256208Y15057511D01*
X27256216Y15057514D01*
X27260836Y15059051D01*
X27411602Y15126176D01*
X27631749Y15224191D01*
X27631758Y15224195D01*
X27636195Y15226171D01*
X27993455Y15429123D01*
X27997418Y15431918D01*
X27997425Y15431923D01*
X28325227Y15663163D01*
X28329205Y15665969D01*
X28472602Y15789745D01*
X28636557Y15931267D01*
X28636558Y15931268D01*
X28640241Y15934447D01*
X28755278Y16055248D01*
X28920238Y16228473D01*
X28920246Y16228483D01*
X28923593Y16231997D01*
X29176557Y16555776D01*
X29178182Y16558337D01*
X29243755Y16617266D01*
X29328788Y16642021D01*
X29416141Y16627430D01*
X29488512Y16576382D01*
X29531568Y16498989D01*
X29539500Y16443366D01*
X29539501Y16058568D01*
X29539501Y15674008D01*
X29546171Y15601406D01*
X29596873Y15439617D01*
X29603084Y15429361D01*
X29603086Y15429357D01*
X29608981Y15419624D01*
X29684703Y15294592D01*
X29804592Y15174703D01*
X29814856Y15168487D01*
X29939357Y15093086D01*
X29939361Y15093084D01*
X29949617Y15086873D01*
X29961060Y15083287D01*
X29961062Y15083286D01*
X30028909Y15062024D01*
X30111406Y15036171D01*
X30158876Y15031809D01*
X30179466Y15029917D01*
X30179472Y15029917D01*
X30184007Y15029500D01*
X39500463Y15029500D01*
X39500467Y15029501D01*
X41245992Y15029501D01*
X41318594Y15036171D01*
X41419633Y15067835D01*
X41468938Y15083286D01*
X41468940Y15083287D01*
X41480383Y15086873D01*
X41490639Y15093084D01*
X41490643Y15093086D01*
X41615144Y15168487D01*
X41625408Y15174703D01*
X41745297Y15294592D01*
X41821019Y15419624D01*
X41826914Y15429357D01*
X41826916Y15429361D01*
X41833127Y15439617D01*
X41883829Y15601406D01*
X41889504Y15663163D01*
X41890083Y15669466D01*
X41890083Y15669472D01*
X41890500Y15674007D01*
X41890499Y16451369D01*
X41910206Y16537710D01*
X41965424Y16606951D01*
X42045217Y16645378D01*
X42133780Y16645378D01*
X42213573Y16606952D01*
X42251306Y16567210D01*
X42394125Y16367722D01*
X42664769Y16058568D01*
X42668300Y16055252D01*
X42668304Y16055248D01*
X42818943Y15913789D01*
X42964289Y15777300D01*
X43289826Y15526603D01*
X43293944Y15524030D01*
X43293948Y15524027D01*
X43634164Y15311437D01*
X43638274Y15308869D01*
X44006306Y15126176D01*
X44390409Y14980269D01*
X44786916Y14872540D01*
X45192044Y14804018D01*
X45534801Y14780050D01*
X45597076Y14775695D01*
X45597078Y14775695D01*
X45601925Y14775356D01*
X46012647Y14786829D01*
X46420289Y14838326D01*
X46820960Y14929356D01*
X46825575Y14930891D01*
X46825585Y14930894D01*
X47206208Y15057511D01*
X47206216Y15057514D01*
X47210836Y15059051D01*
X47361602Y15126176D01*
X47581749Y15224191D01*
X47581758Y15224195D01*
X47586195Y15226171D01*
X47943455Y15429123D01*
X47947418Y15431918D01*
X47947425Y15431923D01*
X48275227Y15663163D01*
X48279205Y15665969D01*
X48422602Y15789745D01*
X48586557Y15931267D01*
X48586558Y15931268D01*
X48590241Y15934447D01*
X48705278Y16055248D01*
X48870238Y16228473D01*
X48870246Y16228483D01*
X48873593Y16231997D01*
X49126557Y16555776D01*
X49128182Y16558337D01*
X49193755Y16617266D01*
X49278788Y16642021D01*
X49366141Y16627430D01*
X49438512Y16576382D01*
X49481568Y16498989D01*
X49489500Y16443366D01*
X49489501Y16058568D01*
X49489501Y15674008D01*
X49496171Y15601406D01*
X49546873Y15439617D01*
X49553084Y15429361D01*
X49553086Y15429357D01*
X49558981Y15419624D01*
X49634703Y15294592D01*
X49754592Y15174703D01*
X49764856Y15168487D01*
X49889357Y15093086D01*
X49889361Y15093084D01*
X49899617Y15086873D01*
X49911060Y15083287D01*
X49911062Y15083286D01*
X49978909Y15062024D01*
X50061406Y15036171D01*
X50108876Y15031809D01*
X50129466Y15029917D01*
X50129472Y15029917D01*
X50134007Y15029500D01*
X59500463Y15029500D01*
X59500467Y15029501D01*
X61245992Y15029501D01*
X61318594Y15036171D01*
X61419633Y15067835D01*
X61468938Y15083286D01*
X61468940Y15083287D01*
X61480383Y15086873D01*
X61490639Y15093084D01*
X61490643Y15093086D01*
X61615144Y15168487D01*
X61625408Y15174703D01*
X61745297Y15294592D01*
X61821019Y15419624D01*
X61826914Y15429357D01*
X61826916Y15429361D01*
X61833127Y15439617D01*
X61883829Y15601406D01*
X61889504Y15663163D01*
X61890083Y15669466D01*
X61890083Y15669472D01*
X61890500Y15674007D01*
X61890499Y16451369D01*
X61910206Y16537710D01*
X61965424Y16606951D01*
X62045217Y16645378D01*
X62133780Y16645378D01*
X62213573Y16606952D01*
X62251306Y16567210D01*
X62394125Y16367722D01*
X62664769Y16058568D01*
X62668300Y16055252D01*
X62668304Y16055248D01*
X62818943Y15913789D01*
X62964289Y15777300D01*
X63289826Y15526603D01*
X63293944Y15524030D01*
X63293948Y15524027D01*
X63634164Y15311437D01*
X63638274Y15308869D01*
X64006306Y15126176D01*
X64390409Y14980269D01*
X64786916Y14872540D01*
X65192044Y14804018D01*
X65534801Y14780050D01*
X65597076Y14775695D01*
X65597078Y14775695D01*
X65601925Y14775356D01*
X66012647Y14786829D01*
X66420289Y14838326D01*
X66820960Y14929356D01*
X66825575Y14930891D01*
X66825585Y14930894D01*
X67206208Y15057511D01*
X67206216Y15057514D01*
X67210836Y15059051D01*
X67361602Y15126176D01*
X67581749Y15224191D01*
X67581758Y15224195D01*
X67586195Y15226171D01*
X67943455Y15429123D01*
X67947418Y15431918D01*
X67947425Y15431923D01*
X68275227Y15663163D01*
X68279205Y15665969D01*
X68422602Y15789745D01*
X68586557Y15931267D01*
X68586558Y15931268D01*
X68590241Y15934447D01*
X68705278Y16055248D01*
X68870238Y16228473D01*
X68870246Y16228483D01*
X68873593Y16231997D01*
X69126557Y16555776D01*
X69128182Y16558337D01*
X69193755Y16617266D01*
X69278788Y16642021D01*
X69366141Y16627430D01*
X69438512Y16576382D01*
X69481568Y16498989D01*
X69489500Y16443366D01*
X69489501Y16058568D01*
X69489501Y15674008D01*
X69496171Y15601406D01*
X69546873Y15439617D01*
X69553084Y15429361D01*
X69553086Y15429357D01*
X69558981Y15419624D01*
X69634703Y15294592D01*
X69754592Y15174703D01*
X69764856Y15168487D01*
X69889357Y15093086D01*
X69889361Y15093084D01*
X69899617Y15086873D01*
X69911060Y15083287D01*
X69911062Y15083286D01*
X69978909Y15062024D01*
X70061406Y15036171D01*
X70108876Y15031809D01*
X70129466Y15029917D01*
X70129472Y15029917D01*
X70134007Y15029500D01*
X75673613Y15029500D01*
X75676043Y15029485D01*
X75791529Y15028074D01*
X75798355Y15029118D01*
X75809275Y15029500D01*
X79600463Y15029500D01*
X79600467Y15029501D01*
X81345992Y15029501D01*
X81418594Y15036171D01*
X81519633Y15067835D01*
X81568938Y15083286D01*
X81568940Y15083287D01*
X81580383Y15086873D01*
X81590639Y15093084D01*
X81590643Y15093086D01*
X81715144Y15168487D01*
X81725408Y15174703D01*
X81845297Y15294592D01*
X81921019Y15419624D01*
X81926914Y15429357D01*
X81926916Y15429361D01*
X81933127Y15439617D01*
X81983829Y15601406D01*
X81989504Y15663163D01*
X81990083Y15669466D01*
X81990083Y15669472D01*
X81990500Y15674007D01*
X81990499Y16451369D01*
X82010206Y16537710D01*
X82065424Y16606951D01*
X82145217Y16645378D01*
X82233780Y16645378D01*
X82313573Y16606952D01*
X82351306Y16567210D01*
X82494125Y16367722D01*
X82764769Y16058568D01*
X82768300Y16055252D01*
X82768304Y16055248D01*
X82918943Y15913789D01*
X83064289Y15777300D01*
X83389826Y15526603D01*
X83393944Y15524030D01*
X83393948Y15524027D01*
X83734164Y15311437D01*
X83738274Y15308869D01*
X84106306Y15126176D01*
X84490409Y14980269D01*
X84886916Y14872540D01*
X85292044Y14804018D01*
X85634801Y14780050D01*
X85697076Y14775695D01*
X85697078Y14775695D01*
X85701925Y14775356D01*
X86112647Y14786829D01*
X86520289Y14838326D01*
X86920960Y14929356D01*
X86925575Y14930891D01*
X86925585Y14930894D01*
X87306208Y15057511D01*
X87306216Y15057514D01*
X87310836Y15059051D01*
X87461602Y15126176D01*
X87681749Y15224191D01*
X87681758Y15224195D01*
X87686195Y15226171D01*
X88043455Y15429123D01*
X88047418Y15431918D01*
X88047425Y15431923D01*
X88375227Y15663163D01*
X88379205Y15665969D01*
X88522602Y15789745D01*
X88686557Y15931267D01*
X88686558Y15931268D01*
X88690241Y15934447D01*
X88805278Y16055248D01*
X88970238Y16228473D01*
X88970246Y16228483D01*
X88973593Y16231997D01*
X89226557Y16555776D01*
X89228182Y16558337D01*
X89293755Y16617266D01*
X89378788Y16642021D01*
X89466141Y16627430D01*
X89538512Y16576382D01*
X89581568Y16498989D01*
X89589500Y16443366D01*
X89589501Y16058568D01*
X89589501Y15674008D01*
X89596171Y15601406D01*
X89646873Y15439617D01*
X89653084Y15429361D01*
X89653086Y15429357D01*
X89658981Y15419624D01*
X89734703Y15294592D01*
X89854592Y15174703D01*
X89864856Y15168487D01*
X89989357Y15093086D01*
X89989361Y15093084D01*
X89999617Y15086873D01*
X90011060Y15083287D01*
X90011062Y15083286D01*
X90078909Y15062024D01*
X90161406Y15036171D01*
X90208876Y15031809D01*
X90229466Y15029917D01*
X90229472Y15029917D01*
X90234007Y15029500D01*
X99500463Y15029500D01*
X99500467Y15029501D01*
X101245992Y15029501D01*
X101318594Y15036171D01*
X101419633Y15067835D01*
X101468938Y15083286D01*
X101468940Y15083287D01*
X101480383Y15086873D01*
X101490639Y15093084D01*
X101490643Y15093086D01*
X101615144Y15168487D01*
X101625408Y15174703D01*
X101745297Y15294592D01*
X101821019Y15419624D01*
X101826914Y15429357D01*
X101826916Y15429361D01*
X101833127Y15439617D01*
X101883829Y15601406D01*
X101889504Y15663163D01*
X101890083Y15669466D01*
X101890083Y15669472D01*
X101890500Y15674007D01*
X101890499Y16451369D01*
X101910206Y16537710D01*
X101965424Y16606951D01*
X102045217Y16645378D01*
X102133780Y16645378D01*
X102213573Y16606952D01*
X102251306Y16567210D01*
X102394125Y16367722D01*
X102664769Y16058568D01*
X102668300Y16055252D01*
X102668304Y16055248D01*
X102818943Y15913789D01*
X102964289Y15777300D01*
X103289826Y15526603D01*
X103293944Y15524030D01*
X103293948Y15524027D01*
X103634164Y15311437D01*
X103638274Y15308869D01*
X104006306Y15126176D01*
X104390409Y14980269D01*
X104786916Y14872540D01*
X105192044Y14804018D01*
X105534801Y14780050D01*
X105597076Y14775695D01*
X105597078Y14775695D01*
X105601925Y14775356D01*
X106012647Y14786829D01*
X106420289Y14838326D01*
X106820960Y14929356D01*
X106825575Y14930891D01*
X106825585Y14930894D01*
X107206208Y15057511D01*
X107206216Y15057514D01*
X107210836Y15059051D01*
X107361602Y15126176D01*
X107581749Y15224191D01*
X107581758Y15224195D01*
X107586195Y15226171D01*
X107943455Y15429123D01*
X107947418Y15431918D01*
X107947425Y15431923D01*
X108275227Y15663163D01*
X108279205Y15665969D01*
X108422602Y15789745D01*
X108586557Y15931267D01*
X108586558Y15931268D01*
X108590241Y15934447D01*
X108705278Y16055248D01*
X108870238Y16228473D01*
X108870246Y16228483D01*
X108873593Y16231997D01*
X109126557Y16555776D01*
X109128182Y16558337D01*
X109193755Y16617266D01*
X109278788Y16642021D01*
X109366141Y16627430D01*
X109438512Y16576382D01*
X109481568Y16498989D01*
X109489500Y16443366D01*
X109489501Y16058568D01*
X109489501Y15674008D01*
X109496171Y15601406D01*
X109546873Y15439617D01*
X109553084Y15429361D01*
X109553086Y15429357D01*
X109558981Y15419624D01*
X109634703Y15294592D01*
X109754592Y15174703D01*
X109764856Y15168487D01*
X109889357Y15093086D01*
X109889361Y15093084D01*
X109899617Y15086873D01*
X109911060Y15083287D01*
X109911062Y15083286D01*
X109978909Y15062024D01*
X110061406Y15036171D01*
X110108876Y15031809D01*
X110129466Y15029917D01*
X110129472Y15029917D01*
X110134007Y15029500D01*
X119500463Y15029500D01*
X119500467Y15029501D01*
X121245992Y15029501D01*
X121318594Y15036171D01*
X121419633Y15067835D01*
X121468938Y15083286D01*
X121468940Y15083287D01*
X121480383Y15086873D01*
X121490639Y15093084D01*
X121490643Y15093086D01*
X121615144Y15168487D01*
X121625408Y15174703D01*
X121745297Y15294592D01*
X121821019Y15419624D01*
X121826914Y15429357D01*
X121826916Y15429361D01*
X121833127Y15439617D01*
X121883829Y15601406D01*
X121889504Y15663163D01*
X121890083Y15669466D01*
X121890083Y15669472D01*
X121890500Y15674007D01*
X121890499Y16451369D01*
X121910206Y16537710D01*
X121965424Y16606951D01*
X122045217Y16645378D01*
X122133780Y16645378D01*
X122213573Y16606952D01*
X122251306Y16567210D01*
X122394125Y16367722D01*
X122664769Y16058568D01*
X122668300Y16055252D01*
X122668304Y16055248D01*
X122818943Y15913789D01*
X122964289Y15777300D01*
X123289826Y15526603D01*
X123293944Y15524030D01*
X123293948Y15524027D01*
X123634164Y15311437D01*
X123638274Y15308869D01*
X124006306Y15126176D01*
X124390409Y14980269D01*
X124786916Y14872540D01*
X125192044Y14804018D01*
X125534801Y14780050D01*
X125597076Y14775695D01*
X125597078Y14775695D01*
X125601925Y14775356D01*
X126012647Y14786829D01*
X126420289Y14838326D01*
X126820960Y14929356D01*
X126825575Y14930891D01*
X126825585Y14930894D01*
X127206208Y15057511D01*
X127206216Y15057514D01*
X127210836Y15059051D01*
X127361602Y15126176D01*
X127581749Y15224191D01*
X127581758Y15224195D01*
X127586195Y15226171D01*
X127943455Y15429123D01*
X127947418Y15431918D01*
X127947425Y15431923D01*
X128275227Y15663163D01*
X128279205Y15665969D01*
X128422602Y15789745D01*
X128586557Y15931267D01*
X128586558Y15931268D01*
X128590241Y15934447D01*
X128705278Y16055248D01*
X128870238Y16228473D01*
X128870246Y16228483D01*
X128873593Y16231997D01*
X129126557Y16555776D01*
X129128182Y16558337D01*
X129193755Y16617266D01*
X129278788Y16642021D01*
X129366141Y16627430D01*
X129438512Y16576382D01*
X129481568Y16498989D01*
X129489500Y16443366D01*
X129489501Y16058568D01*
X129489501Y15674008D01*
X129496171Y15601406D01*
X129546873Y15439617D01*
X129553084Y15429361D01*
X129553086Y15429357D01*
X129558981Y15419624D01*
X129634703Y15294592D01*
X129754592Y15174703D01*
X129764856Y15168487D01*
X129889357Y15093086D01*
X129889361Y15093084D01*
X129899617Y15086873D01*
X129911060Y15083287D01*
X129911062Y15083286D01*
X129978909Y15062024D01*
X130061406Y15036171D01*
X130108876Y15031809D01*
X130129466Y15029917D01*
X130129472Y15029917D01*
X130134007Y15029500D01*
X131939603Y15029500D01*
X133745992Y15029501D01*
X133818594Y15036171D01*
X133919633Y15067835D01*
X133968938Y15083286D01*
X133968940Y15083287D01*
X133980383Y15086873D01*
X133990639Y15093084D01*
X133990643Y15093086D01*
X134115144Y15168487D01*
X134125408Y15174703D01*
X134171919Y15221214D01*
X134246907Y15268333D01*
X134312633Y15279500D01*
X134940501Y15279500D01*
X135026844Y15259793D01*
X135096085Y15204574D01*
X135134512Y15124782D01*
X135139501Y15080500D01*
X135139501Y14074008D01*
X135146171Y14001406D01*
X135149328Y13991332D01*
X135149329Y13991327D01*
X135156323Y13969008D01*
X135163337Y13880722D01*
X135131351Y13798137D01*
X135066700Y13737608D01*
X134982189Y13711125D01*
X134966429Y13710500D01*
X17841634Y13710500D01*
X17755291Y13730207D01*
X17686050Y13785426D01*
X17647623Y13865218D01*
X17647623Y13953782D01*
X17651740Y13969009D01*
X17680671Y14061327D01*
X17680672Y14061332D01*
X17683829Y14071406D01*
X17688191Y14118876D01*
X17690083Y14139466D01*
X17690083Y14139472D01*
X17690500Y14144007D01*
X17690500Y14830500D01*
X17710207Y14916843D01*
X17765426Y14986084D01*
X17845218Y15024511D01*
X17889500Y15029500D01*
X19550463Y15029500D01*
X19550467Y15029501D01*
X21295992Y15029501D01*
X21368594Y15036171D01*
X21469633Y15067835D01*
X21518938Y15083286D01*
X21518940Y15083287D01*
X21530383Y15086873D01*
X21540639Y15093084D01*
X21540643Y15093086D01*
X21665144Y15168487D01*
X21675408Y15174703D01*
X21795297Y15294592D01*
X21871019Y15419624D01*
X21876914Y15429357D01*
X21876916Y15429361D01*
X21883127Y15439617D01*
X21933829Y15601406D01*
X21939504Y15663163D01*
X21940083Y15669466D01*
X21940083Y15669472D01*
X21940500Y15674007D01*
X21940499Y16451369D01*
X21960206Y16537710D01*
X22015424Y16606951D01*
X22095217Y16645378D01*
X22183780Y16645378D01*
X22263573Y16606952D01*
G37*
%TD.AperFunction*%
%TA.AperFunction,NonConductor*%
G36*
X49574710Y9589793D02*
G01*
X49643951Y9534574D01*
X49682378Y9454782D01*
X49682378Y9366218D01*
X49643951Y9286426D01*
X49629081Y9269786D01*
X49584703Y9225408D01*
X49578487Y9215144D01*
X49503086Y9090643D01*
X49503084Y9090639D01*
X49496873Y9080383D01*
X49493287Y9068940D01*
X49493286Y9068938D01*
X49478422Y9021507D01*
X49446171Y8918594D01*
X49442775Y8881636D01*
X49439918Y8850538D01*
X49439500Y8845993D01*
X49439501Y7450383D01*
X49439501Y6694465D01*
X49419794Y6608122D01*
X49364576Y6538881D01*
X49284783Y6500454D01*
X49196219Y6500454D01*
X49116427Y6538880D01*
X49061208Y6608122D01*
X49043951Y6663335D01*
X49025367Y6780671D01*
X49017680Y6829204D01*
X49014086Y6842619D01*
X48945769Y7097578D01*
X48921361Y7188671D01*
X48787995Y7536100D01*
X48619043Y7867686D01*
X48416357Y8179796D01*
X48397675Y8202867D01*
X48185435Y8464961D01*
X48182157Y8469009D01*
X47919009Y8732157D01*
X47629796Y8966357D01*
X47562489Y9010067D01*
X47322058Y9166205D01*
X47322046Y9166212D01*
X47317687Y9169043D01*
X47191790Y9233191D01*
X47123806Y9289948D01*
X47087180Y9370582D01*
X47089167Y9459123D01*
X47129374Y9538034D01*
X47199837Y9591685D01*
X47282135Y9609500D01*
X49488367Y9609500D01*
X49574710Y9589793D01*
G37*
%TD.AperFunction*%
%TA.AperFunction,NonConductor*%
G36*
X30224710Y9589793D02*
G01*
X30293951Y9534574D01*
X30332378Y9454782D01*
X30332378Y9366218D01*
X30293951Y9286426D01*
X30279081Y9269786D01*
X30234703Y9225408D01*
X30228487Y9215144D01*
X30153086Y9090643D01*
X30153084Y9090639D01*
X30146873Y9080383D01*
X30143287Y9068940D01*
X30143286Y9068938D01*
X30128422Y9021507D01*
X30096171Y8918594D01*
X30092775Y8881636D01*
X30089918Y8850538D01*
X30089500Y8845993D01*
X30089501Y7450383D01*
X30089501Y6694465D01*
X30069794Y6608122D01*
X30014576Y6538881D01*
X29934783Y6500454D01*
X29846219Y6500454D01*
X29766427Y6538880D01*
X29711208Y6608122D01*
X29693951Y6663335D01*
X29675367Y6780671D01*
X29667680Y6829204D01*
X29664086Y6842619D01*
X29595769Y7097578D01*
X29571361Y7188671D01*
X29437995Y7536100D01*
X29269043Y7867686D01*
X29066357Y8179796D01*
X29047675Y8202867D01*
X28835435Y8464961D01*
X28832157Y8469009D01*
X28569009Y8732157D01*
X28279796Y8966357D01*
X28212489Y9010067D01*
X27972058Y9166205D01*
X27972046Y9166212D01*
X27967687Y9169043D01*
X27841790Y9233191D01*
X27773806Y9289948D01*
X27737180Y9370582D01*
X27739167Y9459123D01*
X27779374Y9538034D01*
X27849837Y9591685D01*
X27932135Y9609500D01*
X30138367Y9609500D01*
X30224710Y9589793D01*
G37*
%TD.AperFunction*%
%TA.AperFunction,NonConductor*%
G36*
X130104710Y9589793D02*
G01*
X130173951Y9534574D01*
X130212378Y9454782D01*
X130212378Y9366218D01*
X130173951Y9286426D01*
X130159081Y9269786D01*
X130114703Y9225408D01*
X130108487Y9215144D01*
X130033086Y9090643D01*
X130033084Y9090639D01*
X130026873Y9080383D01*
X130023287Y9068940D01*
X130023286Y9068938D01*
X130008422Y9021507D01*
X129976171Y8918594D01*
X129972775Y8881636D01*
X129969918Y8850538D01*
X129969500Y8845993D01*
X129969501Y7450383D01*
X129969501Y6694465D01*
X129949794Y6608122D01*
X129894576Y6538881D01*
X129814783Y6500454D01*
X129726219Y6500454D01*
X129646427Y6538880D01*
X129591208Y6608122D01*
X129573951Y6663335D01*
X129555367Y6780671D01*
X129547680Y6829204D01*
X129544086Y6842619D01*
X129475769Y7097578D01*
X129451361Y7188671D01*
X129317995Y7536100D01*
X129149043Y7867686D01*
X128946357Y8179796D01*
X128927675Y8202867D01*
X128715435Y8464961D01*
X128712157Y8469009D01*
X128449009Y8732157D01*
X128159796Y8966357D01*
X128092489Y9010067D01*
X127852058Y9166205D01*
X127852046Y9166212D01*
X127847687Y9169043D01*
X127721790Y9233191D01*
X127653806Y9289948D01*
X127617180Y9370582D01*
X127619167Y9459123D01*
X127659374Y9538034D01*
X127729837Y9591685D01*
X127812135Y9609500D01*
X130018367Y9609500D01*
X130104710Y9589793D01*
G37*
%TD.AperFunction*%
%TA.AperFunction,NonConductor*%
G36*
X70164710Y9589793D02*
G01*
X70233951Y9534574D01*
X70272378Y9454782D01*
X70272378Y9366218D01*
X70233951Y9286426D01*
X70219081Y9269786D01*
X70174703Y9225408D01*
X70168487Y9215144D01*
X70093086Y9090643D01*
X70093084Y9090639D01*
X70086873Y9080383D01*
X70083287Y9068940D01*
X70083286Y9068938D01*
X70068422Y9021507D01*
X70036171Y8918594D01*
X70032775Y8881636D01*
X70029918Y8850538D01*
X70029500Y8845993D01*
X70029501Y7450383D01*
X70029501Y6694465D01*
X70009794Y6608122D01*
X69954576Y6538881D01*
X69874783Y6500454D01*
X69786219Y6500454D01*
X69706427Y6538880D01*
X69651208Y6608122D01*
X69633951Y6663335D01*
X69615367Y6780671D01*
X69607680Y6829204D01*
X69604086Y6842619D01*
X69535769Y7097578D01*
X69511361Y7188671D01*
X69377995Y7536100D01*
X69209043Y7867686D01*
X69006357Y8179796D01*
X68987675Y8202867D01*
X68775435Y8464961D01*
X68772157Y8469009D01*
X68509009Y8732157D01*
X68219796Y8966357D01*
X68152489Y9010067D01*
X67912058Y9166205D01*
X67912046Y9166212D01*
X67907687Y9169043D01*
X67781790Y9233191D01*
X67713806Y9289948D01*
X67677180Y9370582D01*
X67679167Y9459123D01*
X67719374Y9538034D01*
X67789837Y9591685D01*
X67872135Y9609500D01*
X70078367Y9609500D01*
X70164710Y9589793D01*
G37*
%TD.AperFunction*%
%TA.AperFunction,NonConductor*%
G36*
X90164710Y9589793D02*
G01*
X90233951Y9534574D01*
X90272378Y9454782D01*
X90272378Y9366218D01*
X90233951Y9286426D01*
X90219081Y9269786D01*
X90174703Y9225408D01*
X90168487Y9215144D01*
X90093086Y9090643D01*
X90093084Y9090639D01*
X90086873Y9080383D01*
X90083287Y9068940D01*
X90083286Y9068938D01*
X90068422Y9021507D01*
X90036171Y8918594D01*
X90032775Y8881636D01*
X90029918Y8850538D01*
X90029500Y8845993D01*
X90029501Y7450383D01*
X90029501Y6694465D01*
X90009794Y6608122D01*
X89954576Y6538881D01*
X89874783Y6500454D01*
X89786219Y6500454D01*
X89706427Y6538880D01*
X89651208Y6608122D01*
X89633951Y6663335D01*
X89615367Y6780671D01*
X89607680Y6829204D01*
X89604086Y6842619D01*
X89535769Y7097578D01*
X89511361Y7188671D01*
X89377995Y7536100D01*
X89209043Y7867686D01*
X89006357Y8179796D01*
X88987675Y8202867D01*
X88775435Y8464961D01*
X88772157Y8469009D01*
X88509009Y8732157D01*
X88219796Y8966357D01*
X88152489Y9010067D01*
X87912058Y9166205D01*
X87912046Y9166212D01*
X87907687Y9169043D01*
X87781790Y9233191D01*
X87713806Y9289948D01*
X87677180Y9370582D01*
X87679167Y9459123D01*
X87719374Y9538034D01*
X87789837Y9591685D01*
X87872135Y9609500D01*
X90078367Y9609500D01*
X90164710Y9589793D01*
G37*
%TD.AperFunction*%
%TA.AperFunction,NonConductor*%
G36*
X110754710Y9589793D02*
G01*
X110823951Y9534574D01*
X110862378Y9454782D01*
X110862378Y9366218D01*
X110823951Y9286426D01*
X110809081Y9269786D01*
X110764703Y9225408D01*
X110758487Y9215144D01*
X110683086Y9090643D01*
X110683084Y9090639D01*
X110676873Y9080383D01*
X110673287Y9068940D01*
X110673286Y9068938D01*
X110658422Y9021507D01*
X110626171Y8918594D01*
X110622775Y8881636D01*
X110619918Y8850538D01*
X110619500Y8845993D01*
X110619501Y7450383D01*
X110619501Y6694465D01*
X110599794Y6608122D01*
X110544576Y6538881D01*
X110464783Y6500454D01*
X110376219Y6500454D01*
X110296427Y6538880D01*
X110241208Y6608122D01*
X110223951Y6663335D01*
X110205367Y6780671D01*
X110197680Y6829204D01*
X110194086Y6842619D01*
X110125769Y7097578D01*
X110101361Y7188671D01*
X109967995Y7536100D01*
X109799043Y7867686D01*
X109596357Y8179796D01*
X109577675Y8202867D01*
X109365435Y8464961D01*
X109362157Y8469009D01*
X109099009Y8732157D01*
X108809796Y8966357D01*
X108742489Y9010067D01*
X108502058Y9166205D01*
X108502046Y9166212D01*
X108497687Y9169043D01*
X108371790Y9233191D01*
X108303806Y9289948D01*
X108267180Y9370582D01*
X108269167Y9459123D01*
X108309374Y9538034D01*
X108379837Y9591685D01*
X108462135Y9609500D01*
X110668367Y9609500D01*
X110754710Y9589793D01*
G37*
%TD.AperFunction*%
%TA.AperFunction,NonConductor*%
G36*
X64474208Y9589793D02*
G01*
X64543449Y9534574D01*
X64581876Y9454782D01*
X64581876Y9366218D01*
X64543449Y9286426D01*
X64478209Y9233190D01*
X64352314Y9169043D01*
X64347960Y9166215D01*
X64347954Y9166212D01*
X64125129Y9021508D01*
X64040204Y8966357D01*
X64036163Y8963084D01*
X64036158Y8963081D01*
X63837872Y8802512D01*
X63750991Y8732157D01*
X63487843Y8469009D01*
X63484565Y8464961D01*
X63272326Y8202867D01*
X63253643Y8179796D01*
X63050957Y7867686D01*
X62882005Y7536100D01*
X62748639Y7188671D01*
X62724231Y7097578D01*
X62655915Y6842619D01*
X62652320Y6829204D01*
X62594104Y6461638D01*
X62593831Y6456435D01*
X62593831Y6456432D01*
X62588024Y6345631D01*
X62563825Y6260438D01*
X62505058Y6194181D01*
X62423364Y6159984D01*
X62334922Y6164619D01*
X62257249Y6207169D01*
X62205731Y6279205D01*
X62199403Y6296537D01*
X62176715Y6368936D01*
X62176713Y6368941D01*
X62173127Y6380383D01*
X62166916Y6390639D01*
X62166914Y6390643D01*
X62091513Y6515144D01*
X62085297Y6525408D01*
X61965408Y6645297D01*
X61884222Y6694465D01*
X61830643Y6726914D01*
X61830639Y6726916D01*
X61820383Y6733127D01*
X61808940Y6736713D01*
X61808938Y6736714D01*
X61718843Y6764948D01*
X61658594Y6783829D01*
X61611124Y6788191D01*
X61590534Y6790083D01*
X61590528Y6790083D01*
X61585993Y6790500D01*
X61432716Y6790500D01*
X58743246Y6790499D01*
X58656903Y6810206D01*
X58602532Y6848785D01*
X57068626Y8382691D01*
X57058927Y8393868D01*
X57058723Y8393687D01*
X57053305Y8399790D01*
X57048398Y8406325D01*
X56973265Y8478124D01*
X56970038Y8481279D01*
X56942905Y8508412D01*
X56939791Y8511053D01*
X56939767Y8511075D01*
X56935554Y8514648D01*
X56926785Y8522543D01*
X56881866Y8565468D01*
X56881861Y8565472D01*
X56875958Y8571113D01*
X56848839Y8589612D01*
X56832296Y8602215D01*
X56807263Y8623444D01*
X56800253Y8627640D01*
X56800248Y8627643D01*
X56746952Y8659541D01*
X56737009Y8665900D01*
X56685670Y8700921D01*
X56685653Y8700930D01*
X56678918Y8705525D01*
X56649159Y8719339D01*
X56630767Y8729076D01*
X56602600Y8745934D01*
X56594999Y8748928D01*
X56594993Y8748931D01*
X56537172Y8771707D01*
X56526329Y8776354D01*
X56462572Y8805949D01*
X56454703Y8808131D01*
X56454698Y8808133D01*
X56430959Y8814716D01*
X56411218Y8821321D01*
X56380678Y8833351D01*
X56311930Y8848089D01*
X56300477Y8850902D01*
X56232728Y8869691D01*
X56200102Y8873178D01*
X56179538Y8876472D01*
X56155451Y8881636D01*
X56155445Y8881637D01*
X56147458Y8883349D01*
X56139295Y8883734D01*
X56139294Y8883734D01*
X56077244Y8886660D01*
X56065472Y8887566D01*
X56043289Y8889937D01*
X56043274Y8889938D01*
X56038014Y8890500D01*
X56000499Y8890500D01*
X55991125Y8890721D01*
X55909205Y8894584D01*
X55901093Y8893631D01*
X55901092Y8893631D01*
X55886008Y8891859D01*
X55862791Y8890500D01*
X54488813Y8890500D01*
X54402470Y8910207D01*
X54333229Y8965426D01*
X54298919Y9029992D01*
X54286715Y9068934D01*
X54286715Y9068935D01*
X54283127Y9080383D01*
X54276916Y9090639D01*
X54276914Y9090643D01*
X54201513Y9215144D01*
X54195297Y9225408D01*
X54150919Y9269786D01*
X54103800Y9344774D01*
X54093884Y9432781D01*
X54123135Y9516374D01*
X54185759Y9578998D01*
X54269352Y9608249D01*
X54291633Y9609500D01*
X64387865Y9609500D01*
X64474208Y9589793D01*
G37*
%TD.AperFunction*%
%TA.AperFunction,NonConductor*%
G36*
X84474208Y9589793D02*
G01*
X84543449Y9534574D01*
X84581876Y9454782D01*
X84581876Y9366218D01*
X84543449Y9286426D01*
X84478209Y9233190D01*
X84352314Y9169043D01*
X84347960Y9166215D01*
X84347954Y9166212D01*
X84125129Y9021508D01*
X84040204Y8966357D01*
X84036163Y8963084D01*
X84036158Y8963081D01*
X83837872Y8802512D01*
X83750991Y8732157D01*
X83487843Y8469009D01*
X83484565Y8464961D01*
X83272326Y8202867D01*
X83253643Y8179796D01*
X83050957Y7867686D01*
X82882005Y7536100D01*
X82748639Y7188671D01*
X82724231Y7097578D01*
X82655915Y6842619D01*
X82652320Y6829204D01*
X82594104Y6461638D01*
X82593831Y6456435D01*
X82593831Y6456432D01*
X82588024Y6345631D01*
X82563825Y6260438D01*
X82505058Y6194181D01*
X82423364Y6159984D01*
X82334922Y6164619D01*
X82257249Y6207169D01*
X82205731Y6279205D01*
X82199403Y6296537D01*
X82176715Y6368936D01*
X82176713Y6368941D01*
X82173127Y6380383D01*
X82166916Y6390639D01*
X82166914Y6390643D01*
X82091513Y6515144D01*
X82085297Y6525408D01*
X81965408Y6645297D01*
X81884222Y6694465D01*
X81830643Y6726914D01*
X81830639Y6726916D01*
X81820383Y6733127D01*
X81808940Y6736713D01*
X81808938Y6736714D01*
X81718843Y6764948D01*
X81658594Y6783829D01*
X81611124Y6788191D01*
X81590534Y6790083D01*
X81590528Y6790083D01*
X81585993Y6790500D01*
X79903245Y6790500D01*
X79816902Y6810207D01*
X79762531Y6848786D01*
X78998785Y7612532D01*
X78951666Y7687520D01*
X78940499Y7753246D01*
X78940499Y9225992D01*
X78933829Y9298594D01*
X78930672Y9308669D01*
X78917409Y9350991D01*
X78910394Y9439276D01*
X78942380Y9521861D01*
X79007030Y9582391D01*
X79091541Y9608875D01*
X79107303Y9609500D01*
X84387865Y9609500D01*
X84474208Y9589793D01*
G37*
%TD.AperFunction*%
%TA.AperFunction,NonConductor*%
G36*
X105064208Y9589793D02*
G01*
X105133449Y9534574D01*
X105171876Y9454782D01*
X105171876Y9366218D01*
X105133449Y9286426D01*
X105068209Y9233190D01*
X104942314Y9169043D01*
X104937960Y9166215D01*
X104937954Y9166212D01*
X104715129Y9021508D01*
X104630204Y8966357D01*
X104626163Y8963084D01*
X104626158Y8963081D01*
X104427872Y8802512D01*
X104340991Y8732157D01*
X104077843Y8469009D01*
X104074565Y8464961D01*
X103862326Y8202867D01*
X103843643Y8179796D01*
X103640957Y7867686D01*
X103472005Y7536100D01*
X103338639Y7188671D01*
X103314231Y7097578D01*
X103245915Y6842619D01*
X103242320Y6829204D01*
X103184104Y6461638D01*
X103183831Y6456435D01*
X103183831Y6456432D01*
X103178024Y6345631D01*
X103153825Y6260438D01*
X103095058Y6194181D01*
X103013364Y6159984D01*
X102924922Y6164619D01*
X102847249Y6207169D01*
X102795731Y6279205D01*
X102789403Y6296537D01*
X102766715Y6368936D01*
X102766713Y6368941D01*
X102763127Y6380383D01*
X102756916Y6390639D01*
X102756914Y6390643D01*
X102681513Y6515144D01*
X102675297Y6525408D01*
X102555408Y6645297D01*
X102474222Y6694465D01*
X102420643Y6726914D01*
X102420639Y6726916D01*
X102410383Y6733127D01*
X102398940Y6736713D01*
X102398938Y6736714D01*
X102308843Y6764948D01*
X102248594Y6783829D01*
X102201124Y6788191D01*
X102180534Y6790083D01*
X102180528Y6790083D01*
X102175993Y6790500D01*
X101073245Y6790500D01*
X100986902Y6810207D01*
X100932531Y6848786D01*
X99398626Y8382691D01*
X99388927Y8393868D01*
X99388723Y8393687D01*
X99383305Y8399790D01*
X99378398Y8406325D01*
X99303265Y8478124D01*
X99300038Y8481279D01*
X99272905Y8508412D01*
X99269791Y8511053D01*
X99269767Y8511075D01*
X99265554Y8514648D01*
X99256785Y8522543D01*
X99211866Y8565468D01*
X99211861Y8565472D01*
X99205958Y8571113D01*
X99178839Y8589612D01*
X99162296Y8602215D01*
X99137263Y8623444D01*
X99130253Y8627640D01*
X99130248Y8627643D01*
X99076952Y8659541D01*
X99067009Y8665900D01*
X99015670Y8700921D01*
X99015653Y8700930D01*
X99008918Y8705525D01*
X98979159Y8719339D01*
X98960767Y8729076D01*
X98932600Y8745934D01*
X98924999Y8748928D01*
X98924993Y8748931D01*
X98867172Y8771707D01*
X98856329Y8776354D01*
X98792572Y8805949D01*
X98784703Y8808131D01*
X98784698Y8808133D01*
X98760959Y8814716D01*
X98741218Y8821321D01*
X98710678Y8833351D01*
X98641930Y8848089D01*
X98630477Y8850902D01*
X98562728Y8869691D01*
X98530102Y8873178D01*
X98509538Y8876472D01*
X98485451Y8881636D01*
X98485445Y8881637D01*
X98477458Y8883349D01*
X98469295Y8883734D01*
X98469294Y8883734D01*
X98407244Y8886660D01*
X98395472Y8887566D01*
X98373289Y8889937D01*
X98373274Y8889938D01*
X98368014Y8890500D01*
X98330499Y8890500D01*
X98321125Y8890721D01*
X98239205Y8894584D01*
X98231093Y8893631D01*
X98231092Y8893631D01*
X98216008Y8891859D01*
X98192791Y8890500D01*
X95078813Y8890500D01*
X94992470Y8910207D01*
X94923229Y8965426D01*
X94888919Y9029992D01*
X94876715Y9068934D01*
X94876715Y9068935D01*
X94873127Y9080383D01*
X94866916Y9090639D01*
X94866914Y9090643D01*
X94791513Y9215144D01*
X94785297Y9225408D01*
X94740919Y9269786D01*
X94693800Y9344774D01*
X94683884Y9432781D01*
X94713135Y9516374D01*
X94775759Y9578998D01*
X94859352Y9608249D01*
X94881633Y9609500D01*
X104977865Y9609500D01*
X105064208Y9589793D01*
G37*
%TD.AperFunction*%
%TA.AperFunction,NonConductor*%
G36*
X124414208Y9589793D02*
G01*
X124483449Y9534574D01*
X124521876Y9454782D01*
X124521876Y9366218D01*
X124483449Y9286426D01*
X124418209Y9233190D01*
X124292314Y9169043D01*
X124287960Y9166215D01*
X124287954Y9166212D01*
X124065129Y9021508D01*
X123980204Y8966357D01*
X123976163Y8963084D01*
X123976158Y8963081D01*
X123777872Y8802512D01*
X123690991Y8732157D01*
X123427843Y8469009D01*
X123424565Y8464961D01*
X123212326Y8202867D01*
X123193643Y8179796D01*
X122990957Y7867686D01*
X122822005Y7536100D01*
X122688639Y7188671D01*
X122664231Y7097578D01*
X122595915Y6842619D01*
X122592320Y6829204D01*
X122534104Y6461638D01*
X122533831Y6456435D01*
X122533831Y6456432D01*
X122528024Y6345631D01*
X122503825Y6260438D01*
X122445058Y6194181D01*
X122363364Y6159984D01*
X122274922Y6164619D01*
X122197249Y6207169D01*
X122145731Y6279205D01*
X122139403Y6296537D01*
X122116715Y6368936D01*
X122116713Y6368941D01*
X122113127Y6380383D01*
X122106916Y6390639D01*
X122106914Y6390643D01*
X122031513Y6515144D01*
X122025297Y6525408D01*
X121905408Y6645297D01*
X121824222Y6694465D01*
X121770643Y6726914D01*
X121770639Y6726916D01*
X121760383Y6733127D01*
X121748940Y6736713D01*
X121748938Y6736714D01*
X121658843Y6764948D01*
X121598594Y6783829D01*
X121551124Y6788191D01*
X121530534Y6790083D01*
X121530528Y6790083D01*
X121525993Y6790500D01*
X119923245Y6790500D01*
X119836902Y6810207D01*
X119782531Y6848786D01*
X118248626Y8382691D01*
X118238927Y8393868D01*
X118238723Y8393687D01*
X118233305Y8399790D01*
X118228398Y8406325D01*
X118153265Y8478124D01*
X118150038Y8481279D01*
X118122905Y8508412D01*
X118119791Y8511053D01*
X118119767Y8511075D01*
X118115554Y8514648D01*
X118106785Y8522543D01*
X118061866Y8565468D01*
X118061861Y8565472D01*
X118055958Y8571113D01*
X118028839Y8589612D01*
X118012296Y8602215D01*
X117987263Y8623444D01*
X117980253Y8627640D01*
X117980248Y8627643D01*
X117926952Y8659541D01*
X117917009Y8665900D01*
X117865670Y8700921D01*
X117865653Y8700930D01*
X117858918Y8705525D01*
X117829159Y8719339D01*
X117810767Y8729076D01*
X117782600Y8745934D01*
X117774999Y8748928D01*
X117774993Y8748931D01*
X117717172Y8771707D01*
X117706329Y8776354D01*
X117642572Y8805949D01*
X117634703Y8808131D01*
X117634698Y8808133D01*
X117610959Y8814716D01*
X117591218Y8821321D01*
X117560678Y8833351D01*
X117491930Y8848089D01*
X117480477Y8850902D01*
X117412728Y8869691D01*
X117380102Y8873178D01*
X117359538Y8876472D01*
X117335451Y8881636D01*
X117335445Y8881637D01*
X117327458Y8883349D01*
X117319295Y8883734D01*
X117319294Y8883734D01*
X117257244Y8886660D01*
X117245472Y8887566D01*
X117223289Y8889937D01*
X117223274Y8889938D01*
X117218014Y8890500D01*
X117180499Y8890500D01*
X117171125Y8890721D01*
X117089205Y8894584D01*
X117081093Y8893631D01*
X117081092Y8893631D01*
X117066008Y8891859D01*
X117042791Y8890500D01*
X115668813Y8890500D01*
X115582470Y8910207D01*
X115513229Y8965426D01*
X115478919Y9029992D01*
X115466715Y9068934D01*
X115466715Y9068935D01*
X115463127Y9080383D01*
X115456916Y9090639D01*
X115456914Y9090643D01*
X115381513Y9215144D01*
X115375297Y9225408D01*
X115330919Y9269786D01*
X115283800Y9344774D01*
X115273884Y9432781D01*
X115303135Y9516374D01*
X115365759Y9578998D01*
X115449352Y9608249D01*
X115471633Y9609500D01*
X124327865Y9609500D01*
X124414208Y9589793D01*
G37*
%TD.AperFunction*%
%TA.AperFunction,NonConductor*%
G36*
X43884208Y9589793D02*
G01*
X43953449Y9534574D01*
X43991876Y9454782D01*
X43991876Y9366218D01*
X43953449Y9286426D01*
X43888209Y9233190D01*
X43762314Y9169043D01*
X43757960Y9166215D01*
X43757954Y9166212D01*
X43535129Y9021508D01*
X43450204Y8966357D01*
X43446163Y8963084D01*
X43446158Y8963081D01*
X43247872Y8802512D01*
X43160991Y8732157D01*
X42897843Y8469009D01*
X42894565Y8464961D01*
X42682326Y8202867D01*
X42663643Y8179796D01*
X42460957Y7867686D01*
X42292005Y7536100D01*
X42158639Y7188671D01*
X42134231Y7097578D01*
X42065915Y6842619D01*
X42062320Y6829204D01*
X42004104Y6461638D01*
X42003831Y6456435D01*
X42003831Y6456432D01*
X41998024Y6345631D01*
X41973825Y6260438D01*
X41915058Y6194181D01*
X41833364Y6159984D01*
X41744922Y6164619D01*
X41667249Y6207169D01*
X41615731Y6279205D01*
X41609403Y6296537D01*
X41586715Y6368936D01*
X41586713Y6368941D01*
X41583127Y6380383D01*
X41576916Y6390639D01*
X41576914Y6390643D01*
X41501513Y6515144D01*
X41495297Y6525408D01*
X41375408Y6645297D01*
X41294222Y6694465D01*
X41240643Y6726914D01*
X41240639Y6726916D01*
X41230383Y6733127D01*
X41218940Y6736713D01*
X41218938Y6736714D01*
X41128843Y6764948D01*
X41068594Y6783829D01*
X41021124Y6788191D01*
X41000534Y6790083D01*
X41000528Y6790083D01*
X40995993Y6790500D01*
X40816516Y6790500D01*
X37653246Y6790499D01*
X37566903Y6810206D01*
X37512532Y6848785D01*
X35978626Y8382691D01*
X35968927Y8393868D01*
X35968723Y8393687D01*
X35963305Y8399790D01*
X35958398Y8406325D01*
X35883265Y8478124D01*
X35880038Y8481279D01*
X35852905Y8508412D01*
X35849791Y8511053D01*
X35849767Y8511075D01*
X35845554Y8514648D01*
X35836785Y8522543D01*
X35791866Y8565468D01*
X35791861Y8565472D01*
X35785958Y8571113D01*
X35758839Y8589612D01*
X35742296Y8602215D01*
X35717263Y8623444D01*
X35710253Y8627640D01*
X35710248Y8627643D01*
X35656952Y8659541D01*
X35647009Y8665900D01*
X35595670Y8700921D01*
X35595653Y8700930D01*
X35588918Y8705525D01*
X35559159Y8719339D01*
X35540767Y8729076D01*
X35512600Y8745934D01*
X35504999Y8748928D01*
X35504993Y8748931D01*
X35447172Y8771707D01*
X35436329Y8776354D01*
X35372572Y8805949D01*
X35364703Y8808131D01*
X35364698Y8808133D01*
X35340959Y8814716D01*
X35321218Y8821321D01*
X35290678Y8833351D01*
X35221930Y8848089D01*
X35210477Y8850902D01*
X35142728Y8869691D01*
X35134606Y8870559D01*
X35134601Y8870560D01*
X35123912Y8871702D01*
X35040152Y8900472D01*
X34977170Y8962735D01*
X34955163Y9010067D01*
X34936715Y9068934D01*
X34936715Y9068935D01*
X34933127Y9080383D01*
X34926916Y9090639D01*
X34926914Y9090643D01*
X34851513Y9215144D01*
X34845297Y9225408D01*
X34800919Y9269786D01*
X34753800Y9344774D01*
X34743884Y9432781D01*
X34773135Y9516374D01*
X34835759Y9578998D01*
X34919352Y9608249D01*
X34941633Y9609500D01*
X43797865Y9609500D01*
X43884208Y9589793D01*
G37*
%TD.AperFunction*%
%TA.AperFunction,NonConductor*%
G36*
X82553573Y5641120D02*
G01*
X82608792Y5571878D01*
X82626049Y5516665D01*
X82652320Y5350796D01*
X82653667Y5345767D01*
X82653669Y5345760D01*
X82681343Y5242481D01*
X82748639Y4991329D01*
X82882005Y4643900D01*
X83050957Y4312314D01*
X83053785Y4307960D01*
X83053788Y4307954D01*
X83221580Y4049577D01*
X83253643Y4000204D01*
X83256916Y3996163D01*
X83256919Y3996158D01*
X83476829Y3724592D01*
X83487843Y3710991D01*
X83750991Y3447843D01*
X84040204Y3213643D01*
X84044582Y3210800D01*
X84044586Y3210797D01*
X84347942Y3013795D01*
X84347950Y3013791D01*
X84352313Y3010957D01*
X84462936Y2954592D01*
X84576339Y2896810D01*
X84644324Y2840052D01*
X84680950Y2759417D01*
X84678963Y2670876D01*
X84638756Y2591966D01*
X84568293Y2538315D01*
X84485995Y2520500D01*
X82131633Y2520500D01*
X82045290Y2540207D01*
X81976049Y2595426D01*
X81937622Y2675218D01*
X81937622Y2763782D01*
X81976049Y2843574D01*
X81990919Y2860214D01*
X82085297Y2954592D01*
X82117296Y3007428D01*
X82166914Y3089357D01*
X82166916Y3089361D01*
X82173127Y3099617D01*
X82223829Y3261406D01*
X82228243Y3309441D01*
X82230083Y3329466D01*
X82230083Y3329472D01*
X82230500Y3334007D01*
X82230499Y5485536D01*
X82250206Y5571878D01*
X82305424Y5641119D01*
X82385217Y5679546D01*
X82473781Y5679546D01*
X82553573Y5641120D01*
G37*
%TD.AperFunction*%
%TA.AperFunction,NonConductor*%
G36*
X69925078Y6015381D02*
G01*
X70002751Y5972831D01*
X70054269Y5900795D01*
X70060597Y5883463D01*
X70083285Y5811064D01*
X70083286Y5811062D01*
X70086873Y5799617D01*
X70093084Y5789361D01*
X70093086Y5789357D01*
X70139200Y5713215D01*
X70174703Y5654592D01*
X70294592Y5534703D01*
X70304856Y5528487D01*
X70429357Y5453086D01*
X70429361Y5453084D01*
X70439617Y5446873D01*
X70451060Y5443287D01*
X70451062Y5443286D01*
X70518909Y5422024D01*
X70601406Y5396171D01*
X70648876Y5391809D01*
X70669466Y5389917D01*
X70669472Y5389917D01*
X70674007Y5389500D01*
X71340501Y5389500D01*
X71426844Y5369793D01*
X71496085Y5314574D01*
X71534512Y5234782D01*
X71539501Y5190501D01*
X71539501Y3114008D01*
X71546171Y3041406D01*
X71596873Y2879617D01*
X71603085Y2869360D01*
X71603088Y2869353D01*
X71631411Y2822586D01*
X71659282Y2738522D01*
X71647918Y2650691D01*
X71599572Y2576488D01*
X71523817Y2530611D01*
X71461193Y2520500D01*
X67774005Y2520500D01*
X67687662Y2540207D01*
X67618421Y2595426D01*
X67579994Y2675218D01*
X67579994Y2763782D01*
X67618421Y2843574D01*
X67683661Y2896810D01*
X67797064Y2954592D01*
X67907687Y3010957D01*
X67912050Y3013791D01*
X67912058Y3013795D01*
X68215414Y3210797D01*
X68215418Y3210800D01*
X68219796Y3213643D01*
X68509009Y3447843D01*
X68772157Y3710991D01*
X68783171Y3724592D01*
X69003081Y3996158D01*
X69003084Y3996163D01*
X69006357Y4000204D01*
X69038420Y4049577D01*
X69206212Y4307954D01*
X69206215Y4307960D01*
X69209043Y4312314D01*
X69377995Y4643900D01*
X69511361Y4991329D01*
X69578657Y5242481D01*
X69606331Y5345760D01*
X69606333Y5345767D01*
X69607680Y5350796D01*
X69665896Y5718362D01*
X69667160Y5742481D01*
X69671976Y5834369D01*
X69696175Y5919562D01*
X69754942Y5985819D01*
X69836636Y6020016D01*
X69925078Y6015381D01*
G37*
%TD.AperFunction*%
%TA.AperFunction,NonConductor*%
G36*
X62553573Y5641120D02*
G01*
X62608792Y5571878D01*
X62626049Y5516665D01*
X62652320Y5350796D01*
X62653667Y5345767D01*
X62653669Y5345760D01*
X62681343Y5242481D01*
X62748639Y4991329D01*
X62882005Y4643900D01*
X63050957Y4312314D01*
X63053785Y4307960D01*
X63053788Y4307954D01*
X63221580Y4049577D01*
X63253643Y4000204D01*
X63256916Y3996163D01*
X63256919Y3996158D01*
X63476829Y3724592D01*
X63487843Y3710991D01*
X63750991Y3447843D01*
X64040204Y3213643D01*
X64044582Y3210800D01*
X64044586Y3210797D01*
X64347942Y3013795D01*
X64347950Y3013791D01*
X64352313Y3010957D01*
X64462936Y2954592D01*
X64576339Y2896810D01*
X64644324Y2840052D01*
X64680950Y2759417D01*
X64678963Y2670876D01*
X64638756Y2591966D01*
X64568293Y2538315D01*
X64485995Y2520500D01*
X62131633Y2520500D01*
X62045290Y2540207D01*
X61976049Y2595426D01*
X61937622Y2675218D01*
X61937622Y2763782D01*
X61976049Y2843574D01*
X61990919Y2860214D01*
X62085297Y2954592D01*
X62117296Y3007428D01*
X62166914Y3089357D01*
X62166916Y3089361D01*
X62173127Y3099617D01*
X62223829Y3261406D01*
X62228243Y3309441D01*
X62230083Y3329466D01*
X62230083Y3329472D01*
X62230500Y3334007D01*
X62230499Y5485536D01*
X62250206Y5571878D01*
X62305424Y5641119D01*
X62385217Y5679546D01*
X62473781Y5679546D01*
X62553573Y5641120D01*
G37*
%TD.AperFunction*%
%TA.AperFunction,NonConductor*%
G36*
X49335078Y6015381D02*
G01*
X49412751Y5972831D01*
X49464269Y5900795D01*
X49470597Y5883463D01*
X49493285Y5811064D01*
X49493286Y5811062D01*
X49496873Y5799617D01*
X49503084Y5789361D01*
X49503086Y5789357D01*
X49549200Y5713215D01*
X49584703Y5654592D01*
X49704592Y5534703D01*
X49714856Y5528487D01*
X49839357Y5453086D01*
X49839361Y5453084D01*
X49849617Y5446873D01*
X49861060Y5443287D01*
X49861062Y5443286D01*
X49928909Y5422024D01*
X50011406Y5396171D01*
X50058876Y5391809D01*
X50079466Y5389917D01*
X50079472Y5389917D01*
X50084007Y5389500D01*
X51889603Y5389500D01*
X53695992Y5389501D01*
X53768594Y5396171D01*
X53869633Y5427835D01*
X53918938Y5443286D01*
X53918940Y5443287D01*
X53930383Y5446873D01*
X53940639Y5453084D01*
X53940643Y5453086D01*
X54065144Y5528487D01*
X54075408Y5534703D01*
X54195297Y5654592D01*
X54230800Y5713215D01*
X54276914Y5789357D01*
X54276916Y5789361D01*
X54283127Y5799617D01*
X54298919Y5850008D01*
X54343544Y5926507D01*
X54416942Y5976068D01*
X54488813Y5989500D01*
X55276755Y5989500D01*
X55363098Y5969793D01*
X55417469Y5931214D01*
X57271215Y4077469D01*
X57318334Y4002481D01*
X57329501Y3936755D01*
X57329501Y3334008D01*
X57336171Y3261406D01*
X57386873Y3099617D01*
X57393084Y3089361D01*
X57393086Y3089357D01*
X57442704Y3007428D01*
X57474703Y2954592D01*
X57569081Y2860214D01*
X57616200Y2785226D01*
X57626116Y2697219D01*
X57596865Y2613626D01*
X57534241Y2551002D01*
X57450648Y2521751D01*
X57428367Y2520500D01*
X47184005Y2520500D01*
X47097662Y2540207D01*
X47028421Y2595426D01*
X46989994Y2675218D01*
X46989994Y2763782D01*
X47028421Y2843574D01*
X47093661Y2896810D01*
X47207064Y2954592D01*
X47317687Y3010957D01*
X47322050Y3013791D01*
X47322058Y3013795D01*
X47625414Y3210797D01*
X47625418Y3210800D01*
X47629796Y3213643D01*
X47919009Y3447843D01*
X48182157Y3710991D01*
X48193171Y3724592D01*
X48413081Y3996158D01*
X48413084Y3996163D01*
X48416357Y4000204D01*
X48448420Y4049577D01*
X48616212Y4307954D01*
X48616215Y4307960D01*
X48619043Y4312314D01*
X48787995Y4643900D01*
X48921361Y4991329D01*
X48988657Y5242481D01*
X49016331Y5345760D01*
X49016333Y5345767D01*
X49017680Y5350796D01*
X49075896Y5718362D01*
X49077160Y5742481D01*
X49081976Y5834369D01*
X49106175Y5919562D01*
X49164942Y5985819D01*
X49246636Y6020016D01*
X49335078Y6015381D01*
G37*
%TD.AperFunction*%
%TA.AperFunction,NonConductor*%
G36*
X41963573Y5641120D02*
G01*
X42018792Y5571878D01*
X42036049Y5516665D01*
X42062320Y5350796D01*
X42063667Y5345767D01*
X42063669Y5345760D01*
X42091343Y5242481D01*
X42158639Y4991329D01*
X42292005Y4643900D01*
X42460957Y4312314D01*
X42463785Y4307960D01*
X42463788Y4307954D01*
X42631580Y4049577D01*
X42663643Y4000204D01*
X42666916Y3996163D01*
X42666919Y3996158D01*
X42886829Y3724592D01*
X42897843Y3710991D01*
X43160991Y3447843D01*
X43450204Y3213643D01*
X43454582Y3210800D01*
X43454586Y3210797D01*
X43757942Y3013795D01*
X43757950Y3013791D01*
X43762313Y3010957D01*
X43872936Y2954592D01*
X43986339Y2896810D01*
X44054324Y2840052D01*
X44090950Y2759417D01*
X44088963Y2670876D01*
X44048756Y2591966D01*
X43978293Y2538315D01*
X43895995Y2520500D01*
X41541633Y2520500D01*
X41455290Y2540207D01*
X41386049Y2595426D01*
X41347622Y2675218D01*
X41347622Y2763782D01*
X41386049Y2843574D01*
X41400919Y2860214D01*
X41495297Y2954592D01*
X41527296Y3007428D01*
X41576914Y3089357D01*
X41576916Y3089361D01*
X41583127Y3099617D01*
X41633829Y3261406D01*
X41638243Y3309441D01*
X41640083Y3329466D01*
X41640083Y3329472D01*
X41640500Y3334007D01*
X41640499Y5485536D01*
X41660206Y5571878D01*
X41715424Y5641119D01*
X41795217Y5679546D01*
X41883781Y5679546D01*
X41963573Y5641120D01*
G37*
%TD.AperFunction*%
%TA.AperFunction,NonConductor*%
G36*
X29985078Y6015381D02*
G01*
X30062751Y5972831D01*
X30114269Y5900795D01*
X30120597Y5883463D01*
X30143285Y5811064D01*
X30143286Y5811062D01*
X30146873Y5799617D01*
X30153084Y5789361D01*
X30153086Y5789357D01*
X30199200Y5713215D01*
X30234703Y5654592D01*
X30354592Y5534703D01*
X30364856Y5528487D01*
X30489357Y5453086D01*
X30489361Y5453084D01*
X30499617Y5446873D01*
X30511060Y5443287D01*
X30511062Y5443286D01*
X30578909Y5422024D01*
X30661406Y5396171D01*
X30708876Y5391809D01*
X30729466Y5389917D01*
X30729472Y5389917D01*
X30734007Y5389500D01*
X32539603Y5389500D01*
X34345992Y5389501D01*
X34418594Y5396171D01*
X34519633Y5427835D01*
X34568938Y5443286D01*
X34568940Y5443287D01*
X34580383Y5446873D01*
X34591057Y5453337D01*
X34591584Y5453512D01*
X34601574Y5458023D01*
X34602045Y5456980D01*
X34675120Y5481206D01*
X34762951Y5469841D01*
X34834853Y5423831D01*
X36461371Y3797313D01*
X36471074Y3786132D01*
X36471277Y3786313D01*
X36476695Y3780210D01*
X36481602Y3773675D01*
X36487510Y3768029D01*
X36487511Y3768028D01*
X36556756Y3701856D01*
X36559984Y3698700D01*
X36587096Y3671588D01*
X36594460Y3665343D01*
X36603203Y3657470D01*
X36654042Y3608887D01*
X36660794Y3604281D01*
X36665735Y3600280D01*
X36720434Y3530628D01*
X36739501Y3445627D01*
X36739501Y3334008D01*
X36746171Y3261406D01*
X36796873Y3099617D01*
X36803084Y3089361D01*
X36803086Y3089357D01*
X36852704Y3007428D01*
X36884703Y2954592D01*
X36979081Y2860214D01*
X37026200Y2785226D01*
X37036116Y2697219D01*
X37006865Y2613626D01*
X36944241Y2551002D01*
X36860648Y2521751D01*
X36838367Y2520500D01*
X27834005Y2520500D01*
X27747662Y2540207D01*
X27678421Y2595426D01*
X27639994Y2675218D01*
X27639994Y2763782D01*
X27678421Y2843574D01*
X27743661Y2896810D01*
X27857064Y2954592D01*
X27967687Y3010957D01*
X27972050Y3013791D01*
X27972058Y3013795D01*
X28275414Y3210797D01*
X28275418Y3210800D01*
X28279796Y3213643D01*
X28569009Y3447843D01*
X28832157Y3710991D01*
X28843171Y3724592D01*
X29063081Y3996158D01*
X29063084Y3996163D01*
X29066357Y4000204D01*
X29098420Y4049577D01*
X29266212Y4307954D01*
X29266215Y4307960D01*
X29269043Y4312314D01*
X29437995Y4643900D01*
X29571361Y4991329D01*
X29638657Y5242481D01*
X29666331Y5345760D01*
X29666333Y5345767D01*
X29667680Y5350796D01*
X29725896Y5718362D01*
X29727160Y5742481D01*
X29731976Y5834369D01*
X29756175Y5919562D01*
X29814942Y5985819D01*
X29896636Y6020016D01*
X29985078Y6015381D01*
G37*
%TD.AperFunction*%
%TA.AperFunction,NonConductor*%
G36*
X22613573Y5641120D02*
G01*
X22668792Y5571878D01*
X22686049Y5516665D01*
X22712320Y5350796D01*
X22713667Y5345767D01*
X22713669Y5345760D01*
X22741343Y5242481D01*
X22808639Y4991329D01*
X22942005Y4643900D01*
X23110957Y4312314D01*
X23113785Y4307960D01*
X23113788Y4307954D01*
X23281580Y4049577D01*
X23313643Y4000204D01*
X23316916Y3996163D01*
X23316919Y3996158D01*
X23536829Y3724592D01*
X23547843Y3710991D01*
X23810991Y3447843D01*
X24100204Y3213643D01*
X24104582Y3210800D01*
X24104586Y3210797D01*
X24407942Y3013795D01*
X24407950Y3013791D01*
X24412313Y3010957D01*
X24522936Y2954592D01*
X24636339Y2896810D01*
X24704324Y2840052D01*
X24740950Y2759417D01*
X24738963Y2670876D01*
X24698756Y2591966D01*
X24628293Y2538315D01*
X24545995Y2520500D01*
X22191633Y2520500D01*
X22105290Y2540207D01*
X22036049Y2595426D01*
X21997622Y2675218D01*
X21997622Y2763782D01*
X22036049Y2843574D01*
X22050919Y2860214D01*
X22145297Y2954592D01*
X22177296Y3007428D01*
X22226914Y3089357D01*
X22226916Y3089361D01*
X22233127Y3099617D01*
X22283829Y3261406D01*
X22288243Y3309441D01*
X22290083Y3329466D01*
X22290083Y3329472D01*
X22290500Y3334007D01*
X22290499Y5485536D01*
X22310206Y5571878D01*
X22365424Y5641119D01*
X22445217Y5679546D01*
X22533781Y5679546D01*
X22613573Y5641120D01*
G37*
%TD.AperFunction*%
%TA.AperFunction,NonConductor*%
G36*
X129865078Y6015381D02*
G01*
X129942751Y5972831D01*
X129994269Y5900795D01*
X130000597Y5883463D01*
X130023285Y5811064D01*
X130023286Y5811062D01*
X130026873Y5799617D01*
X130033084Y5789361D01*
X130033086Y5789357D01*
X130079200Y5713215D01*
X130114703Y5654592D01*
X130234592Y5534703D01*
X130244856Y5528487D01*
X130369357Y5453086D01*
X130369361Y5453084D01*
X130379617Y5446873D01*
X130391060Y5443287D01*
X130391062Y5443286D01*
X130458909Y5422024D01*
X130541406Y5396171D01*
X130588876Y5391809D01*
X130609466Y5389917D01*
X130609472Y5389917D01*
X130614007Y5389500D01*
X130770500Y5389500D01*
X130856843Y5369793D01*
X130926084Y5314574D01*
X130964511Y5234782D01*
X130969500Y5190500D01*
X130969500Y4193245D01*
X130949793Y4106902D01*
X130911214Y4052531D01*
X129437469Y2578786D01*
X129362481Y2531667D01*
X129296755Y2520500D01*
X127714005Y2520500D01*
X127627662Y2540207D01*
X127558421Y2595426D01*
X127519994Y2675218D01*
X127519994Y2763782D01*
X127558421Y2843574D01*
X127623661Y2896810D01*
X127737064Y2954592D01*
X127847687Y3010957D01*
X127852050Y3013791D01*
X127852058Y3013795D01*
X128155414Y3210797D01*
X128155418Y3210800D01*
X128159796Y3213643D01*
X128449009Y3447843D01*
X128712157Y3710991D01*
X128723171Y3724592D01*
X128943081Y3996158D01*
X128943084Y3996163D01*
X128946357Y4000204D01*
X128978420Y4049577D01*
X129146212Y4307954D01*
X129146215Y4307960D01*
X129149043Y4312314D01*
X129317995Y4643900D01*
X129451361Y4991329D01*
X129518657Y5242481D01*
X129546331Y5345760D01*
X129546333Y5345767D01*
X129547680Y5350796D01*
X129605896Y5718362D01*
X129607160Y5742481D01*
X129611976Y5834369D01*
X129636175Y5919562D01*
X129694942Y5985819D01*
X129776636Y6020016D01*
X129865078Y6015381D01*
G37*
%TD.AperFunction*%
%TA.AperFunction,NonConductor*%
G36*
X122493573Y5641120D02*
G01*
X122548792Y5571878D01*
X122566049Y5516665D01*
X122592320Y5350796D01*
X122593667Y5345767D01*
X122593669Y5345760D01*
X122621343Y5242481D01*
X122688639Y4991329D01*
X122822005Y4643900D01*
X122990957Y4312314D01*
X122993785Y4307960D01*
X122993788Y4307954D01*
X123161580Y4049577D01*
X123193643Y4000204D01*
X123196916Y3996163D01*
X123196919Y3996158D01*
X123416829Y3724592D01*
X123427843Y3710991D01*
X123690991Y3447843D01*
X123980204Y3213643D01*
X123984582Y3210800D01*
X123984586Y3210797D01*
X124287942Y3013795D01*
X124287950Y3013791D01*
X124292313Y3010957D01*
X124402936Y2954592D01*
X124516339Y2896810D01*
X124584324Y2840052D01*
X124620950Y2759417D01*
X124618963Y2670876D01*
X124578756Y2591966D01*
X124508293Y2538315D01*
X124425995Y2520500D01*
X122071633Y2520500D01*
X121985290Y2540207D01*
X121916049Y2595426D01*
X121877622Y2675218D01*
X121877622Y2763782D01*
X121916049Y2843574D01*
X121930919Y2860214D01*
X122025297Y2954592D01*
X122057296Y3007428D01*
X122106914Y3089357D01*
X122106916Y3089361D01*
X122113127Y3099617D01*
X122163829Y3261406D01*
X122168243Y3309441D01*
X122170083Y3329466D01*
X122170083Y3329472D01*
X122170500Y3334007D01*
X122170499Y5485536D01*
X122190206Y5571878D01*
X122245424Y5641119D01*
X122325217Y5679546D01*
X122413781Y5679546D01*
X122493573Y5641120D01*
G37*
%TD.AperFunction*%
%TA.AperFunction,NonConductor*%
G36*
X110515078Y6015381D02*
G01*
X110592751Y5972831D01*
X110644269Y5900795D01*
X110650597Y5883463D01*
X110673285Y5811064D01*
X110673286Y5811062D01*
X110676873Y5799617D01*
X110683084Y5789361D01*
X110683086Y5789357D01*
X110729200Y5713215D01*
X110764703Y5654592D01*
X110884592Y5534703D01*
X110894856Y5528487D01*
X111019357Y5453086D01*
X111019361Y5453084D01*
X111029617Y5446873D01*
X111041060Y5443287D01*
X111041062Y5443286D01*
X111108909Y5422024D01*
X111191406Y5396171D01*
X111238876Y5391809D01*
X111259466Y5389917D01*
X111259472Y5389917D01*
X111264007Y5389500D01*
X113069603Y5389500D01*
X114875992Y5389501D01*
X114948594Y5396171D01*
X115049633Y5427835D01*
X115098938Y5443286D01*
X115098940Y5443287D01*
X115110383Y5446873D01*
X115120639Y5453084D01*
X115120643Y5453086D01*
X115245144Y5528487D01*
X115255408Y5534703D01*
X115375297Y5654592D01*
X115410800Y5713215D01*
X115456914Y5789357D01*
X115456916Y5789361D01*
X115463127Y5799617D01*
X115478919Y5850008D01*
X115523544Y5926507D01*
X115596942Y5976068D01*
X115668813Y5989500D01*
X116456755Y5989500D01*
X116543098Y5969793D01*
X116597469Y5931214D01*
X117211214Y5317469D01*
X117258333Y5242481D01*
X117269500Y5176755D01*
X117269501Y3334008D01*
X117276171Y3261406D01*
X117326873Y3099617D01*
X117333084Y3089361D01*
X117333086Y3089357D01*
X117382704Y3007428D01*
X117414703Y2954592D01*
X117509081Y2860214D01*
X117556200Y2785226D01*
X117566116Y2697219D01*
X117536865Y2613626D01*
X117474241Y2551002D01*
X117390648Y2521751D01*
X117368367Y2520500D01*
X108364005Y2520500D01*
X108277662Y2540207D01*
X108208421Y2595426D01*
X108169994Y2675218D01*
X108169994Y2763782D01*
X108208421Y2843574D01*
X108273661Y2896810D01*
X108387064Y2954592D01*
X108497687Y3010957D01*
X108502050Y3013791D01*
X108502058Y3013795D01*
X108805414Y3210797D01*
X108805418Y3210800D01*
X108809796Y3213643D01*
X109099009Y3447843D01*
X109362157Y3710991D01*
X109373171Y3724592D01*
X109593081Y3996158D01*
X109593084Y3996163D01*
X109596357Y4000204D01*
X109628420Y4049577D01*
X109796212Y4307954D01*
X109796215Y4307960D01*
X109799043Y4312314D01*
X109967995Y4643900D01*
X110101361Y4991329D01*
X110168657Y5242481D01*
X110196331Y5345760D01*
X110196333Y5345767D01*
X110197680Y5350796D01*
X110255896Y5718362D01*
X110257160Y5742481D01*
X110261976Y5834369D01*
X110286175Y5919562D01*
X110344942Y5985819D01*
X110426636Y6020016D01*
X110515078Y6015381D01*
G37*
%TD.AperFunction*%
%TA.AperFunction,NonConductor*%
G36*
X103143573Y5641120D02*
G01*
X103198792Y5571878D01*
X103216049Y5516665D01*
X103242320Y5350796D01*
X103243667Y5345767D01*
X103243669Y5345760D01*
X103271343Y5242481D01*
X103338639Y4991329D01*
X103472005Y4643900D01*
X103640957Y4312314D01*
X103643785Y4307960D01*
X103643788Y4307954D01*
X103811580Y4049577D01*
X103843643Y4000204D01*
X103846916Y3996163D01*
X103846919Y3996158D01*
X104066829Y3724592D01*
X104077843Y3710991D01*
X104340991Y3447843D01*
X104630204Y3213643D01*
X104634582Y3210800D01*
X104634586Y3210797D01*
X104937942Y3013795D01*
X104937950Y3013791D01*
X104942313Y3010957D01*
X105052936Y2954592D01*
X105166339Y2896810D01*
X105234324Y2840052D01*
X105270950Y2759417D01*
X105268963Y2670876D01*
X105228756Y2591966D01*
X105158293Y2538315D01*
X105075995Y2520500D01*
X102721633Y2520500D01*
X102635290Y2540207D01*
X102566049Y2595426D01*
X102527622Y2675218D01*
X102527622Y2763782D01*
X102566049Y2843574D01*
X102580919Y2860214D01*
X102675297Y2954592D01*
X102707296Y3007428D01*
X102756914Y3089357D01*
X102756916Y3089361D01*
X102763127Y3099617D01*
X102813829Y3261406D01*
X102818243Y3309441D01*
X102820083Y3329466D01*
X102820083Y3329472D01*
X102820500Y3334007D01*
X102820499Y5485536D01*
X102840206Y5571878D01*
X102895424Y5641119D01*
X102975217Y5679546D01*
X103063781Y5679546D01*
X103143573Y5641120D01*
G37*
%TD.AperFunction*%
%TA.AperFunction,NonConductor*%
G36*
X89925078Y6015381D02*
G01*
X90002751Y5972831D01*
X90054269Y5900795D01*
X90060597Y5883463D01*
X90083285Y5811064D01*
X90083286Y5811062D01*
X90086873Y5799617D01*
X90093084Y5789361D01*
X90093086Y5789357D01*
X90139200Y5713215D01*
X90174703Y5654592D01*
X90294592Y5534703D01*
X90304856Y5528487D01*
X90429357Y5453086D01*
X90429361Y5453084D01*
X90439617Y5446873D01*
X90451060Y5443287D01*
X90451062Y5443286D01*
X90518909Y5422024D01*
X90601406Y5396171D01*
X90648876Y5391809D01*
X90669466Y5389917D01*
X90669472Y5389917D01*
X90674007Y5389500D01*
X92479603Y5389500D01*
X94285992Y5389501D01*
X94358594Y5396171D01*
X94459633Y5427835D01*
X94508938Y5443286D01*
X94508940Y5443287D01*
X94520383Y5446873D01*
X94530639Y5453084D01*
X94530643Y5453086D01*
X94655144Y5528487D01*
X94665408Y5534703D01*
X94785297Y5654592D01*
X94820800Y5713215D01*
X94866914Y5789357D01*
X94866916Y5789361D01*
X94873127Y5799617D01*
X94888919Y5850008D01*
X94933544Y5926507D01*
X95006942Y5976068D01*
X95078813Y5989500D01*
X97606755Y5989500D01*
X97693098Y5969793D01*
X97747469Y5931214D01*
X97861214Y5817469D01*
X97908333Y5742481D01*
X97919500Y5676755D01*
X97919501Y3334008D01*
X97926171Y3261406D01*
X97976873Y3099617D01*
X97983084Y3089361D01*
X97983086Y3089357D01*
X98032704Y3007428D01*
X98064703Y2954592D01*
X98159081Y2860214D01*
X98206200Y2785226D01*
X98216116Y2697219D01*
X98186865Y2613626D01*
X98124241Y2551002D01*
X98040648Y2521751D01*
X98018367Y2520500D01*
X87774005Y2520500D01*
X87687662Y2540207D01*
X87618421Y2595426D01*
X87579994Y2675218D01*
X87579994Y2763782D01*
X87618421Y2843574D01*
X87683661Y2896810D01*
X87797064Y2954592D01*
X87907687Y3010957D01*
X87912050Y3013791D01*
X87912058Y3013795D01*
X88215414Y3210797D01*
X88215418Y3210800D01*
X88219796Y3213643D01*
X88509009Y3447843D01*
X88772157Y3710991D01*
X88783171Y3724592D01*
X89003081Y3996158D01*
X89003084Y3996163D01*
X89006357Y4000204D01*
X89038420Y4049577D01*
X89206212Y4307954D01*
X89206215Y4307960D01*
X89209043Y4312314D01*
X89377995Y4643900D01*
X89511361Y4991329D01*
X89578657Y5242481D01*
X89606331Y5345760D01*
X89606333Y5345767D01*
X89607680Y5350796D01*
X89665896Y5718362D01*
X89667160Y5742481D01*
X89671976Y5834369D01*
X89696175Y5919562D01*
X89754942Y5985819D01*
X89836636Y6020016D01*
X89925078Y6015381D01*
G37*
%TD.AperFunction*%
M02*
