%TF.GenerationSoftware,KiCad,Pcbnew,(6.0.2)*%
%TF.CreationDate,2024-01-03T17:43:02+03:00*%
%TF.ProjectId,RaspShiled_ver3,52617370-5368-4696-9c65-645f76657233,rev?*%
%TF.SameCoordinates,PX6c62950PY7c28ab0*%
%TF.FileFunction,Copper,L1,Top*%
%TF.FilePolarity,Positive*%
%FSLAX46Y46*%
G04 Gerber Fmt 4.6, Leading zero omitted, Abs format (unit mm)*
G04 Created by KiCad (PCBNEW (6.0.2)) date 2024-01-03 17:43:02*
%MOMM*%
%LPD*%
G01*
G04 APERTURE LIST*
G04 Aperture macros list*
%AMRoundRect*
0 Rectangle with rounded corners*
0 $1 Rounding radius*
0 $2 $3 $4 $5 $6 $7 $8 $9 X,Y pos of 4 corners*
0 Add a 4 corners polygon primitive as box body*
4,1,4,$2,$3,$4,$5,$6,$7,$8,$9,$2,$3,0*
0 Add four circle primitives for the rounded corners*
1,1,$1+$1,$2,$3*
1,1,$1+$1,$4,$5*
1,1,$1+$1,$6,$7*
1,1,$1+$1,$8,$9*
0 Add four rect primitives between the rounded corners*
20,1,$1+$1,$2,$3,$4,$5,0*
20,1,$1+$1,$4,$5,$6,$7,0*
20,1,$1+$1,$6,$7,$8,$9,0*
20,1,$1+$1,$8,$9,$2,$3,0*%
G04 Aperture macros list end*
%TA.AperFunction,ComponentPad*%
%ADD10C,2.300000*%
%TD*%
%TA.AperFunction,ComponentPad*%
%ADD11C,1.600000*%
%TD*%
%TA.AperFunction,ComponentPad*%
%ADD12C,2.200000*%
%TD*%
%TA.AperFunction,SMDPad,CuDef*%
%ADD13RoundRect,0.150000X0.825000X0.150000X-0.825000X0.150000X-0.825000X-0.150000X0.825000X-0.150000X0*%
%TD*%
%TA.AperFunction,ComponentPad*%
%ADD14C,2.000000*%
%TD*%
%TA.AperFunction,ComponentPad*%
%ADD15C,2.800000*%
%TD*%
%TA.AperFunction,ComponentPad*%
%ADD16C,2.400000*%
%TD*%
%TA.AperFunction,Conductor*%
%ADD17C,0.850000*%
%TD*%
G04 APERTURE END LIST*
D10*
%TO.P,C1,1*%
%TO.N,5V*%
X62602380Y57050000D03*
D11*
%TO.P,C1,2*%
%TO.N,GND*%
X60102380Y57050000D03*
%TD*%
D12*
%TO.P,J5,1,Pin_1*%
%TO.N,/Blue*%
X21360000Y4295000D03*
%TO.P,J5,2,Pin_2*%
%TO.N,/Purple*%
X21360000Y6835000D03*
%TO.P,J5,3,Pin_3*%
%TO.N,/Yellow*%
X21360000Y9375000D03*
%TO.P,J5,4,Pin_4*%
%TO.N,/Orange*%
X21360000Y11915000D03*
%TO.P,J5,5*%
%TO.N,N/C*%
X21360000Y14455000D03*
%TD*%
D13*
%TO.P,U1,16,VCC*%
%TO.N,3V3*%
X51085000Y42455000D03*
%TO.P,U1,15,Y0*%
%TO.N,Epi_Blue_EN*%
X51085000Y43725000D03*
%TO.P,U1,14,Y1*%
%TO.N,Epi_Red_EN*%
X51085000Y44995000D03*
%TO.P,U1,13,Y2*%
%TO.N,Epi_Green_EN*%
X51085000Y46265000D03*
%TO.P,U1,12,Y3*%
%TO.N,Trans_Blue_EN*%
X51085000Y47535000D03*
%TO.P,U1,11,Y4*%
%TO.N,Trans_Red_EN*%
X51085000Y48805000D03*
%TO.P,U1,10,Y5*%
%TO.N,Trans_Green_EN*%
X51085000Y50075000D03*
%TO.P,U1,9,Y6*%
%TO.N,Trans_UV_EN*%
X51085000Y51345000D03*
%TO.P,U1,8,GND*%
%TO.N,GND*%
X56035000Y51345000D03*
%TO.P,U1,7,Y7*%
%TO.N,unconnected-(U1-Pad7)*%
X56035000Y50075000D03*
%TO.P,U1,6,E3*%
%TO.N,Enable*%
X56035000Y48805000D03*
%TO.P,U1,5,~{E2}*%
%TO.N,GND*%
X56035000Y47535000D03*
%TO.P,U1,4,~{E1}*%
X56035000Y46265000D03*
%TO.P,U1,3,A2*%
%TO.N,A2*%
X56035000Y44995000D03*
%TO.P,U1,2,A1*%
%TO.N,A1*%
X56035000Y43725000D03*
%TO.P,U1,1,A0*%
%TO.N,A0*%
X56035000Y42455000D03*
%TD*%
D12*
%TO.P,U2,16,O1*%
%TO.N,Net-(J6-Pad5)*%
X32670000Y54025000D03*
%TO.P,U2,15,O2*%
%TO.N,Net-(J6-Pad4)*%
X32670000Y51485000D03*
%TO.P,U2,14,O3*%
%TO.N,Net-(J6-Pad3)*%
X32670000Y48945000D03*
%TO.P,U2,13,O4*%
%TO.N,Net-(J6-Pad2)*%
X32670000Y46405000D03*
%TO.P,U2,12,O5*%
%TO.N,Net-(J2-Pad3)*%
X32670000Y43865000D03*
%TO.P,U2,11,O6*%
%TO.N,Net-(J2-Pad2)*%
X32670000Y41325000D03*
%TO.P,U2,10,O7*%
%TO.N,Net-(J2-Pad1)*%
X32670000Y38785000D03*
%TO.P,U2,9,COM*%
%TO.N,unconnected-(U2-Pad9)*%
X32670000Y36245000D03*
%TO.P,U2,8,GND*%
%TO.N,GND*%
X40290000Y36245000D03*
%TO.P,U2,7,I7*%
%TO.N,Epi_Blue_EN*%
X40290000Y38785000D03*
%TO.P,U2,6,I6*%
%TO.N,Epi_Red_EN*%
X40290000Y41325000D03*
%TO.P,U2,5,I5*%
%TO.N,Epi_Green_EN*%
X40290000Y43865000D03*
%TO.P,U2,4,I4*%
%TO.N,Trans_Blue_EN*%
X40290000Y46405000D03*
%TO.P,U2,3,I3*%
%TO.N,Trans_Red_EN*%
X40290000Y48945000D03*
%TO.P,U2,2,I2*%
%TO.N,Trans_Green_EN*%
X40290000Y51485000D03*
%TO.P,U2,1,I1*%
%TO.N,Trans_UV_EN*%
X40290000Y54025000D03*
%TD*%
D10*
%TO.P,C2,1*%
%TO.N,12V*%
X20132379Y24010000D03*
D14*
%TO.P,C2,2*%
%TO.N,GND*%
X17632379Y24010000D03*
%TD*%
D12*
%TO.P,J3,8,Pin_8*%
%TO.N,MotorEN*%
X50150000Y23880000D03*
%TO.P,J3,7,Pin_7*%
%TO.N,unconnected-(J3-Pad7)*%
X50150000Y21340000D03*
%TO.P,J3,6,Pin_6*%
%TO.N,3V3*%
X50150000Y18800000D03*
%TO.P,J3,5,Pin_5*%
%TO.N,unconnected-(J3-Pad5)*%
X50150000Y16260000D03*
%TO.P,J3,4,Pin_4*%
%TO.N,3V3*%
X50150000Y13720000D03*
%TO.P,J3,3,Pin_3*%
X50150000Y11180000D03*
%TO.P,J3,2,Pin_2*%
%TO.N,MotorSTEP*%
X50150000Y8640000D03*
%TO.P,J3,1,Pin_1*%
%TO.N,MotorDIR*%
X50150000Y6100000D03*
%TD*%
D15*
%TO.P,J8,1,Pin_1*%
%TO.N,12V*%
X9460000Y33060000D03*
%TO.P,J8,2,Pin_2*%
%TO.N,GND*%
X9460000Y38060000D03*
%TD*%
D12*
%TO.P,BZ1,1,-*%
%TO.N,Buzzer*%
X79840000Y28360000D03*
%TO.P,BZ1,2,+*%
%TO.N,GND*%
X79840000Y35960000D03*
%TD*%
%TO.P,J2,1,Pin_1*%
%TO.N,Net-(J2-Pad1)*%
X28020000Y29470000D03*
%TO.P,J2,2,Pin_2*%
%TO.N,Net-(J2-Pad2)*%
X25480000Y29470000D03*
%TO.P,J2,3,Pin_3*%
%TO.N,Net-(J2-Pad3)*%
X22940000Y29470000D03*
%TO.P,J2,4,Pin_4*%
%TO.N,12V*%
X20400000Y29470000D03*
%TD*%
%TO.P,J6,1,Pin_1*%
%TO.N,12V*%
X15650000Y43940000D03*
%TO.P,J6,2,Pin_2*%
%TO.N,Net-(J6-Pad2)*%
X15650000Y46480000D03*
%TO.P,J6,3,Pin_3*%
%TO.N,Net-(J6-Pad3)*%
X15650000Y49020000D03*
%TO.P,J6,4,Pin_4*%
%TO.N,Net-(J6-Pad4)*%
X15650000Y51560000D03*
%TO.P,J6,5,Pin_5*%
%TO.N,Net-(J6-Pad5)*%
X15650000Y54100000D03*
%TD*%
%TO.P,J4,1,Pin_1*%
%TO.N,GND*%
X34890000Y6110000D03*
%TO.P,J4,2,Pin_2*%
%TO.N,unconnected-(J4-Pad2)*%
X34890000Y8650000D03*
%TO.P,J4,3,Pin_3*%
%TO.N,/Blue*%
X34890000Y11190000D03*
%TO.P,J4,4,Pin_4*%
%TO.N,/Yellow*%
X34890000Y13730000D03*
%TO.P,J4,5,Pin_5*%
%TO.N,/Orange*%
X34890000Y16270000D03*
%TO.P,J4,6,Pin_6*%
%TO.N,/Purple*%
X34890000Y18810000D03*
%TO.P,J4,7,Pin_7*%
%TO.N,GND*%
X34890000Y21350000D03*
%TO.P,J4,8,Pin_8*%
%TO.N,12V*%
X34890000Y23890000D03*
%TD*%
D15*
%TO.P,J7,1,Pin_1*%
%TO.N,GND*%
X79940000Y46980000D03*
D16*
%TO.P,J7,2,Pin_2*%
%TO.N,5V*%
X79940000Y51980000D03*
%TD*%
D12*
%TO.P,J1,1,Pin_1*%
%TO.N,3V3*%
X68280000Y53610000D03*
%TO.P,J1,2,Pin_2*%
%TO.N,5V*%
X70820000Y53610000D03*
%TO.P,J1,3,Pin_3*%
%TO.N,/GPIO[2]{slash}SDA1*%
X68280000Y51070000D03*
%TO.P,J1,4,Pin_4*%
%TO.N,5V*%
X70820000Y51070000D03*
%TO.P,J1,5,Pin_5*%
%TO.N,/GPIO[3]{slash}SCL1*%
X68280000Y48530000D03*
%TO.P,J1,6,Pin_6*%
%TO.N,GND*%
X70820000Y48530000D03*
%TO.P,J1,7,Pin_7*%
%TO.N,Enable*%
X68280000Y45990000D03*
%TO.P,J1,8,Pin_8*%
%TO.N,/GPIO[14]{slash}TXD0*%
X70820000Y45990000D03*
%TO.P,J1,9,Pin_9*%
%TO.N,GND*%
X68280000Y43450000D03*
%TO.P,J1,10,Pin_10*%
%TO.N,/GPIO[15]{slash}RXD0*%
X70820000Y43450000D03*
%TO.P,J1,11,Pin_11*%
%TO.N,A2*%
X68280000Y40910000D03*
%TO.P,J1,12,Pin_12*%
%TO.N,/GPIO[18]{slash}PCM.CLK*%
X70820000Y40910000D03*
%TO.P,J1,13,Pin_13*%
%TO.N,A1*%
X68280000Y38370000D03*
%TO.P,J1,14,Pin_14*%
%TO.N,GND*%
X70820000Y38370000D03*
%TO.P,J1,15,Pin_15*%
%TO.N,A0*%
X68280000Y35830000D03*
%TO.P,J1,16,Pin_16*%
%TO.N,/GPIO[23]*%
X70820000Y35830000D03*
%TO.P,J1,17,Pin_17*%
%TO.N,3V3*%
X68280000Y33290000D03*
%TO.P,J1,18,Pin_18*%
%TO.N,unconnected-(J1-Pad18)*%
X70820000Y33290000D03*
%TO.P,J1,19,Pin_19*%
%TO.N,/GPIO[10]{slash}SPI0.MOSI*%
X68280000Y30750000D03*
%TO.P,J1,20,Pin_20*%
%TO.N,GND*%
X70820000Y30750000D03*
%TO.P,J1,21,Pin_21*%
%TO.N,/GPIO[9]{slash}SPI0.MISO*%
X68280000Y28210000D03*
%TO.P,J1,22,Pin_22*%
%TO.N,Buzzer*%
X70820000Y28210000D03*
%TO.P,J1,23,Pin_23*%
%TO.N,/GPIO[11]{slash}SPI0.SCLK*%
X68280000Y25670000D03*
%TO.P,J1,24,Pin_24*%
%TO.N,/GPIO[8]{slash}SPI0.CE0*%
X70820000Y25670000D03*
%TO.P,J1,25,Pin_25*%
%TO.N,GND*%
X68280000Y23130000D03*
%TO.P,J1,26,Pin_26*%
%TO.N,/GPIO[7]{slash}SPI0.CE1*%
X70820000Y23130000D03*
%TO.P,J1,27,Pin_27*%
%TO.N,/ID_SDA*%
X68280000Y20590000D03*
%TO.P,J1,28,Pin_28*%
%TO.N,/ID_SCL*%
X70820000Y20590000D03*
%TO.P,J1,29,Pin_29*%
%TO.N,MotorEN*%
X68280000Y18050000D03*
%TO.P,J1,30,Pin_30*%
%TO.N,GND*%
X70820000Y18050000D03*
%TO.P,J1,31,Pin_31*%
%TO.N,MotorSTEP*%
X68280000Y15510000D03*
%TO.P,J1,32,Pin_32*%
%TO.N,/GPIO[12]{slash}PWM0*%
X70820000Y15510000D03*
%TO.P,J1,33,Pin_33*%
%TO.N,/GPIO[13]{slash}PWM1*%
X68280000Y12970000D03*
%TO.P,J1,34,Pin_34*%
%TO.N,GND*%
X70820000Y12970000D03*
%TO.P,J1,35,Pin_35*%
%TO.N,/GPIO[19]{slash}PCM.FS*%
X68280000Y10430000D03*
%TO.P,J1,36,Pin_36*%
%TO.N,/GPIO[16]*%
X70820000Y10430000D03*
%TO.P,J1,37,Pin_37*%
%TO.N,MotorDIR*%
X68280000Y7890000D03*
%TO.P,J1,38,Pin_38*%
%TO.N,/GPIO[20]{slash}PCM.DIN*%
X70820000Y7890000D03*
%TO.P,J1,39,Pin_39*%
%TO.N,GND*%
X68280000Y5350000D03*
%TO.P,J1,40,Pin_40*%
%TO.N,/GPIO[21]{slash}PCM.DOUT*%
X70820000Y5350000D03*
%TD*%
D17*
%TO.N,12V*%
X24850000Y24010000D02*
X24970000Y23890000D01*
X24970000Y23890000D02*
X22560000Y23890000D01*
X20132379Y24010000D02*
X24850000Y24010000D01*
X34890000Y23890000D02*
X24970000Y23890000D01*
X20400000Y24277621D02*
X20132379Y24010000D01*
X20400000Y29470000D02*
X20400000Y24277621D01*
X9460000Y33060000D02*
X15550000Y33060000D01*
X15650000Y33160000D02*
X15650000Y43940000D01*
X15550000Y33060000D02*
X15650000Y33160000D01*
X15650000Y30810000D02*
X15650000Y33160000D01*
%TO.N,Trans_Red_EN*%
X44675000Y48945000D02*
X44815000Y48805000D01*
X44815000Y48805000D02*
X51085000Y48805000D01*
X40290000Y48945000D02*
X44675000Y48945000D01*
%TO.N,Buzzer*%
X70970000Y28360000D02*
X70820000Y28210000D01*
X79840000Y28360000D02*
X70970000Y28360000D01*
%TO.N,5V*%
X70820000Y56120000D02*
X70820000Y53610000D01*
X69890000Y57050000D02*
X70820000Y56120000D01*
X62602380Y57050000D02*
X69890000Y57050000D01*
%TO.N,MotorDIR*%
X60560000Y6100000D02*
X50150000Y6100000D01*
X68280000Y7890000D02*
X62350000Y7890000D01*
X62350000Y7890000D02*
X60560000Y6100000D01*
%TO.N,MotorSTEP*%
X64800000Y15510000D02*
X68280000Y15510000D01*
X50150000Y8640000D02*
X57930000Y8640000D01*
X57930000Y8640000D02*
X64800000Y15510000D01*
%TO.N,MotorEN*%
X64770000Y18050000D02*
X68280000Y18050000D01*
X58940000Y23880000D02*
X64770000Y18050000D01*
X50150000Y23880000D02*
X58940000Y23880000D01*
%TO.N,3V3*%
X47700000Y17090000D02*
X47700000Y35230000D01*
X47660000Y35270000D02*
X47660000Y41440000D01*
X47660000Y34460000D02*
X47660000Y35270000D01*
X47700000Y35230000D02*
X47660000Y35270000D01*
X47700000Y17090000D02*
X47700000Y18350000D01*
X47700000Y12360000D02*
X47700000Y17090000D01*
X48150000Y18800000D02*
X50150000Y18800000D01*
X47700000Y18350000D02*
X48150000Y18800000D01*
X47700000Y12360000D02*
X47700000Y12940000D01*
X47700000Y11180000D02*
X47700000Y12360000D01*
X47700000Y12940000D02*
X48480000Y13720000D01*
X48480000Y13720000D02*
X50150000Y13720000D01*
X50150000Y11180000D02*
X47700000Y11180000D01*
X47660000Y41440000D02*
X48675000Y42455000D01*
X48675000Y42455000D02*
X51085000Y42455000D01*
X48830000Y33290000D02*
X47660000Y34460000D01*
X68280000Y33290000D02*
X48830000Y33290000D01*
%TO.N,A0*%
X56035000Y42455000D02*
X57765000Y42455000D01*
X57765000Y42455000D02*
X64390000Y35830000D01*
X64390000Y35830000D02*
X68280000Y35830000D01*
%TO.N,A1*%
X63960000Y38370000D02*
X68280000Y38370000D01*
X56035000Y43725000D02*
X58605000Y43725000D01*
X58605000Y43725000D02*
X63960000Y38370000D01*
%TO.N,A2*%
X63940000Y40910000D02*
X68280000Y40910000D01*
X59855000Y44995000D02*
X63940000Y40910000D01*
X56035000Y44995000D02*
X59855000Y44995000D01*
%TO.N,Enable*%
X63020000Y45990000D02*
X68280000Y45990000D01*
X60205000Y48805000D02*
X63020000Y45990000D01*
X56035000Y48805000D02*
X60205000Y48805000D01*
%TO.N,Net-(J2-Pad1)*%
X28020000Y37590000D02*
X28020000Y29470000D01*
X29215000Y38785000D02*
X28020000Y37590000D01*
X32670000Y38785000D02*
X29215000Y38785000D01*
%TO.N,Net-(J2-Pad2)*%
X27945000Y41325000D02*
X32670000Y41325000D01*
X25480000Y38860000D02*
X27945000Y41325000D01*
X25480000Y29470000D02*
X25480000Y38860000D01*
%TO.N,Net-(J2-Pad3)*%
X25455000Y43865000D02*
X22940000Y41350000D01*
X22940000Y41350000D02*
X22940000Y29470000D01*
X32670000Y43865000D02*
X25455000Y43865000D01*
%TO.N,Net-(J6-Pad2)*%
X32595000Y46480000D02*
X32670000Y46405000D01*
X15650000Y46480000D02*
X32595000Y46480000D01*
%TO.N,Net-(J6-Pad3)*%
X32595000Y49020000D02*
X32670000Y48945000D01*
X15650000Y49020000D02*
X32595000Y49020000D01*
%TO.N,Net-(J6-Pad4)*%
X15725000Y51485000D02*
X15650000Y51560000D01*
X32670000Y51485000D02*
X15725000Y51485000D01*
%TO.N,Net-(J6-Pad5)*%
X15725000Y54025000D02*
X15650000Y54100000D01*
X32670000Y54025000D02*
X15725000Y54025000D01*
%TO.N,/Purple*%
X17430000Y7750000D02*
X17430000Y16100000D01*
X17430000Y16100000D02*
X20140000Y18810000D01*
X18345000Y6835000D02*
X17430000Y7750000D01*
X20140000Y18810000D02*
X34890000Y18810000D01*
X21360000Y6835000D02*
X18345000Y6835000D01*
%TO.N,/Orange*%
X26215000Y11915000D02*
X21360000Y11915000D01*
X30570000Y16270000D02*
X26215000Y11915000D01*
X34890000Y16270000D02*
X30570000Y16270000D01*
%TO.N,/Yellow*%
X26765000Y9375000D02*
X21360000Y9375000D01*
X31120000Y13730000D02*
X26765000Y9375000D01*
X34890000Y13730000D02*
X31120000Y13730000D01*
%TO.N,/Blue*%
X24835000Y4295000D02*
X21360000Y4295000D01*
X31730000Y11190000D02*
X24835000Y4295000D01*
X34890000Y11190000D02*
X31730000Y11190000D01*
%TO.N,12V*%
X17050000Y29410000D02*
X15650000Y30810000D01*
X17110000Y29470000D02*
X17050000Y29410000D01*
X20400000Y29470000D02*
X17110000Y29470000D01*
%TO.N,Epi_Blue_EN*%
X46855000Y43725000D02*
X41985000Y38855000D01*
X51085000Y43725000D02*
X46855000Y43725000D01*
X41985000Y38855000D02*
X40410000Y38855000D01*
%TO.N,Epi_Red_EN*%
X46045000Y44995000D02*
X42445000Y41395000D01*
X42445000Y41395000D02*
X40410000Y41395000D01*
X51085000Y44995000D02*
X46045000Y44995000D01*
%TO.N,Epi_Green_EN*%
X41905000Y43935000D02*
X40410000Y43935000D01*
X44235000Y46265000D02*
X41905000Y43935000D01*
X51085000Y46265000D02*
X44235000Y46265000D01*
%TO.N,Trans_Blue_EN*%
X43205000Y47535000D02*
X43200000Y47540000D01*
X43200000Y47540000D02*
X42135000Y46475000D01*
X42135000Y46475000D02*
X40410000Y46475000D01*
X51085000Y47535000D02*
X43205000Y47535000D01*
%TO.N,Trans_Green_EN*%
X45905000Y50075000D02*
X51085000Y50075000D01*
X44425000Y51555000D02*
X45905000Y50075000D01*
X40410000Y51555000D02*
X44425000Y51555000D01*
%TO.N,Trans_UV_EN*%
X44495000Y54095000D02*
X40410000Y54095000D01*
X47245000Y51345000D02*
X44495000Y54095000D01*
X51085000Y51345000D02*
X47245000Y51345000D01*
%TD*%
%TA.AperFunction,Conductor*%
%TO.N,GND*%
G36*
X87034121Y61521998D02*
G01*
X87080614Y61468342D01*
X87092000Y61416000D01*
X87092000Y634000D01*
X87071998Y565879D01*
X87018342Y519386D01*
X86966000Y508000D01*
X604000Y508000D01*
X535879Y528002D01*
X489386Y581658D01*
X478000Y634000D01*
X478000Y7799125D01*
X16492644Y7799125D01*
X16492989Y7792538D01*
X16492989Y7792533D01*
X16496327Y7728850D01*
X16496500Y7722256D01*
X16496500Y7701078D01*
X16496844Y7697806D01*
X16496844Y7697804D01*
X16498714Y7680009D01*
X16499231Y7673435D01*
X16502914Y7603164D01*
X16504624Y7596783D01*
X16504624Y7596782D01*
X16506727Y7588935D01*
X16510330Y7569497D01*
X16511870Y7554845D01*
X16533616Y7487917D01*
X16535483Y7481616D01*
X16553702Y7413621D01*
X16556697Y7407743D01*
X16560391Y7400493D01*
X16567954Y7382234D01*
X16570467Y7374499D01*
X16570470Y7374493D01*
X16572508Y7368220D01*
X16575806Y7362507D01*
X16575809Y7362501D01*
X16607697Y7307270D01*
X16610830Y7301500D01*
X16642789Y7238779D01*
X16646946Y7233646D01*
X16652058Y7227333D01*
X16663259Y7211035D01*
X16667321Y7203998D01*
X16667325Y7203993D01*
X16670623Y7198280D01*
X16675041Y7193373D01*
X16675042Y7193372D01*
X16717704Y7145991D01*
X16721988Y7140976D01*
X16735323Y7124509D01*
X16750294Y7109538D01*
X16754835Y7104753D01*
X16774900Y7082469D01*
X16801926Y7052453D01*
X16813849Y7043790D01*
X16828881Y7030951D01*
X17625951Y6233881D01*
X17638790Y6218849D01*
X17647453Y6206926D01*
X17652363Y6202505D01*
X17652364Y6202504D01*
X17699753Y6159835D01*
X17704538Y6155294D01*
X17719509Y6140323D01*
X17722073Y6138247D01*
X17735976Y6126988D01*
X17740991Y6122704D01*
X17768119Y6098278D01*
X17793280Y6075623D01*
X17798993Y6072325D01*
X17798998Y6072321D01*
X17806035Y6068259D01*
X17822332Y6057058D01*
X17833779Y6047789D01*
X17896492Y6015836D01*
X17902264Y6012701D01*
X17957496Y5980812D01*
X17957502Y5980809D01*
X17963220Y5977508D01*
X17969497Y5975469D01*
X17969505Y5975465D01*
X17977234Y5972954D01*
X17995499Y5965389D01*
X18008621Y5958703D01*
X18076631Y5940479D01*
X18082878Y5938628D01*
X18149845Y5916870D01*
X18156412Y5916180D01*
X18156420Y5916178D01*
X18164505Y5915328D01*
X18183936Y5911727D01*
X18186957Y5910918D01*
X18198164Y5907915D01*
X18204755Y5907570D01*
X18204759Y5907569D01*
X18268416Y5904233D01*
X18274990Y5903716D01*
X18292804Y5901844D01*
X18292806Y5901844D01*
X18296078Y5901500D01*
X18317275Y5901500D01*
X18323869Y5901327D01*
X18387533Y5897990D01*
X18387538Y5897990D01*
X18394125Y5897645D01*
X18400640Y5898677D01*
X18400642Y5898677D01*
X18408672Y5899949D01*
X18428383Y5901500D01*
X19983880Y5901500D01*
X20052001Y5881498D01*
X20079690Y5857332D01*
X20219102Y5694102D01*
X20222858Y5690894D01*
X20222865Y5690887D01*
X20258080Y5660810D01*
X20296889Y5601359D01*
X20297395Y5530365D01*
X20258080Y5469190D01*
X20222865Y5439113D01*
X20222858Y5439106D01*
X20219102Y5435898D01*
X20054672Y5243376D01*
X19922384Y5027502D01*
X19920491Y5022932D01*
X19920489Y5022928D01*
X19892723Y4955894D01*
X19825495Y4793591D01*
X19766391Y4547403D01*
X19746526Y4295000D01*
X19766391Y4042597D01*
X19825495Y3796409D01*
X19827388Y3791838D01*
X19827389Y3791836D01*
X19905749Y3602659D01*
X19922384Y3562498D01*
X20054672Y3346624D01*
X20219102Y3154102D01*
X20411624Y2989672D01*
X20627498Y2857384D01*
X20632068Y2855491D01*
X20632072Y2855489D01*
X20856836Y2762389D01*
X20861409Y2760495D01*
X20946032Y2740179D01*
X21102784Y2702546D01*
X21102790Y2702545D01*
X21107597Y2701391D01*
X21360000Y2681526D01*
X21612403Y2701391D01*
X21617210Y2702545D01*
X21617216Y2702546D01*
X21773968Y2740179D01*
X21858591Y2760495D01*
X21863164Y2762389D01*
X22087928Y2855489D01*
X22087932Y2855491D01*
X22092502Y2857384D01*
X22308376Y2989672D01*
X22500898Y3154102D01*
X22640310Y3317331D01*
X22699760Y3356140D01*
X22736120Y3361500D01*
X24751611Y3361500D01*
X24771321Y3359949D01*
X24785875Y3357644D01*
X24792462Y3357989D01*
X24792467Y3357989D01*
X24856150Y3361327D01*
X24862744Y3361500D01*
X24883922Y3361500D01*
X24887194Y3361844D01*
X24887196Y3361844D01*
X24904991Y3363714D01*
X24911565Y3364231D01*
X24975235Y3367568D01*
X24975236Y3367568D01*
X24981836Y3367914D01*
X24996068Y3371728D01*
X25015503Y3375330D01*
X25023592Y3376180D01*
X25023594Y3376180D01*
X25030155Y3376870D01*
X25097083Y3398616D01*
X25103384Y3400483D01*
X25171379Y3418702D01*
X25184508Y3425391D01*
X25202766Y3432954D01*
X25210501Y3435467D01*
X25210507Y3435470D01*
X25216780Y3437508D01*
X25222493Y3440806D01*
X25222499Y3440809D01*
X25277730Y3472697D01*
X25283500Y3475830D01*
X25346221Y3507789D01*
X25357668Y3517058D01*
X25373965Y3528259D01*
X25381002Y3532321D01*
X25381007Y3532325D01*
X25386720Y3535623D01*
X25439009Y3582704D01*
X25444024Y3586988D01*
X25457927Y3598247D01*
X25460491Y3600323D01*
X25475462Y3615294D01*
X25480247Y3619835D01*
X25527636Y3662504D01*
X25527637Y3662505D01*
X25532547Y3666926D01*
X25541210Y3678849D01*
X25554049Y3693881D01*
X32079764Y10219595D01*
X32142076Y10253621D01*
X32168859Y10256500D01*
X33513880Y10256500D01*
X33582001Y10236498D01*
X33609690Y10212332D01*
X33749102Y10049102D01*
X33752858Y10045894D01*
X33752865Y10045887D01*
X33788080Y10015810D01*
X33826889Y9956359D01*
X33827395Y9885365D01*
X33788080Y9824190D01*
X33752865Y9794113D01*
X33752858Y9794106D01*
X33749102Y9790898D01*
X33584672Y9598376D01*
X33452384Y9382502D01*
X33450491Y9377932D01*
X33450489Y9377928D01*
X33375281Y9196359D01*
X33355495Y9148591D01*
X33348099Y9117784D01*
X33308565Y8953111D01*
X33296391Y8902403D01*
X33276526Y8650000D01*
X33296391Y8397597D01*
X33297545Y8392790D01*
X33297546Y8392784D01*
X33299708Y8383779D01*
X33355495Y8151409D01*
X33357388Y8146838D01*
X33357389Y8146836D01*
X33448157Y7927704D01*
X33452384Y7917498D01*
X33584672Y7701624D01*
X33749102Y7509102D01*
X33941624Y7344672D01*
X34157498Y7212384D01*
X34162068Y7210491D01*
X34162072Y7210489D01*
X34386836Y7117389D01*
X34391409Y7115495D01*
X34476032Y7095179D01*
X34632784Y7057546D01*
X34632790Y7057545D01*
X34637597Y7056391D01*
X34890000Y7036526D01*
X35142403Y7056391D01*
X35147210Y7057545D01*
X35147216Y7057546D01*
X35303968Y7095179D01*
X35388591Y7115495D01*
X35393164Y7117389D01*
X35617928Y7210489D01*
X35617932Y7210491D01*
X35622502Y7212384D01*
X35838376Y7344672D01*
X36030898Y7509102D01*
X36195328Y7701624D01*
X36327616Y7917498D01*
X36331844Y7927704D01*
X36422611Y8146836D01*
X36422612Y8146838D01*
X36424505Y8151409D01*
X36480292Y8383779D01*
X36482454Y8392784D01*
X36482455Y8392790D01*
X36483609Y8397597D01*
X36503474Y8650000D01*
X36483609Y8902403D01*
X36471436Y8953111D01*
X36431901Y9117784D01*
X36424505Y9148591D01*
X36404719Y9196359D01*
X36329511Y9377928D01*
X36329509Y9377932D01*
X36327616Y9382502D01*
X36195328Y9598376D01*
X36030898Y9790898D01*
X36027142Y9794106D01*
X36027135Y9794113D01*
X35991920Y9824190D01*
X35953111Y9883641D01*
X35952605Y9954635D01*
X35991920Y10015810D01*
X36027135Y10045887D01*
X36027142Y10045894D01*
X36030898Y10049102D01*
X36195328Y10241624D01*
X36327616Y10457498D01*
X36339987Y10487363D01*
X36422611Y10686836D01*
X36422612Y10686838D01*
X36424505Y10691409D01*
X36462826Y10851029D01*
X36482454Y10932784D01*
X36482455Y10932790D01*
X36483609Y10937597D01*
X36503474Y11190000D01*
X36483609Y11442403D01*
X36471436Y11493111D01*
X36431901Y11657784D01*
X36424505Y11688591D01*
X36404719Y11736359D01*
X36329511Y11917928D01*
X36329509Y11917932D01*
X36327616Y11922502D01*
X36195328Y12138376D01*
X36030898Y12330898D01*
X36027142Y12334106D01*
X36027135Y12334113D01*
X35991920Y12364190D01*
X35953111Y12423641D01*
X35952605Y12494635D01*
X35991920Y12555810D01*
X36027135Y12585887D01*
X36027142Y12585894D01*
X36030898Y12589102D01*
X36195328Y12781624D01*
X36327616Y12997498D01*
X36350251Y13052142D01*
X36422611Y13226836D01*
X36422612Y13226838D01*
X36424505Y13231409D01*
X36480292Y13463779D01*
X36482454Y13472784D01*
X36482455Y13472790D01*
X36483609Y13477597D01*
X36503474Y13730000D01*
X36483609Y13982403D01*
X36451989Y14114113D01*
X36430867Y14202090D01*
X36424505Y14228591D01*
X36382037Y14331119D01*
X36329511Y14457928D01*
X36329509Y14457932D01*
X36327616Y14462502D01*
X36195328Y14678376D01*
X36030898Y14870898D01*
X36027142Y14874106D01*
X36027135Y14874113D01*
X35991920Y14904190D01*
X35953111Y14963641D01*
X35952605Y15034635D01*
X35991920Y15095810D01*
X36027135Y15125887D01*
X36027142Y15125894D01*
X36030898Y15129102D01*
X36195328Y15321624D01*
X36327616Y15537498D01*
X36350251Y15592142D01*
X36422611Y15766836D01*
X36422612Y15766838D01*
X36424505Y15771409D01*
X36480292Y16003779D01*
X36482454Y16012784D01*
X36482455Y16012790D01*
X36483609Y16017597D01*
X36503474Y16270000D01*
X36483609Y16522403D01*
X36477338Y16548527D01*
X36440010Y16704009D01*
X36424505Y16768591D01*
X36412511Y16797547D01*
X36329511Y16997928D01*
X36329509Y16997932D01*
X36327616Y17002502D01*
X36195328Y17218376D01*
X36030898Y17410898D01*
X36027142Y17414106D01*
X36027135Y17414113D01*
X35991920Y17444190D01*
X35953111Y17503641D01*
X35952605Y17574635D01*
X35991920Y17635810D01*
X36027135Y17665887D01*
X36027142Y17665894D01*
X36030898Y17669102D01*
X36195328Y17861624D01*
X36327616Y18077498D01*
X36424505Y18311409D01*
X36480292Y18543779D01*
X36482454Y18552784D01*
X36482455Y18552790D01*
X36483609Y18557597D01*
X36503474Y18810000D01*
X36483609Y19062403D01*
X36451989Y19194113D01*
X36430081Y19285365D01*
X36424505Y19308591D01*
X36382037Y19411119D01*
X36329511Y19537928D01*
X36329509Y19537932D01*
X36327616Y19542502D01*
X36195328Y19758376D01*
X36030898Y19950898D01*
X35838376Y20115328D01*
X35622502Y20247616D01*
X35617932Y20249509D01*
X35617928Y20249511D01*
X35393164Y20342611D01*
X35393162Y20342612D01*
X35388591Y20344505D01*
X35301319Y20365457D01*
X35147216Y20402454D01*
X35147210Y20402455D01*
X35142403Y20403609D01*
X34890000Y20423474D01*
X34637597Y20403609D01*
X34632790Y20402455D01*
X34632784Y20402454D01*
X34478681Y20365457D01*
X34391409Y20344505D01*
X34386838Y20342612D01*
X34386836Y20342611D01*
X34162072Y20249511D01*
X34162068Y20249509D01*
X34157498Y20247616D01*
X33941624Y20115328D01*
X33749102Y19950898D01*
X33671041Y19859500D01*
X33609691Y19787669D01*
X33550240Y19748860D01*
X33513880Y19743500D01*
X20223389Y19743500D01*
X20203678Y19745051D01*
X20195641Y19746324D01*
X20189125Y19747356D01*
X20182538Y19747011D01*
X20182533Y19747011D01*
X20118850Y19743673D01*
X20112256Y19743500D01*
X20091078Y19743500D01*
X20087806Y19743156D01*
X20087804Y19743156D01*
X20070009Y19741286D01*
X20063435Y19740769D01*
X19999766Y19737432D01*
X19993165Y19737086D01*
X19978933Y19733272D01*
X19959498Y19729670D01*
X19951407Y19728820D01*
X19951404Y19728819D01*
X19944845Y19728130D01*
X19877926Y19706387D01*
X19871614Y19704517D01*
X19850327Y19698813D01*
X19809994Y19688006D01*
X19809991Y19688005D01*
X19803621Y19686298D01*
X19797743Y19683303D01*
X19790493Y19679609D01*
X19772234Y19672046D01*
X19764503Y19669534D01*
X19764499Y19669532D01*
X19758220Y19667492D01*
X19697251Y19632291D01*
X19691498Y19629168D01*
X19628780Y19597212D01*
X19623646Y19593055D01*
X19623645Y19593054D01*
X19617331Y19587941D01*
X19601046Y19576748D01*
X19588280Y19569377D01*
X19583370Y19564956D01*
X19535990Y19522295D01*
X19530975Y19518011D01*
X19514509Y19504677D01*
X19499538Y19489706D01*
X19494753Y19485165D01*
X19442453Y19438074D01*
X19433793Y19426154D01*
X19420951Y19411119D01*
X16828881Y16819049D01*
X16813849Y16806210D01*
X16801926Y16797547D01*
X16797505Y16792637D01*
X16797504Y16792636D01*
X16754835Y16745247D01*
X16750294Y16740462D01*
X16735323Y16725491D01*
X16733247Y16722927D01*
X16721988Y16709024D01*
X16717704Y16704009D01*
X16670623Y16651720D01*
X16667325Y16646007D01*
X16667321Y16646002D01*
X16663259Y16638965D01*
X16652058Y16622668D01*
X16642789Y16611221D01*
X16610830Y16548500D01*
X16607697Y16542730D01*
X16575809Y16487499D01*
X16575806Y16487493D01*
X16572508Y16481780D01*
X16570470Y16475507D01*
X16570467Y16475501D01*
X16567954Y16467766D01*
X16560391Y16449508D01*
X16553702Y16436379D01*
X16540741Y16388006D01*
X16535485Y16368391D01*
X16533616Y16362083D01*
X16511870Y16295155D01*
X16511180Y16288594D01*
X16511180Y16288592D01*
X16510330Y16280503D01*
X16506728Y16261068D01*
X16502914Y16246836D01*
X16502568Y16240236D01*
X16502568Y16240235D01*
X16499231Y16176565D01*
X16498714Y16169991D01*
X16496844Y16152196D01*
X16496500Y16148922D01*
X16496500Y16127744D01*
X16496327Y16121150D01*
X16492644Y16050875D01*
X16493676Y16044359D01*
X16494949Y16036322D01*
X16496500Y16016611D01*
X16496500Y7833389D01*
X16494949Y7813679D01*
X16492644Y7799125D01*
X478000Y7799125D01*
X478000Y33120101D01*
X7547569Y33120101D01*
X7558180Y32850037D01*
X7606737Y32584163D01*
X7692272Y32327783D01*
X7694265Y32323795D01*
X7783161Y32145887D01*
X7813078Y32086013D01*
X7815607Y32082354D01*
X7950526Y31887142D01*
X7966744Y31863676D01*
X8064995Y31757389D01*
X8139745Y31676526D01*
X8150205Y31665210D01*
X8359799Y31494573D01*
X8591346Y31355170D01*
X8595441Y31353436D01*
X8595443Y31353435D01*
X8836124Y31251520D01*
X8836131Y31251518D01*
X8840225Y31249784D01*
X8862873Y31243779D01*
X9097172Y31181655D01*
X9097177Y31181654D01*
X9101469Y31180516D01*
X9105878Y31179994D01*
X9105884Y31179993D01*
X9255210Y31162320D01*
X9369868Y31148749D01*
X9640064Y31155117D01*
X9644459Y31155849D01*
X9644464Y31155849D01*
X9902267Y31198759D01*
X9902271Y31198760D01*
X9906669Y31199492D01*
X10076378Y31253164D01*
X10160114Y31279646D01*
X10160116Y31279647D01*
X10164360Y31280989D01*
X10168371Y31282915D01*
X10168376Y31282917D01*
X10403979Y31396052D01*
X10403980Y31396053D01*
X10407998Y31397982D01*
X10556768Y31497387D01*
X10629013Y31545659D01*
X10629017Y31545662D01*
X10632721Y31548137D01*
X10636038Y31551108D01*
X10636042Y31551111D01*
X10830729Y31725488D01*
X10834045Y31728458D01*
X11007953Y31935346D01*
X11090171Y32067179D01*
X11143188Y32114393D01*
X11197081Y32126500D01*
X14590500Y32126500D01*
X14658621Y32106498D01*
X14705114Y32052842D01*
X14716500Y32000500D01*
X14716500Y30893389D01*
X14714949Y30873679D01*
X14712644Y30859125D01*
X14712989Y30852538D01*
X14712989Y30852533D01*
X14716327Y30788850D01*
X14716500Y30782256D01*
X14716500Y30761078D01*
X14716844Y30757806D01*
X14716844Y30757804D01*
X14718714Y30740009D01*
X14719231Y30733435D01*
X14722914Y30663164D01*
X14724624Y30656783D01*
X14724624Y30656782D01*
X14726727Y30648935D01*
X14730330Y30629497D01*
X14731870Y30614845D01*
X14753616Y30547917D01*
X14755483Y30541616D01*
X14773702Y30473621D01*
X14776697Y30467743D01*
X14780391Y30460493D01*
X14787954Y30442234D01*
X14790467Y30434499D01*
X14790470Y30434493D01*
X14792508Y30428220D01*
X14795806Y30422507D01*
X14795809Y30422501D01*
X14827697Y30367270D01*
X14830830Y30361500D01*
X14862789Y30298779D01*
X14866946Y30293646D01*
X14872058Y30287333D01*
X14883259Y30271035D01*
X14887321Y30263998D01*
X14887325Y30263993D01*
X14890623Y30258280D01*
X14895041Y30253373D01*
X14895042Y30253372D01*
X14937704Y30205991D01*
X14941988Y30200976D01*
X14948430Y30193021D01*
X14955323Y30184509D01*
X14970294Y30169538D01*
X14974835Y30164753D01*
X15021926Y30112453D01*
X15033849Y30103790D01*
X15048881Y30090951D01*
X16459294Y28680538D01*
X16495026Y28657334D01*
X16505680Y28649592D01*
X16538779Y28622789D01*
X16544661Y28619792D01*
X16576717Y28603459D01*
X16588141Y28596864D01*
X16618327Y28577260D01*
X16618331Y28577258D01*
X16623865Y28573664D01*
X16630031Y28571297D01*
X16663626Y28558401D01*
X16675674Y28553037D01*
X16713621Y28533702D01*
X16719992Y28531995D01*
X16719997Y28531993D01*
X16754756Y28522680D01*
X16767290Y28518608D01*
X16807061Y28503341D01*
X16849129Y28496678D01*
X16862029Y28493936D01*
X16896789Y28484622D01*
X16896791Y28484622D01*
X16903164Y28482914D01*
X16909753Y28482569D01*
X16909758Y28482568D01*
X16945683Y28480686D01*
X16958803Y28479308D01*
X17000875Y28472644D01*
X17007476Y28472990D01*
X17007477Y28472990D01*
X17043405Y28474873D01*
X17056595Y28474873D01*
X17092523Y28472990D01*
X17092524Y28472990D01*
X17099125Y28472644D01*
X17141197Y28479308D01*
X17154317Y28480686D01*
X17190242Y28482568D01*
X17190247Y28482569D01*
X17196836Y28482914D01*
X17203209Y28484622D01*
X17203211Y28484622D01*
X17237971Y28493936D01*
X17250871Y28496678D01*
X17292939Y28503341D01*
X17332710Y28518608D01*
X17345244Y28522680D01*
X17380801Y28532207D01*
X17413411Y28536500D01*
X19023880Y28536500D01*
X19092001Y28516498D01*
X19119690Y28492332D01*
X19259102Y28329102D01*
X19404325Y28205070D01*
X19422331Y28189691D01*
X19461140Y28130240D01*
X19466500Y28093880D01*
X19466500Y25613521D01*
X19446498Y25545400D01*
X19388718Y25497112D01*
X19381682Y25494198D01*
X19381678Y25494196D01*
X19377108Y25492303D01*
X19154523Y25355903D01*
X18956016Y25186363D01*
X18786476Y24987856D01*
X18650076Y24765271D01*
X18648183Y24760701D01*
X18648181Y24760697D01*
X18564928Y24559706D01*
X18550175Y24524089D01*
X18543386Y24495810D01*
X18490388Y24275062D01*
X18490387Y24275056D01*
X18489233Y24270249D01*
X18468751Y24010000D01*
X18489233Y23749751D01*
X18490387Y23744944D01*
X18490388Y23744938D01*
X18514974Y23642531D01*
X18550175Y23495911D01*
X18552068Y23491340D01*
X18552069Y23491338D01*
X18597192Y23382403D01*
X18650076Y23254729D01*
X18786476Y23032144D01*
X18956016Y22833637D01*
X19154523Y22664097D01*
X19377108Y22527697D01*
X19381678Y22525804D01*
X19381682Y22525802D01*
X19499158Y22477142D01*
X19618290Y22427796D01*
X19707310Y22406424D01*
X19867317Y22368009D01*
X19867323Y22368008D01*
X19872130Y22366854D01*
X20132379Y22346372D01*
X20392628Y22366854D01*
X20397435Y22368008D01*
X20397441Y22368009D01*
X20557448Y22406424D01*
X20646468Y22427796D01*
X20765600Y22477142D01*
X20883076Y22525802D01*
X20883080Y22525804D01*
X20887650Y22527697D01*
X21110235Y22664097D01*
X21308742Y22833637D01*
X21478282Y23032144D01*
X21480115Y23030578D01*
X21528458Y23067893D01*
X21574228Y23076500D01*
X22068263Y23076500D01*
X22131261Y23059620D01*
X22178220Y23032508D01*
X22184506Y23030466D01*
X22184505Y23030466D01*
X22358566Y22973910D01*
X22358567Y22973910D01*
X22364845Y22971870D01*
X22371408Y22971180D01*
X22371409Y22971180D01*
X22394405Y22968763D01*
X22511078Y22956500D01*
X24942256Y22956500D01*
X24948850Y22956327D01*
X25012533Y22952989D01*
X25012538Y22952989D01*
X25019125Y22952644D01*
X25033679Y22954949D01*
X25053389Y22956500D01*
X33513880Y22956500D01*
X33582001Y22936498D01*
X33609690Y22912332D01*
X33749102Y22749102D01*
X33941624Y22584672D01*
X34157498Y22452384D01*
X34162068Y22450491D01*
X34162072Y22450489D01*
X34371255Y22363843D01*
X34391409Y22355495D01*
X34476032Y22335179D01*
X34632784Y22297546D01*
X34632790Y22297545D01*
X34637597Y22296391D01*
X34890000Y22276526D01*
X35142403Y22296391D01*
X35147210Y22297545D01*
X35147216Y22297546D01*
X35303968Y22335179D01*
X35388591Y22355495D01*
X35408745Y22363843D01*
X35617928Y22450489D01*
X35617932Y22450491D01*
X35622502Y22452384D01*
X35838376Y22584672D01*
X36030898Y22749102D01*
X36195328Y22941624D01*
X36327616Y23157498D01*
X36366143Y23250509D01*
X36422611Y23386836D01*
X36422612Y23386838D01*
X36424505Y23391409D01*
X36448496Y23491338D01*
X36482454Y23632784D01*
X36482455Y23632790D01*
X36483609Y23637597D01*
X36503474Y23890000D01*
X36483609Y24142403D01*
X36451989Y24274113D01*
X36430081Y24365365D01*
X36424505Y24388591D01*
X36386179Y24481119D01*
X36329511Y24617928D01*
X36329509Y24617932D01*
X36327616Y24622502D01*
X36195328Y24838376D01*
X36030898Y25030898D01*
X35838376Y25195328D01*
X35622502Y25327616D01*
X35617932Y25329509D01*
X35617928Y25329511D01*
X35393164Y25422611D01*
X35393162Y25422612D01*
X35388591Y25424505D01*
X35303968Y25444821D01*
X35147216Y25482454D01*
X35147210Y25482455D01*
X35142403Y25483609D01*
X34890000Y25503474D01*
X34637597Y25483609D01*
X34632790Y25482455D01*
X34632784Y25482454D01*
X34476032Y25444821D01*
X34391409Y25424505D01*
X34386838Y25422612D01*
X34386836Y25422611D01*
X34162072Y25329511D01*
X34162068Y25329509D01*
X34157498Y25327616D01*
X33941624Y25195328D01*
X33749102Y25030898D01*
X33616045Y24875108D01*
X33609691Y24867669D01*
X33550240Y24828860D01*
X33513880Y24823500D01*
X25341739Y24823500D01*
X25278740Y24840380D01*
X25237496Y24864192D01*
X25237495Y24864192D01*
X25231780Y24867492D01*
X25225507Y24869530D01*
X25225501Y24869533D01*
X25217766Y24872046D01*
X25199507Y24879609D01*
X25192257Y24883303D01*
X25186379Y24886298D01*
X25118384Y24904517D01*
X25112083Y24906384D01*
X25045155Y24928130D01*
X25038594Y24928820D01*
X25038592Y24928820D01*
X25030503Y24929670D01*
X25011068Y24933272D01*
X24996836Y24937086D01*
X24990236Y24937432D01*
X24990235Y24937432D01*
X24926565Y24940769D01*
X24919991Y24941286D01*
X24902196Y24943156D01*
X24902194Y24943156D01*
X24898922Y24943500D01*
X24877744Y24943500D01*
X24871150Y24943673D01*
X24807467Y24947011D01*
X24807462Y24947011D01*
X24800875Y24947356D01*
X24794359Y24946324D01*
X24786322Y24945051D01*
X24766611Y24943500D01*
X21574228Y24943500D01*
X21506107Y24963502D01*
X21479359Y24988776D01*
X21478282Y24987856D01*
X21363689Y25122028D01*
X21334658Y25186818D01*
X21333500Y25203858D01*
X21333500Y28093880D01*
X21353502Y28162001D01*
X21377669Y28189691D01*
X21395676Y28205070D01*
X21540898Y28329102D01*
X21544106Y28332858D01*
X21544113Y28332865D01*
X21574190Y28368080D01*
X21633641Y28406889D01*
X21704635Y28407395D01*
X21765810Y28368080D01*
X21795887Y28332865D01*
X21795894Y28332858D01*
X21799102Y28329102D01*
X21991624Y28164672D01*
X22207498Y28032384D01*
X22212068Y28030491D01*
X22212072Y28030489D01*
X22436836Y27937389D01*
X22441409Y27935495D01*
X22526032Y27915179D01*
X22682784Y27877546D01*
X22682790Y27877545D01*
X22687597Y27876391D01*
X22940000Y27856526D01*
X23192403Y27876391D01*
X23197210Y27877545D01*
X23197216Y27877546D01*
X23353968Y27915179D01*
X23438591Y27935495D01*
X23443164Y27937389D01*
X23667928Y28030489D01*
X23667932Y28030491D01*
X23672502Y28032384D01*
X23888376Y28164672D01*
X24080898Y28329102D01*
X24084106Y28332858D01*
X24084113Y28332865D01*
X24114190Y28368080D01*
X24173641Y28406889D01*
X24244635Y28407395D01*
X24305810Y28368080D01*
X24335887Y28332865D01*
X24335894Y28332858D01*
X24339102Y28329102D01*
X24531624Y28164672D01*
X24747498Y28032384D01*
X24752068Y28030491D01*
X24752072Y28030489D01*
X24976836Y27937389D01*
X24981409Y27935495D01*
X25066032Y27915179D01*
X25222784Y27877546D01*
X25222790Y27877545D01*
X25227597Y27876391D01*
X25480000Y27856526D01*
X25732403Y27876391D01*
X25737210Y27877545D01*
X25737216Y27877546D01*
X25893968Y27915179D01*
X25978591Y27935495D01*
X25983164Y27937389D01*
X26207928Y28030489D01*
X26207932Y28030491D01*
X26212502Y28032384D01*
X26428376Y28164672D01*
X26620898Y28329102D01*
X26624106Y28332858D01*
X26624113Y28332865D01*
X26654190Y28368080D01*
X26713641Y28406889D01*
X26784635Y28407395D01*
X26845810Y28368080D01*
X26875887Y28332865D01*
X26875894Y28332858D01*
X26879102Y28329102D01*
X27071624Y28164672D01*
X27287498Y28032384D01*
X27292068Y28030491D01*
X27292072Y28030489D01*
X27516836Y27937389D01*
X27521409Y27935495D01*
X27606032Y27915179D01*
X27762784Y27877546D01*
X27762790Y27877545D01*
X27767597Y27876391D01*
X28020000Y27856526D01*
X28272403Y27876391D01*
X28277210Y27877545D01*
X28277216Y27877546D01*
X28433968Y27915179D01*
X28518591Y27935495D01*
X28523164Y27937389D01*
X28747928Y28030489D01*
X28747932Y28030491D01*
X28752502Y28032384D01*
X28968376Y28164672D01*
X29160898Y28329102D01*
X29325328Y28521624D01*
X29457616Y28737498D01*
X29507775Y28858591D01*
X29552611Y28966836D01*
X29552612Y28966838D01*
X29554505Y28971409D01*
X29574821Y29056032D01*
X29612454Y29212784D01*
X29612455Y29212790D01*
X29613609Y29217597D01*
X29633474Y29470000D01*
X29613609Y29722403D01*
X29595493Y29797865D01*
X29558102Y29953609D01*
X29554505Y29968591D01*
X29552611Y29973164D01*
X29459511Y30197928D01*
X29459509Y30197932D01*
X29457616Y30202502D01*
X29325328Y30418376D01*
X29160898Y30610898D01*
X28997669Y30750310D01*
X28958860Y30809760D01*
X28953500Y30846120D01*
X28953500Y37151142D01*
X28973502Y37219263D01*
X28990405Y37240237D01*
X29564763Y37814595D01*
X29627075Y37848621D01*
X29653858Y37851500D01*
X31293880Y37851500D01*
X31362001Y37831498D01*
X31389690Y37807332D01*
X31529102Y37644102D01*
X31532858Y37640894D01*
X31532865Y37640887D01*
X31568080Y37610810D01*
X31606889Y37551359D01*
X31607395Y37480365D01*
X31568080Y37419190D01*
X31532865Y37389113D01*
X31532858Y37389106D01*
X31529102Y37385898D01*
X31364672Y37193376D01*
X31232384Y36977502D01*
X31230491Y36972932D01*
X31230489Y36972928D01*
X31137389Y36748164D01*
X31135495Y36743591D01*
X31134340Y36738779D01*
X31090922Y36557928D01*
X31076391Y36497403D01*
X31056526Y36245000D01*
X31076391Y35992597D01*
X31135495Y35746409D01*
X31137388Y35741838D01*
X31137389Y35741836D01*
X31228898Y35520915D01*
X31232384Y35512498D01*
X31364672Y35296624D01*
X31529102Y35104102D01*
X31721624Y34939672D01*
X31937498Y34807384D01*
X31942068Y34805491D01*
X31942072Y34805489D01*
X32166836Y34712389D01*
X32171409Y34710495D01*
X32242316Y34693472D01*
X32412784Y34652546D01*
X32412790Y34652545D01*
X32417597Y34651391D01*
X32670000Y34631526D01*
X32922403Y34651391D01*
X32927210Y34652545D01*
X32927216Y34652546D01*
X33097684Y34693472D01*
X33168591Y34710495D01*
X33173164Y34712389D01*
X33397928Y34805489D01*
X33397932Y34805491D01*
X33402502Y34807384D01*
X33618376Y34939672D01*
X33810898Y35104102D01*
X33975328Y35296624D01*
X34107616Y35512498D01*
X34111103Y35520915D01*
X34202611Y35741836D01*
X34202612Y35741838D01*
X34204505Y35746409D01*
X34263609Y35992597D01*
X34283474Y36245000D01*
X34263609Y36497403D01*
X34249079Y36557928D01*
X34205660Y36738779D01*
X34204505Y36743591D01*
X34202611Y36748164D01*
X34109511Y36972928D01*
X34109509Y36972932D01*
X34107616Y36977502D01*
X33975328Y37193376D01*
X33810898Y37385898D01*
X33807142Y37389106D01*
X33807135Y37389113D01*
X33771920Y37419190D01*
X33733111Y37478641D01*
X33732605Y37549635D01*
X33771920Y37610810D01*
X33807135Y37640887D01*
X33807142Y37640894D01*
X33810898Y37644102D01*
X33975328Y37836624D01*
X34107616Y38052498D01*
X34120375Y38083299D01*
X34202611Y38281836D01*
X34202612Y38281838D01*
X34204505Y38286409D01*
X34263609Y38532597D01*
X34283474Y38785000D01*
X38676526Y38785000D01*
X38696391Y38532597D01*
X38755495Y38286409D01*
X38757388Y38281838D01*
X38757389Y38281836D01*
X38839626Y38083299D01*
X38852384Y38052498D01*
X38984672Y37836624D01*
X39149102Y37644102D01*
X39341624Y37479672D01*
X39557498Y37347384D01*
X39562068Y37345491D01*
X39562072Y37345489D01*
X39745500Y37269511D01*
X39791409Y37250495D01*
X39864873Y37232858D01*
X40032784Y37192546D01*
X40032790Y37192545D01*
X40037597Y37191391D01*
X40290000Y37171526D01*
X40542403Y37191391D01*
X40547210Y37192545D01*
X40547216Y37192546D01*
X40715127Y37232858D01*
X40788591Y37250495D01*
X40834500Y37269511D01*
X41017928Y37345489D01*
X41017932Y37345491D01*
X41022502Y37347384D01*
X41238376Y37479672D01*
X41430898Y37644102D01*
X41595328Y37836624D01*
X41597907Y37840832D01*
X41597911Y37840838D01*
X41610471Y37861335D01*
X41663119Y37908966D01*
X41717904Y37921500D01*
X41901611Y37921500D01*
X41921321Y37919949D01*
X41935875Y37917644D01*
X41942462Y37917989D01*
X41942467Y37917989D01*
X42006150Y37921327D01*
X42012744Y37921500D01*
X42033922Y37921500D01*
X42037194Y37921844D01*
X42037196Y37921844D01*
X42054991Y37923714D01*
X42061565Y37924231D01*
X42125235Y37927568D01*
X42125236Y37927568D01*
X42131836Y37927914D01*
X42146068Y37931728D01*
X42165503Y37935330D01*
X42173592Y37936180D01*
X42173594Y37936180D01*
X42180155Y37936870D01*
X42247083Y37958616D01*
X42253384Y37960483D01*
X42321379Y37978702D01*
X42334508Y37985391D01*
X42352766Y37992954D01*
X42360501Y37995467D01*
X42360507Y37995470D01*
X42366780Y37997508D01*
X42372493Y38000806D01*
X42372499Y38000809D01*
X42427730Y38032697D01*
X42433500Y38035830D01*
X42496221Y38067789D01*
X42507668Y38077058D01*
X42523965Y38088259D01*
X42531002Y38092321D01*
X42531007Y38092325D01*
X42536720Y38095623D01*
X42564209Y38120374D01*
X42589009Y38142704D01*
X42594024Y38146988D01*
X42607927Y38158247D01*
X42610491Y38160323D01*
X42625462Y38175294D01*
X42630247Y38179835D01*
X42677636Y38222504D01*
X42677637Y38222505D01*
X42682547Y38226926D01*
X42691210Y38238849D01*
X42704049Y38253881D01*
X47204763Y42754595D01*
X47267075Y42788621D01*
X47293858Y42791500D01*
X47387142Y42791500D01*
X47455263Y42771498D01*
X47501756Y42717842D01*
X47511860Y42647568D01*
X47482366Y42582988D01*
X47476237Y42576405D01*
X47058881Y42159049D01*
X47043849Y42146210D01*
X47031926Y42137547D01*
X47027505Y42132637D01*
X47027504Y42132636D01*
X46984835Y42085247D01*
X46980294Y42080462D01*
X46965323Y42065491D01*
X46962271Y42061722D01*
X46951988Y42049024D01*
X46947704Y42044009D01*
X46910213Y42002371D01*
X46900623Y41991720D01*
X46897325Y41986007D01*
X46897321Y41986002D01*
X46893259Y41978965D01*
X46882058Y41962668D01*
X46872789Y41951221D01*
X46840830Y41888500D01*
X46837697Y41882730D01*
X46805809Y41827499D01*
X46805806Y41827493D01*
X46802508Y41821780D01*
X46800470Y41815507D01*
X46800467Y41815501D01*
X46797954Y41807766D01*
X46790391Y41789508D01*
X46783702Y41776379D01*
X46767997Y41717766D01*
X46765485Y41708391D01*
X46763616Y41702083D01*
X46741870Y41635155D01*
X46741180Y41628594D01*
X46741180Y41628592D01*
X46740330Y41620503D01*
X46736728Y41601068D01*
X46732914Y41586836D01*
X46732568Y41580236D01*
X46732568Y41580235D01*
X46729231Y41516565D01*
X46728714Y41509991D01*
X46727822Y41501498D01*
X46726500Y41488922D01*
X46726500Y41467744D01*
X46726327Y41461150D01*
X46723066Y41398922D01*
X46722644Y41390875D01*
X46723676Y41384359D01*
X46724949Y41376322D01*
X46726500Y41356611D01*
X46726500Y35353389D01*
X46724949Y35333679D01*
X46722644Y35319125D01*
X46722989Y35312538D01*
X46722989Y35312533D01*
X46726327Y35248850D01*
X46726500Y35242256D01*
X46726500Y34543389D01*
X46724949Y34523679D01*
X46722644Y34509125D01*
X46722989Y34502538D01*
X46722989Y34502533D01*
X46726327Y34438850D01*
X46726500Y34432256D01*
X46726500Y34411078D01*
X46726844Y34407806D01*
X46726844Y34407804D01*
X46728714Y34390009D01*
X46729231Y34383435D01*
X46732914Y34313164D01*
X46735735Y34302638D01*
X46736727Y34298935D01*
X46740330Y34279497D01*
X46741870Y34264845D01*
X46743910Y34258568D01*
X46743910Y34258566D01*
X46760333Y34208022D01*
X46766500Y34169086D01*
X46766500Y18377744D01*
X46766327Y18371150D01*
X46762644Y18300875D01*
X46763676Y18294359D01*
X46764949Y18286322D01*
X46766500Y18266611D01*
X46766500Y12967744D01*
X46766327Y12961150D01*
X46762644Y12890875D01*
X46763676Y12884359D01*
X46764949Y12876322D01*
X46766500Y12856611D01*
X46766500Y11081885D01*
X46767873Y11075427D01*
X46775355Y11040224D01*
X46777418Y11027199D01*
X46781147Y10991727D01*
X46781870Y10984845D01*
X46783910Y10978568D01*
X46783910Y10978566D01*
X46795029Y10944348D01*
X46798444Y10931603D01*
X46805924Y10896406D01*
X46805926Y10896401D01*
X46807298Y10889944D01*
X46809984Y10883912D01*
X46824624Y10851029D01*
X46829350Y10838716D01*
X46842508Y10798220D01*
X46845810Y10792501D01*
X46845812Y10792496D01*
X46863802Y10761337D01*
X46869782Y10749601D01*
X46887112Y10710679D01*
X46890994Y10705336D01*
X46912146Y10676222D01*
X46919327Y10665163D01*
X46937317Y10634004D01*
X46937323Y10633996D01*
X46940623Y10628280D01*
X46969122Y10596629D01*
X46977416Y10586387D01*
X47002453Y10551926D01*
X47034110Y10523422D01*
X47043422Y10514110D01*
X47071926Y10482453D01*
X47098814Y10462918D01*
X47106387Y10457416D01*
X47116629Y10449122D01*
X47148280Y10420623D01*
X47153996Y10417323D01*
X47154004Y10417317D01*
X47185163Y10399327D01*
X47196222Y10392146D01*
X47230679Y10367112D01*
X47269601Y10349782D01*
X47281337Y10343802D01*
X47312496Y10325812D01*
X47312501Y10325810D01*
X47318220Y10322508D01*
X47324506Y10320466D01*
X47324505Y10320466D01*
X47358716Y10309350D01*
X47371029Y10304624D01*
X47409944Y10287298D01*
X47416401Y10285926D01*
X47416406Y10285924D01*
X47438254Y10281281D01*
X47451609Y10278442D01*
X47464344Y10275030D01*
X47480544Y10269766D01*
X47498566Y10263910D01*
X47498568Y10263910D01*
X47504845Y10261870D01*
X47511407Y10261180D01*
X47511408Y10261180D01*
X47547199Y10257418D01*
X47560223Y10255355D01*
X47601885Y10246500D01*
X48773880Y10246500D01*
X48842001Y10226498D01*
X48869690Y10202332D01*
X49009102Y10039102D01*
X49012858Y10035894D01*
X49012865Y10035887D01*
X49048080Y10005810D01*
X49086889Y9946359D01*
X49087395Y9875365D01*
X49048080Y9814190D01*
X49012865Y9784113D01*
X49012858Y9784106D01*
X49009102Y9780898D01*
X48844672Y9588376D01*
X48712384Y9372502D01*
X48710491Y9367932D01*
X48710489Y9367928D01*
X48639423Y9196359D01*
X48615495Y9138591D01*
X48614340Y9133779D01*
X48558792Y8902403D01*
X48556391Y8892403D01*
X48536526Y8640000D01*
X48556391Y8387597D01*
X48615495Y8141409D01*
X48617388Y8136838D01*
X48617389Y8136836D01*
X48709990Y7913278D01*
X48712384Y7907498D01*
X48844672Y7691624D01*
X49009102Y7499102D01*
X49012858Y7495894D01*
X49012865Y7495887D01*
X49048080Y7465810D01*
X49086889Y7406359D01*
X49087395Y7335365D01*
X49048080Y7274190D01*
X49012865Y7244113D01*
X49012858Y7244106D01*
X49009102Y7240898D01*
X48844672Y7048376D01*
X48712384Y6832502D01*
X48710491Y6827932D01*
X48710489Y6827928D01*
X48639423Y6656359D01*
X48615495Y6598591D01*
X48556391Y6352403D01*
X48536526Y6100000D01*
X48556391Y5847597D01*
X48615495Y5601409D01*
X48617388Y5596838D01*
X48617389Y5596836D01*
X48695749Y5407659D01*
X48712384Y5367498D01*
X48844672Y5151624D01*
X49009102Y4959102D01*
X49201624Y4794672D01*
X49417498Y4662384D01*
X49422068Y4660491D01*
X49422072Y4660489D01*
X49646836Y4567389D01*
X49651409Y4565495D01*
X49726768Y4547403D01*
X49892784Y4507546D01*
X49892790Y4507545D01*
X49897597Y4506391D01*
X50150000Y4486526D01*
X50402403Y4506391D01*
X50407210Y4507545D01*
X50407216Y4507546D01*
X50573232Y4547403D01*
X50648591Y4565495D01*
X50653164Y4567389D01*
X50877928Y4660489D01*
X50877932Y4660491D01*
X50882502Y4662384D01*
X51098376Y4794672D01*
X51290898Y4959102D01*
X51430310Y5122331D01*
X51489760Y5161140D01*
X51526120Y5166500D01*
X60476611Y5166500D01*
X60496321Y5164949D01*
X60510875Y5162644D01*
X60517462Y5162989D01*
X60517467Y5162989D01*
X60581150Y5166327D01*
X60587744Y5166500D01*
X60608922Y5166500D01*
X60612194Y5166844D01*
X60612196Y5166844D01*
X60629991Y5168714D01*
X60636565Y5169231D01*
X60700235Y5172568D01*
X60700236Y5172568D01*
X60706836Y5172914D01*
X60721068Y5176728D01*
X60740503Y5180330D01*
X60748592Y5181180D01*
X60748594Y5181180D01*
X60755155Y5181870D01*
X60822083Y5203616D01*
X60828384Y5205483D01*
X60896379Y5223702D01*
X60909508Y5230391D01*
X60927766Y5237954D01*
X60935501Y5240467D01*
X60935507Y5240470D01*
X60941780Y5242508D01*
X60947493Y5245806D01*
X60947499Y5245809D01*
X61002730Y5277697D01*
X61008500Y5280830D01*
X61071221Y5312789D01*
X61082668Y5322058D01*
X61098965Y5333259D01*
X61106002Y5337321D01*
X61106007Y5337325D01*
X61111720Y5340623D01*
X61164009Y5387704D01*
X61169024Y5391988D01*
X61182927Y5403247D01*
X61185491Y5405323D01*
X61200462Y5420294D01*
X61205247Y5424835D01*
X61252636Y5467504D01*
X61252637Y5467505D01*
X61257547Y5471926D01*
X61266210Y5483849D01*
X61279049Y5498881D01*
X62699763Y6919595D01*
X62762075Y6953621D01*
X62788858Y6956500D01*
X66903880Y6956500D01*
X66972001Y6936498D01*
X66999690Y6912332D01*
X67139102Y6749102D01*
X67331624Y6584672D01*
X67547498Y6452384D01*
X67552068Y6450491D01*
X67552072Y6450489D01*
X67776836Y6357389D01*
X67781409Y6355495D01*
X67840865Y6341221D01*
X68022784Y6297546D01*
X68022790Y6297545D01*
X68027597Y6296391D01*
X68280000Y6276526D01*
X68532403Y6296391D01*
X68537210Y6297545D01*
X68537216Y6297546D01*
X68719135Y6341221D01*
X68778591Y6355495D01*
X68783164Y6357389D01*
X69007928Y6450489D01*
X69007932Y6450491D01*
X69012502Y6452384D01*
X69228376Y6584672D01*
X69420898Y6749102D01*
X69424106Y6752858D01*
X69424113Y6752865D01*
X69454190Y6788080D01*
X69513641Y6826889D01*
X69584635Y6827395D01*
X69645810Y6788080D01*
X69675887Y6752865D01*
X69675894Y6752858D01*
X69679102Y6749102D01*
X69682858Y6745894D01*
X69682865Y6745887D01*
X69718080Y6715810D01*
X69756889Y6656359D01*
X69757395Y6585365D01*
X69718080Y6524190D01*
X69682865Y6494113D01*
X69682858Y6494106D01*
X69679102Y6490898D01*
X69514672Y6298376D01*
X69382384Y6082502D01*
X69380491Y6077932D01*
X69380489Y6077928D01*
X69289115Y5857331D01*
X69285495Y5848591D01*
X69284340Y5843779D01*
X69249308Y5697858D01*
X69226391Y5602403D01*
X69206526Y5350000D01*
X69226391Y5097597D01*
X69285495Y4851409D01*
X69287388Y4846838D01*
X69287389Y4846836D01*
X69364577Y4660489D01*
X69382384Y4617498D01*
X69514672Y4401624D01*
X69679102Y4209102D01*
X69871624Y4044672D01*
X70087498Y3912384D01*
X70092068Y3910491D01*
X70092072Y3910489D01*
X70316836Y3817389D01*
X70321409Y3815495D01*
X70380865Y3801221D01*
X70562784Y3757546D01*
X70562790Y3757545D01*
X70567597Y3756391D01*
X70820000Y3736526D01*
X71072403Y3756391D01*
X71077210Y3757545D01*
X71077216Y3757546D01*
X71259135Y3801221D01*
X71318591Y3815495D01*
X71323164Y3817389D01*
X71547928Y3910489D01*
X71547932Y3910491D01*
X71552502Y3912384D01*
X71768376Y4044672D01*
X71960898Y4209102D01*
X72125328Y4401624D01*
X72257616Y4617498D01*
X72275424Y4660489D01*
X72352611Y4846836D01*
X72352612Y4846838D01*
X72354505Y4851409D01*
X72413609Y5097597D01*
X72433474Y5350000D01*
X72413609Y5602403D01*
X72390693Y5697858D01*
X72355660Y5843779D01*
X72354505Y5848591D01*
X72350885Y5857331D01*
X72259511Y6077928D01*
X72259509Y6077932D01*
X72257616Y6082502D01*
X72125328Y6298376D01*
X71960898Y6490898D01*
X71957142Y6494106D01*
X71957135Y6494113D01*
X71921920Y6524190D01*
X71883111Y6583641D01*
X71882605Y6654635D01*
X71921920Y6715810D01*
X71957135Y6745887D01*
X71957142Y6745894D01*
X71960898Y6749102D01*
X72125328Y6941624D01*
X72257616Y7157498D01*
X72272476Y7193372D01*
X72352611Y7386836D01*
X72352612Y7386838D01*
X72354505Y7391409D01*
X72383662Y7512858D01*
X72412454Y7632784D01*
X72412455Y7632790D01*
X72413609Y7637597D01*
X72433474Y7890000D01*
X72413609Y8142403D01*
X72408887Y8162075D01*
X72355660Y8383779D01*
X72354505Y8388591D01*
X72332661Y8441327D01*
X72259511Y8617928D01*
X72259509Y8617932D01*
X72257616Y8622502D01*
X72125328Y8838376D01*
X71960898Y9030898D01*
X71957142Y9034106D01*
X71957135Y9034113D01*
X71921920Y9064190D01*
X71883111Y9123641D01*
X71882605Y9194635D01*
X71921920Y9255810D01*
X71957135Y9285887D01*
X71957142Y9285894D01*
X71960898Y9289102D01*
X72125328Y9481624D01*
X72257616Y9697498D01*
X72292162Y9780898D01*
X72352611Y9926836D01*
X72352612Y9926838D01*
X72354505Y9931409D01*
X72381261Y10042858D01*
X72412454Y10172784D01*
X72412455Y10172790D01*
X72413609Y10177597D01*
X72433474Y10430000D01*
X72413609Y10682403D01*
X72408104Y10705336D01*
X72355660Y10923779D01*
X72354505Y10928591D01*
X72350775Y10937597D01*
X72259511Y11157928D01*
X72259509Y11157932D01*
X72257616Y11162502D01*
X72125328Y11378376D01*
X71960898Y11570898D01*
X71768376Y11735328D01*
X71552502Y11867616D01*
X71547932Y11869509D01*
X71547928Y11869511D01*
X71323164Y11962611D01*
X71323162Y11962612D01*
X71318591Y11964505D01*
X71233968Y11984821D01*
X71077216Y12022454D01*
X71077210Y12022455D01*
X71072403Y12023609D01*
X70820000Y12043474D01*
X70567597Y12023609D01*
X70562790Y12022455D01*
X70562784Y12022454D01*
X70406032Y11984821D01*
X70321409Y11964505D01*
X70316838Y11962612D01*
X70316836Y11962611D01*
X70092072Y11869511D01*
X70092068Y11869509D01*
X70087498Y11867616D01*
X69871624Y11735328D01*
X69679102Y11570898D01*
X69675894Y11567142D01*
X69675887Y11567135D01*
X69645810Y11531920D01*
X69586359Y11493111D01*
X69515365Y11492605D01*
X69454190Y11531920D01*
X69424113Y11567135D01*
X69424106Y11567142D01*
X69420898Y11570898D01*
X69417142Y11574106D01*
X69417135Y11574113D01*
X69381920Y11604190D01*
X69343111Y11663641D01*
X69342605Y11734635D01*
X69381920Y11795810D01*
X69417135Y11825887D01*
X69417142Y11825894D01*
X69420898Y11829102D01*
X69585328Y12021624D01*
X69717616Y12237498D01*
X69752162Y12320898D01*
X69812611Y12466836D01*
X69812612Y12466838D01*
X69814505Y12471409D01*
X69841261Y12582858D01*
X69872454Y12712784D01*
X69872455Y12712790D01*
X69873609Y12717597D01*
X69893474Y12970000D01*
X69873609Y13222403D01*
X69850693Y13317858D01*
X69815660Y13463779D01*
X69814505Y13468591D01*
X69717616Y13702502D01*
X69585328Y13918376D01*
X69420898Y14110898D01*
X69417142Y14114106D01*
X69417135Y14114113D01*
X69381920Y14144190D01*
X69343111Y14203641D01*
X69342605Y14274635D01*
X69381920Y14335810D01*
X69417135Y14365887D01*
X69417142Y14365894D01*
X69420898Y14369102D01*
X69424106Y14372858D01*
X69424113Y14372865D01*
X69454190Y14408080D01*
X69513641Y14446889D01*
X69584635Y14447395D01*
X69645810Y14408080D01*
X69675887Y14372865D01*
X69675894Y14372858D01*
X69679102Y14369102D01*
X69871624Y14204672D01*
X70087498Y14072384D01*
X70092068Y14070491D01*
X70092072Y14070489D01*
X70316643Y13977469D01*
X70321409Y13975495D01*
X70380865Y13961221D01*
X70562784Y13917546D01*
X70562790Y13917545D01*
X70567597Y13916391D01*
X70820000Y13896526D01*
X71072403Y13916391D01*
X71077210Y13917545D01*
X71077216Y13917546D01*
X71259135Y13961221D01*
X71318591Y13975495D01*
X71323357Y13977469D01*
X71547928Y14070489D01*
X71547932Y14070491D01*
X71552502Y14072384D01*
X71768376Y14204672D01*
X71960898Y14369102D01*
X72125328Y14561624D01*
X72257616Y14777498D01*
X72292162Y14860898D01*
X72352611Y15006836D01*
X72352612Y15006838D01*
X72354505Y15011409D01*
X72381261Y15122858D01*
X72412454Y15252784D01*
X72412455Y15252790D01*
X72413609Y15257597D01*
X72433474Y15510000D01*
X72413609Y15762403D01*
X72354505Y16008591D01*
X72347075Y16026529D01*
X72259511Y16237928D01*
X72259509Y16237932D01*
X72257616Y16242502D01*
X72125328Y16458376D01*
X71960898Y16650898D01*
X71768376Y16815328D01*
X71552502Y16947616D01*
X71547932Y16949509D01*
X71547928Y16949511D01*
X71323164Y17042611D01*
X71323162Y17042612D01*
X71318591Y17044505D01*
X71233968Y17064821D01*
X71077216Y17102454D01*
X71077210Y17102455D01*
X71072403Y17103609D01*
X70820000Y17123474D01*
X70567597Y17103609D01*
X70562790Y17102455D01*
X70562784Y17102454D01*
X70406032Y17064821D01*
X70321409Y17044505D01*
X70316838Y17042612D01*
X70316836Y17042611D01*
X70092072Y16949511D01*
X70092068Y16949509D01*
X70087498Y16947616D01*
X69871624Y16815328D01*
X69679102Y16650898D01*
X69675894Y16647142D01*
X69675887Y16647135D01*
X69645810Y16611920D01*
X69586359Y16573111D01*
X69515365Y16572605D01*
X69454190Y16611920D01*
X69424113Y16647135D01*
X69424106Y16647142D01*
X69420898Y16650898D01*
X69417142Y16654106D01*
X69417135Y16654113D01*
X69381920Y16684190D01*
X69343111Y16743641D01*
X69342605Y16814635D01*
X69381920Y16875810D01*
X69417135Y16905887D01*
X69417142Y16905894D01*
X69420898Y16909102D01*
X69585328Y17101624D01*
X69717616Y17317498D01*
X69734252Y17357659D01*
X69812611Y17546836D01*
X69812612Y17546838D01*
X69814505Y17551409D01*
X69841261Y17662858D01*
X69872454Y17792784D01*
X69872455Y17792790D01*
X69873609Y17797597D01*
X69893474Y18050000D01*
X69873609Y18302403D01*
X69872394Y18307467D01*
X69815660Y18543779D01*
X69814505Y18548591D01*
X69717616Y18782502D01*
X69585328Y18998376D01*
X69420898Y19190898D01*
X69417142Y19194106D01*
X69417135Y19194113D01*
X69381920Y19224190D01*
X69343111Y19283641D01*
X69342605Y19354635D01*
X69381920Y19415810D01*
X69417135Y19445887D01*
X69417142Y19445894D01*
X69420898Y19449102D01*
X69424106Y19452858D01*
X69424113Y19452865D01*
X69454190Y19488080D01*
X69513641Y19526889D01*
X69584635Y19527395D01*
X69645810Y19488080D01*
X69675887Y19452865D01*
X69675894Y19452858D01*
X69679102Y19449102D01*
X69871624Y19284672D01*
X70087498Y19152384D01*
X70092068Y19150491D01*
X70092072Y19150489D01*
X70316643Y19057469D01*
X70321409Y19055495D01*
X70406032Y19035179D01*
X70562784Y18997546D01*
X70562790Y18997545D01*
X70567597Y18996391D01*
X70820000Y18976526D01*
X71072403Y18996391D01*
X71077210Y18997545D01*
X71077216Y18997546D01*
X71233968Y19035179D01*
X71318591Y19055495D01*
X71323357Y19057469D01*
X71547928Y19150489D01*
X71547932Y19150491D01*
X71552502Y19152384D01*
X71768376Y19284672D01*
X71960898Y19449102D01*
X72125328Y19641624D01*
X72257616Y19857498D01*
X72292162Y19940898D01*
X72352611Y20086836D01*
X72352612Y20086838D01*
X72354505Y20091409D01*
X72392462Y20249511D01*
X72412454Y20332784D01*
X72412455Y20332790D01*
X72413609Y20337597D01*
X72433474Y20590000D01*
X72413609Y20842403D01*
X72354505Y21088591D01*
X72257616Y21322502D01*
X72125328Y21538376D01*
X71960898Y21730898D01*
X71957142Y21734106D01*
X71957135Y21734113D01*
X71921920Y21764190D01*
X71883111Y21823641D01*
X71882605Y21894635D01*
X71921920Y21955810D01*
X71957135Y21985887D01*
X71957142Y21985894D01*
X71960898Y21989102D01*
X72125328Y22181624D01*
X72257616Y22397498D01*
X72269688Y22426641D01*
X72352611Y22626836D01*
X72352612Y22626838D01*
X72354505Y22631409D01*
X72402284Y22830424D01*
X72412454Y22872784D01*
X72412455Y22872790D01*
X72413609Y22877597D01*
X72433474Y23130000D01*
X72413609Y23382403D01*
X72386359Y23495911D01*
X72355660Y23623779D01*
X72354505Y23628591D01*
X72304319Y23749751D01*
X72259511Y23857928D01*
X72259509Y23857932D01*
X72257616Y23862502D01*
X72125328Y24078376D01*
X71960898Y24270898D01*
X71957142Y24274106D01*
X71957135Y24274113D01*
X71921920Y24304190D01*
X71883111Y24363641D01*
X71882605Y24434635D01*
X71921920Y24495810D01*
X71957135Y24525887D01*
X71957142Y24525894D01*
X71960898Y24529102D01*
X72125328Y24721624D01*
X72257616Y24937498D01*
X72261557Y24947011D01*
X72352611Y25166836D01*
X72352612Y25166838D01*
X72354505Y25171409D01*
X72413609Y25417597D01*
X72433474Y25670000D01*
X72413609Y25922403D01*
X72354505Y26168591D01*
X72257616Y26402502D01*
X72125328Y26618376D01*
X71960898Y26810898D01*
X71957142Y26814106D01*
X71957135Y26814113D01*
X71921920Y26844190D01*
X71883111Y26903641D01*
X71882605Y26974635D01*
X71921920Y27035810D01*
X71957135Y27065887D01*
X71957142Y27065894D01*
X71960898Y27069102D01*
X72125328Y27261624D01*
X72189495Y27366335D01*
X72242143Y27413966D01*
X72296928Y27426500D01*
X78463880Y27426500D01*
X78532001Y27406498D01*
X78559690Y27382332D01*
X78699102Y27219102D01*
X78891624Y27054672D01*
X79107498Y26922384D01*
X79112068Y26920491D01*
X79112072Y26920489D01*
X79296275Y26844190D01*
X79341409Y26825495D01*
X79417885Y26807135D01*
X79582784Y26767546D01*
X79582790Y26767545D01*
X79587597Y26766391D01*
X79840000Y26746526D01*
X80092403Y26766391D01*
X80097210Y26767545D01*
X80097216Y26767546D01*
X80262115Y26807135D01*
X80338591Y26825495D01*
X80383725Y26844190D01*
X80567928Y26920489D01*
X80567932Y26920491D01*
X80572502Y26922384D01*
X80788376Y27054672D01*
X80980898Y27219102D01*
X81145328Y27411624D01*
X81277616Y27627498D01*
X81314367Y27716221D01*
X81372611Y27856836D01*
X81372612Y27856838D01*
X81374505Y27861409D01*
X81396442Y27952784D01*
X81432454Y28102784D01*
X81432455Y28102790D01*
X81433609Y28107597D01*
X81453474Y28360000D01*
X81433609Y28612403D01*
X81431836Y28619792D01*
X81375660Y28853779D01*
X81374505Y28858591D01*
X81329669Y28966836D01*
X81279511Y29087928D01*
X81279509Y29087932D01*
X81277616Y29092502D01*
X81145328Y29308376D01*
X80980898Y29500898D01*
X80788376Y29665328D01*
X80572502Y29797616D01*
X80567932Y29799509D01*
X80567928Y29799511D01*
X80343164Y29892611D01*
X80343162Y29892612D01*
X80338591Y29894505D01*
X80253968Y29914821D01*
X80097216Y29952454D01*
X80097210Y29952455D01*
X80092403Y29953609D01*
X79840000Y29973474D01*
X79587597Y29953609D01*
X79582790Y29952455D01*
X79582784Y29952454D01*
X79426032Y29914821D01*
X79341409Y29894505D01*
X79336838Y29892612D01*
X79336836Y29892611D01*
X79112072Y29799511D01*
X79112068Y29799509D01*
X79107498Y29797616D01*
X78891624Y29665328D01*
X78699102Y29500898D01*
X78567776Y29347135D01*
X78559691Y29337669D01*
X78500240Y29298860D01*
X78463880Y29293500D01*
X72068008Y29293500D01*
X71999887Y29313502D01*
X71972198Y29337668D01*
X71964107Y29347141D01*
X71964106Y29347142D01*
X71960898Y29350898D01*
X71768376Y29515328D01*
X71552502Y29647616D01*
X71547932Y29649509D01*
X71547928Y29649511D01*
X71323164Y29742611D01*
X71323162Y29742612D01*
X71318591Y29744505D01*
X71233968Y29764821D01*
X71077216Y29802454D01*
X71077210Y29802455D01*
X71072403Y29803609D01*
X70820000Y29823474D01*
X70567597Y29803609D01*
X70562790Y29802455D01*
X70562784Y29802454D01*
X70406032Y29764821D01*
X70321409Y29744505D01*
X70316838Y29742612D01*
X70316836Y29742611D01*
X70092072Y29649511D01*
X70092068Y29649509D01*
X70087498Y29647616D01*
X69871624Y29515328D01*
X69679102Y29350898D01*
X69675894Y29347142D01*
X69675887Y29347135D01*
X69645810Y29311920D01*
X69586359Y29273111D01*
X69515365Y29272605D01*
X69454190Y29311920D01*
X69424113Y29347135D01*
X69424106Y29347142D01*
X69420898Y29350898D01*
X69417142Y29354106D01*
X69417135Y29354113D01*
X69381920Y29384190D01*
X69343111Y29443641D01*
X69342605Y29514635D01*
X69381920Y29575810D01*
X69417135Y29605887D01*
X69417142Y29605894D01*
X69420898Y29609102D01*
X69585328Y29801624D01*
X69717616Y30017498D01*
X69748042Y30090951D01*
X69812611Y30246836D01*
X69812612Y30246838D01*
X69814505Y30251409D01*
X69851019Y30403500D01*
X69872454Y30492784D01*
X69872455Y30492790D01*
X69873609Y30497597D01*
X69893474Y30750000D01*
X69873609Y31002403D01*
X69814505Y31248591D01*
X69801642Y31279646D01*
X69719511Y31477928D01*
X69719509Y31477932D01*
X69717616Y31482502D01*
X69585328Y31698376D01*
X69420898Y31890898D01*
X69417142Y31894106D01*
X69417135Y31894113D01*
X69381920Y31924190D01*
X69343111Y31983641D01*
X69342605Y32054635D01*
X69381920Y32115810D01*
X69417135Y32145887D01*
X69417142Y32145894D01*
X69420898Y32149102D01*
X69424106Y32152858D01*
X69424113Y32152865D01*
X69454190Y32188080D01*
X69513641Y32226889D01*
X69584635Y32227395D01*
X69645810Y32188080D01*
X69675887Y32152865D01*
X69675894Y32152858D01*
X69679102Y32149102D01*
X69871624Y31984672D01*
X70087498Y31852384D01*
X70092068Y31850491D01*
X70092072Y31850489D01*
X70316836Y31757389D01*
X70321409Y31755495D01*
X70406032Y31735179D01*
X70562784Y31697546D01*
X70562790Y31697545D01*
X70567597Y31696391D01*
X70820000Y31676526D01*
X71072403Y31696391D01*
X71077210Y31697545D01*
X71077216Y31697546D01*
X71233968Y31735179D01*
X71318591Y31755495D01*
X71323164Y31757389D01*
X71547928Y31850489D01*
X71547932Y31850491D01*
X71552502Y31852384D01*
X71768376Y31984672D01*
X71960898Y32149102D01*
X72125328Y32341624D01*
X72257616Y32557498D01*
X72270476Y32588543D01*
X72352611Y32786836D01*
X72352612Y32786838D01*
X72354505Y32791409D01*
X72413609Y33037597D01*
X72433474Y33290000D01*
X72413609Y33542403D01*
X72388511Y33646947D01*
X72355660Y33783779D01*
X72354505Y33788591D01*
X72257616Y34022502D01*
X72125328Y34238376D01*
X71960898Y34430898D01*
X71957142Y34434106D01*
X71957135Y34434113D01*
X71921920Y34464190D01*
X71883111Y34523641D01*
X71882605Y34594635D01*
X71921920Y34655810D01*
X71957135Y34685887D01*
X71957142Y34685894D01*
X71960898Y34689102D01*
X72125328Y34881624D01*
X72257616Y35097498D01*
X72260352Y35104102D01*
X72352611Y35326836D01*
X72352612Y35326838D01*
X72354505Y35331409D01*
X72378518Y35431433D01*
X72412454Y35572784D01*
X72412455Y35572790D01*
X72413609Y35577597D01*
X72433474Y35830000D01*
X72413609Y36082403D01*
X72354505Y36328591D01*
X72284581Y36497403D01*
X72259511Y36557928D01*
X72259509Y36557932D01*
X72257616Y36562502D01*
X72125328Y36778376D01*
X71960898Y36970898D01*
X71768376Y37135328D01*
X71552502Y37267616D01*
X71547932Y37269509D01*
X71547928Y37269511D01*
X71323164Y37362611D01*
X71323162Y37362612D01*
X71318591Y37364505D01*
X71229482Y37385898D01*
X71077216Y37422454D01*
X71077210Y37422455D01*
X71072403Y37423609D01*
X70820000Y37443474D01*
X70567597Y37423609D01*
X70562790Y37422455D01*
X70562784Y37422454D01*
X70410518Y37385898D01*
X70321409Y37364505D01*
X70316838Y37362612D01*
X70316836Y37362611D01*
X70092072Y37269511D01*
X70092068Y37269509D01*
X70087498Y37267616D01*
X69871624Y37135328D01*
X69679102Y36970898D01*
X69675894Y36967142D01*
X69675887Y36967135D01*
X69645810Y36931920D01*
X69586359Y36893111D01*
X69515365Y36892605D01*
X69454190Y36931920D01*
X69424113Y36967135D01*
X69424106Y36967142D01*
X69420898Y36970898D01*
X69417142Y36974106D01*
X69417135Y36974113D01*
X69381920Y37004190D01*
X69343111Y37063641D01*
X69342605Y37134635D01*
X69381920Y37195810D01*
X69417135Y37225887D01*
X69417142Y37225894D01*
X69420898Y37229102D01*
X69585328Y37421624D01*
X69717616Y37637498D01*
X69720352Y37644102D01*
X69812611Y37866836D01*
X69812612Y37866838D01*
X69814505Y37871409D01*
X69840983Y37981697D01*
X69872454Y38112784D01*
X69872455Y38112790D01*
X69873609Y38117597D01*
X69893474Y38370000D01*
X69873609Y38622403D01*
X69814505Y38868591D01*
X69799162Y38905632D01*
X69719511Y39097928D01*
X69719509Y39097932D01*
X69717616Y39102502D01*
X69585328Y39318376D01*
X69420898Y39510898D01*
X69417142Y39514106D01*
X69417135Y39514113D01*
X69381920Y39544190D01*
X69343111Y39603641D01*
X69342605Y39674635D01*
X69381920Y39735810D01*
X69417135Y39765887D01*
X69417142Y39765894D01*
X69420898Y39769102D01*
X69424106Y39772858D01*
X69424113Y39772865D01*
X69454190Y39808080D01*
X69513641Y39846889D01*
X69584635Y39847395D01*
X69645810Y39808080D01*
X69675887Y39772865D01*
X69675894Y39772858D01*
X69679102Y39769102D01*
X69871624Y39604672D01*
X70087498Y39472384D01*
X70092068Y39470491D01*
X70092072Y39470489D01*
X70295760Y39386119D01*
X70321409Y39375495D01*
X70406032Y39355179D01*
X70562784Y39317546D01*
X70562790Y39317545D01*
X70567597Y39316391D01*
X70820000Y39296526D01*
X71072403Y39316391D01*
X71077210Y39317545D01*
X71077216Y39317546D01*
X71233968Y39355179D01*
X71318591Y39375495D01*
X71344240Y39386119D01*
X71547928Y39470489D01*
X71547932Y39470491D01*
X71552502Y39472384D01*
X71768376Y39604672D01*
X71960898Y39769102D01*
X72125328Y39961624D01*
X72257616Y40177498D01*
X72260352Y40184102D01*
X72352611Y40406836D01*
X72352612Y40406838D01*
X72354505Y40411409D01*
X72396967Y40588278D01*
X72412454Y40652784D01*
X72412455Y40652790D01*
X72413609Y40657597D01*
X72433474Y40910000D01*
X72413609Y41162403D01*
X72381930Y41294359D01*
X72362252Y41376322D01*
X72354505Y41408591D01*
X72349783Y41419991D01*
X72259511Y41637928D01*
X72259509Y41637932D01*
X72257616Y41642502D01*
X72125328Y41858376D01*
X71960898Y42050898D01*
X71957142Y42054106D01*
X71957135Y42054113D01*
X71921920Y42084190D01*
X71883111Y42143641D01*
X71882605Y42214635D01*
X71921920Y42275810D01*
X71957135Y42305887D01*
X71957142Y42305894D01*
X71960898Y42309102D01*
X72125328Y42501624D01*
X72257616Y42717498D01*
X72260352Y42724102D01*
X72352611Y42946836D01*
X72352612Y42946838D01*
X72354505Y42951409D01*
X72380983Y43061697D01*
X72412454Y43192784D01*
X72412455Y43192790D01*
X72413609Y43197597D01*
X72433474Y43450000D01*
X72413609Y43702403D01*
X72354505Y43948591D01*
X72352611Y43953164D01*
X72259511Y44177928D01*
X72259509Y44177932D01*
X72257616Y44182502D01*
X72125328Y44398376D01*
X71960898Y44590898D01*
X71957142Y44594106D01*
X71957135Y44594113D01*
X71921920Y44624190D01*
X71883111Y44683641D01*
X71882605Y44754635D01*
X71921920Y44815810D01*
X71957135Y44845887D01*
X71957142Y44845894D01*
X71960898Y44849102D01*
X72125328Y45041624D01*
X72257616Y45257498D01*
X72260352Y45264102D01*
X72352611Y45486836D01*
X72352612Y45486838D01*
X72354505Y45491409D01*
X72387176Y45627496D01*
X72412454Y45732784D01*
X72412455Y45732790D01*
X72413609Y45737597D01*
X72433474Y45990000D01*
X72413609Y46242403D01*
X72354505Y46488591D01*
X72352611Y46493164D01*
X72259511Y46717928D01*
X72259509Y46717932D01*
X72257616Y46722502D01*
X72125328Y46938376D01*
X71960898Y47130898D01*
X71768376Y47295328D01*
X71552502Y47427616D01*
X71547932Y47429509D01*
X71547928Y47429511D01*
X71323164Y47522611D01*
X71323162Y47522612D01*
X71318591Y47524505D01*
X71229482Y47545898D01*
X71077216Y47582454D01*
X71077210Y47582455D01*
X71072403Y47583609D01*
X70820000Y47603474D01*
X70567597Y47583609D01*
X70562790Y47582455D01*
X70562784Y47582454D01*
X70410518Y47545898D01*
X70321409Y47524505D01*
X70316838Y47522612D01*
X70316836Y47522611D01*
X70092072Y47429511D01*
X70092068Y47429509D01*
X70087498Y47427616D01*
X69871624Y47295328D01*
X69679102Y47130898D01*
X69675894Y47127142D01*
X69675887Y47127135D01*
X69645810Y47091920D01*
X69586359Y47053111D01*
X69515365Y47052605D01*
X69454190Y47091920D01*
X69424113Y47127135D01*
X69424106Y47127142D01*
X69420898Y47130898D01*
X69417142Y47134106D01*
X69417135Y47134113D01*
X69381920Y47164190D01*
X69343111Y47223641D01*
X69342605Y47294635D01*
X69381920Y47355810D01*
X69417135Y47385887D01*
X69417142Y47385894D01*
X69420898Y47389102D01*
X69585328Y47581624D01*
X69717616Y47797498D01*
X69720352Y47804102D01*
X69812611Y48026836D01*
X69812612Y48026838D01*
X69814505Y48031409D01*
X69845103Y48158861D01*
X69872454Y48272784D01*
X69872455Y48272790D01*
X69873609Y48277597D01*
X69893474Y48530000D01*
X69873609Y48782403D01*
X69814505Y49028591D01*
X69812611Y49033164D01*
X69719511Y49257928D01*
X69719509Y49257932D01*
X69717616Y49262502D01*
X69686593Y49313127D01*
X69668055Y49381661D01*
X69689511Y49449337D01*
X69744151Y49494670D01*
X69821045Y49502031D01*
X69842408Y49497341D01*
X69959085Y49471725D01*
X70127781Y49476036D01*
X70188922Y49485050D01*
X70197320Y49486288D01*
X70197328Y49486289D01*
X70198018Y49486391D01*
X70198707Y49486508D01*
X70198738Y49486513D01*
X70208900Y49488240D01*
X70228336Y49491543D01*
X70312740Y49518686D01*
X70380725Y49521255D01*
X70438381Y49507413D01*
X70562784Y49477546D01*
X70562790Y49477545D01*
X70567597Y49476391D01*
X70820000Y49456526D01*
X71072403Y49476391D01*
X71077210Y49477545D01*
X71077216Y49477546D01*
X71241244Y49516926D01*
X71312152Y49513379D01*
X71326386Y49507413D01*
X71371734Y49485050D01*
X71387821Y49475575D01*
X71470353Y49418320D01*
X71471190Y49417777D01*
X71471193Y49417775D01*
X71502773Y49397288D01*
X71502776Y49397286D01*
X71506786Y49394685D01*
X71511141Y49392721D01*
X71511145Y49392719D01*
X71577551Y49362775D01*
X71660620Y49325317D01*
X71664246Y49324184D01*
X71664252Y49324182D01*
X71712336Y49309161D01*
X71732551Y49302846D01*
X71744739Y49299450D01*
X71769760Y49292477D01*
X71769766Y49292476D01*
X71774373Y49291192D01*
X71941912Y49271002D01*
X71945713Y49271005D01*
X71945720Y49271005D01*
X80555991Y49278769D01*
X81794312Y49279886D01*
X81797682Y49280254D01*
X81797690Y49280254D01*
X81940590Y49295840D01*
X81940594Y49295841D01*
X81943962Y49296208D01*
X81996584Y49307775D01*
X82166925Y49369198D01*
X82185062Y49381516D01*
X82303381Y49461874D01*
X82303385Y49461877D01*
X82306524Y49464009D01*
X82322039Y49477546D01*
X82358991Y49509789D01*
X82360019Y49510686D01*
X82361017Y49511637D01*
X82400772Y49549527D01*
X82400773Y49549529D01*
X82404529Y49553108D01*
X82415484Y49567679D01*
X82501354Y49681897D01*
X82501355Y49681899D01*
X82505936Y49687992D01*
X82572116Y49843225D01*
X82586655Y49893376D01*
X82591677Y49910699D01*
X82591683Y49910722D01*
X82591884Y49911414D01*
X82599796Y49941131D01*
X82602513Y49964162D01*
X82619116Y50104939D01*
X82619562Y50108720D01*
X82619313Y50181306D01*
X82619313Y50181311D01*
X82619198Y50215000D01*
X82615349Y51334618D01*
X82613892Y51758601D01*
X82600000Y55801100D01*
X82600000Y56014103D01*
X82584065Y56162613D01*
X82578585Y56187854D01*
X82573582Y56210902D01*
X82573580Y56210909D01*
X82572722Y56214861D01*
X82512273Y56384317D01*
X82418058Y56524319D01*
X82371609Y56578013D01*
X82329372Y56622709D01*
X82325241Y56625842D01*
X82325238Y56625845D01*
X82200991Y56720084D01*
X82194920Y56724689D01*
X82187924Y56727707D01*
X82187922Y56727708D01*
X82043471Y56790018D01*
X82043468Y56790019D01*
X82039970Y56791528D01*
X82036318Y56792604D01*
X82036314Y56792605D01*
X81972552Y56811384D01*
X81972524Y56811392D01*
X81971865Y56811586D01*
X81971208Y56811764D01*
X81971183Y56811771D01*
X81946523Y56818449D01*
X81946524Y56818449D01*
X81942181Y56819625D01*
X81937718Y56820171D01*
X81937716Y56820171D01*
X81778456Y56839641D01*
X81774677Y56840103D01*
X71463695Y56848561D01*
X71395591Y56868619D01*
X71374704Y56885465D01*
X70609047Y57651121D01*
X70596206Y57666156D01*
X70591430Y57672729D01*
X70587547Y57678074D01*
X70535247Y57725165D01*
X70530462Y57729706D01*
X70515491Y57744677D01*
X70499024Y57758012D01*
X70494009Y57762296D01*
X70446628Y57804958D01*
X70446627Y57804959D01*
X70441720Y57809377D01*
X70436007Y57812675D01*
X70436002Y57812679D01*
X70428965Y57816741D01*
X70412667Y57827942D01*
X70406354Y57833054D01*
X70401221Y57837211D01*
X70338500Y57869170D01*
X70332730Y57872303D01*
X70277499Y57904191D01*
X70277493Y57904194D01*
X70271780Y57907492D01*
X70265507Y57909530D01*
X70265501Y57909533D01*
X70257766Y57912046D01*
X70239507Y57919609D01*
X70232257Y57923303D01*
X70226379Y57926298D01*
X70158384Y57944517D01*
X70152083Y57946384D01*
X70085155Y57968130D01*
X70078594Y57968820D01*
X70078592Y57968820D01*
X70070503Y57969670D01*
X70051068Y57973272D01*
X70036836Y57977086D01*
X70030236Y57977432D01*
X70030235Y57977432D01*
X69966565Y57980769D01*
X69959991Y57981286D01*
X69942196Y57983156D01*
X69942194Y57983156D01*
X69938922Y57983500D01*
X69917744Y57983500D01*
X69911150Y57983673D01*
X69847467Y57987011D01*
X69847462Y57987011D01*
X69840875Y57987356D01*
X69834359Y57986324D01*
X69826322Y57985051D01*
X69806611Y57983500D01*
X64044229Y57983500D01*
X63976108Y58003502D01*
X63949360Y58028776D01*
X63948283Y58027856D01*
X63781956Y58222601D01*
X63778743Y58226363D01*
X63580236Y58395903D01*
X63357651Y58532303D01*
X63353081Y58534196D01*
X63353077Y58534198D01*
X63121042Y58630310D01*
X63121040Y58630311D01*
X63116469Y58632204D01*
X63027449Y58653576D01*
X62867442Y58691991D01*
X62867436Y58691992D01*
X62862629Y58693146D01*
X62602380Y58713628D01*
X62342131Y58693146D01*
X62337324Y58691992D01*
X62337318Y58691991D01*
X62177311Y58653576D01*
X62088291Y58632204D01*
X62083720Y58630311D01*
X62083718Y58630310D01*
X61851683Y58534198D01*
X61851679Y58534196D01*
X61847109Y58532303D01*
X61624524Y58395903D01*
X61426017Y58226363D01*
X61256477Y58027856D01*
X61120077Y57805271D01*
X61118184Y57800701D01*
X61118182Y57800697D01*
X61059130Y57658133D01*
X61020176Y57564089D01*
X61019021Y57559277D01*
X60960389Y57315062D01*
X60960388Y57315056D01*
X60959234Y57310249D01*
X60938752Y57050000D01*
X60959234Y56789751D01*
X60960388Y56784944D01*
X60960389Y56784938D01*
X60998585Y56625845D01*
X61020176Y56535911D01*
X61022069Y56531340D01*
X61022070Y56531338D01*
X61024978Y56524319D01*
X61120077Y56294729D01*
X61256477Y56072144D01*
X61426017Y55873637D01*
X61624524Y55704097D01*
X61847109Y55567697D01*
X61851679Y55565804D01*
X61851683Y55565802D01*
X62083718Y55469690D01*
X62088291Y55467796D01*
X62120639Y55460030D01*
X62337318Y55408009D01*
X62337324Y55408008D01*
X62342131Y55406854D01*
X62602380Y55386372D01*
X62862629Y55406854D01*
X62867436Y55408008D01*
X62867442Y55408009D01*
X63084121Y55460030D01*
X63116469Y55467796D01*
X63121042Y55469690D01*
X63353077Y55565802D01*
X63353081Y55565804D01*
X63357651Y55567697D01*
X63580236Y55704097D01*
X63778743Y55873637D01*
X63948283Y56072144D01*
X63950116Y56070578D01*
X63998459Y56107893D01*
X64044229Y56116500D01*
X68884512Y56116500D01*
X68952633Y56096498D01*
X68999126Y56042842D01*
X69010511Y55990908D01*
X69012953Y55236409D01*
X68993172Y55168224D01*
X68939667Y55121557D01*
X68869426Y55111226D01*
X68838736Y55119592D01*
X68783164Y55142611D01*
X68783162Y55142612D01*
X68778591Y55144505D01*
X68689482Y55165898D01*
X68537216Y55202454D01*
X68537210Y55202455D01*
X68532403Y55203609D01*
X68280000Y55223474D01*
X68027597Y55203609D01*
X68022790Y55202455D01*
X68022784Y55202454D01*
X67870518Y55165898D01*
X67781409Y55144505D01*
X67776838Y55142612D01*
X67776836Y55142611D01*
X67552072Y55049511D01*
X67552068Y55049509D01*
X67547498Y55047616D01*
X67331624Y54915328D01*
X67139102Y54750898D01*
X66974672Y54558376D01*
X66842384Y54342502D01*
X66840491Y54337932D01*
X66840489Y54337928D01*
X66815419Y54277403D01*
X66745495Y54108591D01*
X66686391Y53862403D01*
X66666526Y53610000D01*
X66686391Y53357597D01*
X66687545Y53352790D01*
X66687546Y53352784D01*
X66703033Y53288278D01*
X66745495Y53111409D01*
X66747388Y53106838D01*
X66747389Y53106836D01*
X66839649Y52884102D01*
X66842384Y52877498D01*
X66974672Y52661624D01*
X67139102Y52469102D01*
X67142858Y52465894D01*
X67142865Y52465887D01*
X67178080Y52435810D01*
X67216889Y52376359D01*
X67217395Y52305365D01*
X67178080Y52244190D01*
X67142865Y52214113D01*
X67142858Y52214106D01*
X67139102Y52210898D01*
X66974672Y52018376D01*
X66842384Y51802502D01*
X66840491Y51797932D01*
X66840489Y51797928D01*
X66747389Y51573164D01*
X66745495Y51568591D01*
X66744340Y51563779D01*
X66689324Y51334618D01*
X66686391Y51322403D01*
X66666526Y51070000D01*
X66686391Y50817597D01*
X66687545Y50812790D01*
X66687546Y50812784D01*
X66714897Y50698861D01*
X66745495Y50571409D01*
X66747388Y50566838D01*
X66747389Y50566836D01*
X66839649Y50344102D01*
X66842384Y50337498D01*
X66974672Y50121624D01*
X67139102Y49929102D01*
X67142858Y49925894D01*
X67142865Y49925887D01*
X67178080Y49895810D01*
X67216889Y49836359D01*
X67217395Y49765365D01*
X67178080Y49704190D01*
X67142865Y49674113D01*
X67142858Y49674106D01*
X67139102Y49670898D01*
X66974672Y49478376D01*
X66842384Y49262502D01*
X66840491Y49257932D01*
X66840489Y49257928D01*
X66747389Y49033164D01*
X66745495Y49028591D01*
X66686391Y48782403D01*
X66666526Y48530000D01*
X66686391Y48277597D01*
X66687545Y48272790D01*
X66687546Y48272784D01*
X66714897Y48158861D01*
X66745495Y48031409D01*
X66747388Y48026838D01*
X66747389Y48026836D01*
X66839649Y47804102D01*
X66842384Y47797498D01*
X66974672Y47581624D01*
X67139102Y47389102D01*
X67142858Y47385894D01*
X67142865Y47385887D01*
X67178080Y47355810D01*
X67216889Y47296359D01*
X67217395Y47225365D01*
X67178080Y47164190D01*
X67142865Y47134113D01*
X67142858Y47134106D01*
X67139102Y47130898D01*
X67007853Y46977225D01*
X66999691Y46967669D01*
X66940240Y46928860D01*
X66903880Y46923500D01*
X63458858Y46923500D01*
X63390737Y46943502D01*
X63369763Y46960405D01*
X60924049Y49406119D01*
X60911207Y49421154D01*
X60902547Y49433074D01*
X60850247Y49480165D01*
X60845462Y49484706D01*
X60830491Y49499677D01*
X60814024Y49513012D01*
X60809009Y49517296D01*
X60761628Y49559958D01*
X60761627Y49559959D01*
X60756720Y49564377D01*
X60751007Y49567675D01*
X60751002Y49567679D01*
X60743965Y49571741D01*
X60727667Y49582942D01*
X60721354Y49588054D01*
X60716221Y49592211D01*
X60653500Y49624170D01*
X60647730Y49627303D01*
X60592499Y49659191D01*
X60592493Y49659194D01*
X60586780Y49662492D01*
X60580507Y49664530D01*
X60580501Y49664533D01*
X60572766Y49667046D01*
X60554507Y49674609D01*
X60547257Y49678303D01*
X60541379Y49681298D01*
X60473384Y49699517D01*
X60467083Y49701384D01*
X60400155Y49723130D01*
X60393594Y49723820D01*
X60393592Y49723820D01*
X60385503Y49724670D01*
X60366068Y49728272D01*
X60351836Y49732086D01*
X60345236Y49732432D01*
X60345235Y49732432D01*
X60281565Y49735769D01*
X60274991Y49736286D01*
X60257196Y49738156D01*
X60257194Y49738156D01*
X60253922Y49738500D01*
X60232744Y49738500D01*
X60226150Y49738673D01*
X60162467Y49742011D01*
X60162462Y49742011D01*
X60155875Y49742356D01*
X60149359Y49741324D01*
X60141322Y49740051D01*
X60121611Y49738500D01*
X57644500Y49738500D01*
X57576379Y49758502D01*
X57529886Y49812158D01*
X57518500Y49864500D01*
X57518500Y50291502D01*
X57518307Y50293958D01*
X57516067Y50322421D01*
X57516066Y50322426D01*
X57515562Y50328831D01*
X57469145Y50488601D01*
X57438252Y50540838D01*
X57388491Y50624980D01*
X57388489Y50624983D01*
X57384453Y50631807D01*
X57266807Y50749453D01*
X57259983Y50753489D01*
X57259980Y50753491D01*
X57130427Y50830108D01*
X57130428Y50830108D01*
X57123601Y50834145D01*
X57115990Y50836356D01*
X57115988Y50836357D01*
X57063769Y50851528D01*
X56963831Y50880562D01*
X56957426Y50881066D01*
X56957421Y50881067D01*
X56928958Y50883307D01*
X56928950Y50883307D01*
X56926502Y50883500D01*
X55143498Y50883500D01*
X55141050Y50883307D01*
X55141042Y50883307D01*
X55112579Y50881067D01*
X55112574Y50881066D01*
X55106169Y50880562D01*
X55006231Y50851528D01*
X54954012Y50836357D01*
X54954010Y50836356D01*
X54946399Y50834145D01*
X54939572Y50830108D01*
X54939573Y50830108D01*
X54810020Y50753491D01*
X54810017Y50753489D01*
X54803193Y50749453D01*
X54685547Y50631807D01*
X54681511Y50624983D01*
X54681509Y50624980D01*
X54631748Y50540838D01*
X54600855Y50488601D01*
X54554438Y50328831D01*
X54553934Y50322426D01*
X54553933Y50322421D01*
X54551693Y50293958D01*
X54551500Y50291502D01*
X54551500Y49858498D01*
X54551693Y49856050D01*
X54551693Y49856042D01*
X54552415Y49846878D01*
X54554438Y49821169D01*
X54579249Y49735769D01*
X54597506Y49672928D01*
X54600855Y49661399D01*
X54685547Y49518193D01*
X54688229Y49515511D01*
X54713502Y49451139D01*
X54699600Y49381516D01*
X54689428Y49365688D01*
X54685547Y49361807D01*
X54600855Y49218601D01*
X54554438Y49058831D01*
X54553934Y49052426D01*
X54553933Y49052421D01*
X54551693Y49023958D01*
X54551500Y49021502D01*
X54551500Y48588498D01*
X54554438Y48551169D01*
X54600855Y48391399D01*
X54604892Y48384573D01*
X54681509Y48255020D01*
X54681511Y48255017D01*
X54685547Y48248193D01*
X54803193Y48130547D01*
X54810017Y48126511D01*
X54810020Y48126509D01*
X54902826Y48071624D01*
X54946399Y48045855D01*
X54954010Y48043644D01*
X54954012Y48043643D01*
X54996123Y48031409D01*
X55106169Y47999438D01*
X55112574Y47998934D01*
X55112579Y47998933D01*
X55141042Y47996693D01*
X55141050Y47996693D01*
X55143498Y47996500D01*
X55534602Y47996500D01*
X55597602Y47979619D01*
X55653220Y47947508D01*
X55659506Y47945466D01*
X55659505Y47945466D01*
X55833566Y47888910D01*
X55833567Y47888910D01*
X55839845Y47886870D01*
X55846408Y47886180D01*
X55846409Y47886180D01*
X55869405Y47883763D01*
X55986078Y47871500D01*
X59766142Y47871500D01*
X59834263Y47851498D01*
X59855237Y47834595D01*
X62300951Y45388881D01*
X62313790Y45373849D01*
X62322453Y45361926D01*
X62327363Y45357505D01*
X62327364Y45357504D01*
X62374753Y45314835D01*
X62379538Y45310294D01*
X62394509Y45295323D01*
X62397073Y45293247D01*
X62410976Y45281988D01*
X62415991Y45277704D01*
X62443119Y45253278D01*
X62468280Y45230623D01*
X62473993Y45227325D01*
X62473998Y45227321D01*
X62481035Y45223259D01*
X62497332Y45212058D01*
X62508779Y45202789D01*
X62571500Y45170830D01*
X62577270Y45167697D01*
X62632501Y45135809D01*
X62632507Y45135806D01*
X62638220Y45132508D01*
X62644493Y45130470D01*
X62644499Y45130467D01*
X62652234Y45127954D01*
X62670492Y45120391D01*
X62683621Y45113702D01*
X62689997Y45111994D01*
X62689996Y45111994D01*
X62751598Y45095488D01*
X62757923Y45093614D01*
X62818563Y45073911D01*
X62824845Y45071870D01*
X62839504Y45070329D01*
X62858940Y45066726D01*
X62866784Y45064624D01*
X62866787Y45064623D01*
X62873164Y45062915D01*
X62879758Y45062569D01*
X62879761Y45062569D01*
X62943416Y45059233D01*
X62949990Y45058716D01*
X62967804Y45056844D01*
X62967806Y45056844D01*
X62971078Y45056500D01*
X62992275Y45056500D01*
X62998869Y45056327D01*
X63062533Y45052990D01*
X63062538Y45052990D01*
X63069125Y45052645D01*
X63083673Y45054949D01*
X63103382Y45056500D01*
X66903880Y45056500D01*
X66972001Y45036498D01*
X66999690Y45012332D01*
X67139102Y44849102D01*
X67331624Y44684672D01*
X67547498Y44552384D01*
X67552068Y44550491D01*
X67552072Y44550489D01*
X67738827Y44473133D01*
X67781409Y44455495D01*
X67825033Y44445022D01*
X68022784Y44397546D01*
X68022790Y44397545D01*
X68027597Y44396391D01*
X68280000Y44376526D01*
X68532403Y44396391D01*
X68537210Y44397545D01*
X68537216Y44397546D01*
X68734967Y44445022D01*
X68778591Y44455495D01*
X68821173Y44473133D01*
X69007928Y44550489D01*
X69007932Y44550491D01*
X69012502Y44552384D01*
X69228376Y44684672D01*
X69420898Y44849102D01*
X69424106Y44852858D01*
X69424113Y44852865D01*
X69454190Y44888080D01*
X69513641Y44926889D01*
X69584635Y44927395D01*
X69645810Y44888080D01*
X69675887Y44852865D01*
X69675894Y44852858D01*
X69679102Y44849102D01*
X69682858Y44845894D01*
X69682865Y44845887D01*
X69718080Y44815810D01*
X69756889Y44756359D01*
X69757395Y44685365D01*
X69718080Y44624190D01*
X69682865Y44594113D01*
X69682858Y44594106D01*
X69679102Y44590898D01*
X69514672Y44398376D01*
X69382384Y44182502D01*
X69380491Y44177932D01*
X69380489Y44177928D01*
X69287389Y43953164D01*
X69285495Y43948591D01*
X69226391Y43702403D01*
X69206526Y43450000D01*
X69226391Y43197597D01*
X69227545Y43192790D01*
X69227546Y43192784D01*
X69259017Y43061697D01*
X69285495Y42951409D01*
X69287388Y42946838D01*
X69287389Y42946836D01*
X69379649Y42724102D01*
X69382384Y42717498D01*
X69514672Y42501624D01*
X69679102Y42309102D01*
X69682858Y42305894D01*
X69682865Y42305887D01*
X69718080Y42275810D01*
X69756889Y42216359D01*
X69757395Y42145365D01*
X69718080Y42084190D01*
X69682865Y42054113D01*
X69682858Y42054106D01*
X69679102Y42050898D01*
X69675894Y42047142D01*
X69675887Y42047135D01*
X69645810Y42011920D01*
X69586359Y41973111D01*
X69515365Y41972605D01*
X69454190Y42011920D01*
X69424113Y42047135D01*
X69424106Y42047142D01*
X69420898Y42050898D01*
X69228376Y42215328D01*
X69012502Y42347616D01*
X69007932Y42349509D01*
X69007928Y42349511D01*
X68783164Y42442611D01*
X68783162Y42442612D01*
X68778591Y42444505D01*
X68689482Y42465898D01*
X68537216Y42502454D01*
X68537210Y42502455D01*
X68532403Y42503609D01*
X68280000Y42523474D01*
X68027597Y42503609D01*
X68022790Y42502455D01*
X68022784Y42502454D01*
X67870518Y42465898D01*
X67781409Y42444505D01*
X67776838Y42442612D01*
X67776836Y42442611D01*
X67552072Y42349511D01*
X67552068Y42349509D01*
X67547498Y42347616D01*
X67331624Y42215328D01*
X67139102Y42050898D01*
X67000424Y41888527D01*
X66999691Y41887669D01*
X66940240Y41848860D01*
X66903880Y41843500D01*
X64378858Y41843500D01*
X64310737Y41863502D01*
X64289763Y41880405D01*
X60574049Y45596119D01*
X60561207Y45611154D01*
X60552547Y45623074D01*
X60500247Y45670165D01*
X60495462Y45674706D01*
X60480491Y45689677D01*
X60464024Y45703012D01*
X60459009Y45707296D01*
X60411628Y45749958D01*
X60411627Y45749959D01*
X60406720Y45754377D01*
X60401007Y45757675D01*
X60401002Y45757679D01*
X60393965Y45761741D01*
X60377667Y45772942D01*
X60371354Y45778054D01*
X60366221Y45782211D01*
X60303500Y45814170D01*
X60297730Y45817303D01*
X60242499Y45849191D01*
X60242493Y45849194D01*
X60236780Y45852492D01*
X60230507Y45854530D01*
X60230501Y45854533D01*
X60222766Y45857046D01*
X60204507Y45864609D01*
X60197257Y45868303D01*
X60191379Y45871298D01*
X60123384Y45889517D01*
X60117083Y45891384D01*
X60050155Y45913130D01*
X60043594Y45913820D01*
X60043592Y45913820D01*
X60035503Y45914670D01*
X60016068Y45918272D01*
X60001836Y45922086D01*
X59995236Y45922432D01*
X59995235Y45922432D01*
X59931565Y45925769D01*
X59924991Y45926286D01*
X59907196Y45928156D01*
X59907194Y45928156D01*
X59903922Y45928500D01*
X59882744Y45928500D01*
X59876150Y45928673D01*
X59812467Y45932011D01*
X59812462Y45932011D01*
X59805875Y45932356D01*
X59799359Y45931324D01*
X59791322Y45930051D01*
X59771611Y45928500D01*
X55986078Y45928500D01*
X55869405Y45916237D01*
X55846409Y45913820D01*
X55846408Y45913820D01*
X55839845Y45913130D01*
X55833567Y45911090D01*
X55833566Y45911090D01*
X55767165Y45889515D01*
X55653220Y45852492D01*
X55647498Y45849189D01*
X55647497Y45849188D01*
X55597602Y45820381D01*
X55534602Y45803500D01*
X55143498Y45803500D01*
X55141050Y45803307D01*
X55141042Y45803307D01*
X55112579Y45801067D01*
X55112574Y45801066D01*
X55106169Y45800562D01*
X55011099Y45772942D01*
X54954012Y45756357D01*
X54954010Y45756356D01*
X54946399Y45754145D01*
X54939572Y45750108D01*
X54939573Y45750108D01*
X54810020Y45673491D01*
X54810017Y45673489D01*
X54803193Y45669453D01*
X54685547Y45551807D01*
X54681511Y45544983D01*
X54681509Y45544980D01*
X54647123Y45486836D01*
X54600855Y45408601D01*
X54598644Y45400990D01*
X54598643Y45400988D01*
X54595126Y45388881D01*
X54554438Y45248831D01*
X54553934Y45242426D01*
X54553933Y45242421D01*
X54553005Y45230623D01*
X54551500Y45211502D01*
X54551500Y44778498D01*
X54551693Y44776050D01*
X54551693Y44776042D01*
X54552847Y44761389D01*
X54554438Y44741169D01*
X54575716Y44667928D01*
X54597506Y44592928D01*
X54600855Y44581399D01*
X54685547Y44438193D01*
X54688229Y44435511D01*
X54713502Y44371139D01*
X54699600Y44301516D01*
X54689428Y44285688D01*
X54685547Y44281807D01*
X54600855Y44138601D01*
X54554438Y43978831D01*
X54553934Y43972426D01*
X54553933Y43972421D01*
X54551693Y43943958D01*
X54551500Y43941502D01*
X54551500Y43508498D01*
X54554438Y43471169D01*
X54600855Y43311399D01*
X54685547Y43168193D01*
X54688229Y43165511D01*
X54713502Y43101139D01*
X54699600Y43031516D01*
X54689428Y43015688D01*
X54685547Y43011807D01*
X54600855Y42868601D01*
X54554438Y42708831D01*
X54553934Y42702426D01*
X54553933Y42702421D01*
X54551693Y42673958D01*
X54551500Y42671502D01*
X54551500Y42238498D01*
X54551693Y42236050D01*
X54551693Y42236042D01*
X54553324Y42215328D01*
X54554438Y42201169D01*
X54579413Y42115205D01*
X54597506Y42052928D01*
X54600855Y42041399D01*
X54604892Y42034573D01*
X54681509Y41905020D01*
X54681511Y41905017D01*
X54685547Y41898193D01*
X54803193Y41780547D01*
X54810017Y41776511D01*
X54810020Y41776509D01*
X54875983Y41737499D01*
X54946399Y41695855D01*
X54954010Y41693644D01*
X54954012Y41693643D01*
X54979016Y41686379D01*
X55106169Y41649438D01*
X55112574Y41648934D01*
X55112579Y41648933D01*
X55141042Y41646693D01*
X55141050Y41646693D01*
X55143498Y41646500D01*
X55534602Y41646500D01*
X55597602Y41629619D01*
X55653220Y41597508D01*
X55686065Y41586836D01*
X55833566Y41538910D01*
X55833567Y41538910D01*
X55839845Y41536870D01*
X55846408Y41536180D01*
X55846409Y41536180D01*
X55869405Y41533763D01*
X55986078Y41521500D01*
X57326142Y41521500D01*
X57394263Y41501498D01*
X57415237Y41484595D01*
X63670951Y35228881D01*
X63683790Y35213849D01*
X63692453Y35201926D01*
X63697363Y35197505D01*
X63697364Y35197504D01*
X63744753Y35154835D01*
X63749538Y35150294D01*
X63764509Y35135323D01*
X63780969Y35121994D01*
X63785962Y35117730D01*
X63838280Y35070623D01*
X63843995Y35067324D01*
X63844001Y35067319D01*
X63851046Y35063251D01*
X63867330Y35052059D01*
X63873640Y35046950D01*
X63873648Y35046945D01*
X63878780Y35042789D01*
X63884664Y35039791D01*
X63884667Y35039789D01*
X63941483Y35010839D01*
X63947279Y35007692D01*
X64002497Y34975812D01*
X64008220Y34972508D01*
X64022235Y34967954D01*
X64040493Y34960391D01*
X64053621Y34953702D01*
X64121616Y34935483D01*
X64127917Y34933616D01*
X64194845Y34911870D01*
X64201406Y34911180D01*
X64201408Y34911180D01*
X64209497Y34910330D01*
X64228932Y34906728D01*
X64243164Y34902914D01*
X64249764Y34902568D01*
X64249765Y34902568D01*
X64313435Y34899231D01*
X64320009Y34898714D01*
X64337804Y34896844D01*
X64337806Y34896844D01*
X64341078Y34896500D01*
X64362256Y34896500D01*
X64368850Y34896327D01*
X64432533Y34892989D01*
X64432538Y34892989D01*
X64439125Y34892644D01*
X64453679Y34894949D01*
X64473389Y34896500D01*
X66903880Y34896500D01*
X66972001Y34876498D01*
X66999690Y34852332D01*
X67139102Y34689102D01*
X67142858Y34685894D01*
X67142865Y34685887D01*
X67178080Y34655810D01*
X67216889Y34596359D01*
X67217395Y34525365D01*
X67178080Y34464190D01*
X67142865Y34434113D01*
X67142858Y34434106D01*
X67139102Y34430898D01*
X67010001Y34279740D01*
X66999691Y34267669D01*
X66940240Y34228860D01*
X66903880Y34223500D01*
X49268858Y34223500D01*
X49200737Y34243502D01*
X49179763Y34260405D01*
X48670405Y34769763D01*
X48636379Y34832075D01*
X48633500Y34858858D01*
X48633500Y35146611D01*
X48635051Y35166322D01*
X48636324Y35174359D01*
X48637356Y35180875D01*
X48633673Y35251150D01*
X48633500Y35257744D01*
X48633500Y35278922D01*
X48633156Y35282196D01*
X48631286Y35299991D01*
X48630769Y35306565D01*
X48627432Y35370234D01*
X48627086Y35376835D01*
X48623272Y35391067D01*
X48619670Y35410502D01*
X48618820Y35418593D01*
X48618819Y35418596D01*
X48618130Y35425155D01*
X48599667Y35481979D01*
X48593500Y35520915D01*
X48593500Y41001142D01*
X48613502Y41069263D01*
X48630405Y41090237D01*
X49024763Y41484595D01*
X49087075Y41518621D01*
X49113858Y41521500D01*
X51133922Y41521500D01*
X51250595Y41533763D01*
X51273591Y41536180D01*
X51273592Y41536180D01*
X51280155Y41536870D01*
X51286433Y41538910D01*
X51286434Y41538910D01*
X51433935Y41586836D01*
X51466780Y41597508D01*
X51522398Y41629619D01*
X51585398Y41646500D01*
X51976502Y41646500D01*
X51978950Y41646693D01*
X51978958Y41646693D01*
X52007421Y41648933D01*
X52007426Y41648934D01*
X52013831Y41649438D01*
X52140984Y41686379D01*
X52165988Y41693643D01*
X52165990Y41693644D01*
X52173601Y41695855D01*
X52244017Y41737499D01*
X52309980Y41776509D01*
X52309983Y41776511D01*
X52316807Y41780547D01*
X52434453Y41898193D01*
X52438489Y41905017D01*
X52438491Y41905020D01*
X52515108Y42034573D01*
X52519145Y42041399D01*
X52522495Y42052928D01*
X52540587Y42115205D01*
X52565562Y42201169D01*
X52566677Y42215328D01*
X52568307Y42236042D01*
X52568307Y42236050D01*
X52568500Y42238498D01*
X52568500Y42671502D01*
X52568307Y42673958D01*
X52566067Y42702421D01*
X52566066Y42702426D01*
X52565562Y42708831D01*
X52519145Y42868601D01*
X52434453Y43011807D01*
X52431771Y43014489D01*
X52406498Y43078861D01*
X52420400Y43148484D01*
X52430572Y43164312D01*
X52434453Y43168193D01*
X52519145Y43311399D01*
X52565562Y43471169D01*
X52568500Y43508498D01*
X52568500Y43941502D01*
X52568307Y43943958D01*
X52566067Y43972421D01*
X52566066Y43972426D01*
X52565562Y43978831D01*
X52519145Y44138601D01*
X52434453Y44281807D01*
X52431771Y44284489D01*
X52406498Y44348861D01*
X52420400Y44418484D01*
X52430572Y44434312D01*
X52434453Y44438193D01*
X52519145Y44581399D01*
X52522495Y44592928D01*
X52544284Y44667928D01*
X52565562Y44741169D01*
X52567154Y44761389D01*
X52568307Y44776042D01*
X52568307Y44776050D01*
X52568500Y44778498D01*
X52568500Y45211502D01*
X52566995Y45230623D01*
X52566067Y45242421D01*
X52566066Y45242426D01*
X52565562Y45248831D01*
X52524874Y45388881D01*
X52521357Y45400988D01*
X52521356Y45400990D01*
X52519145Y45408601D01*
X52434453Y45551807D01*
X52431771Y45554489D01*
X52406498Y45618861D01*
X52420400Y45688484D01*
X52430572Y45704312D01*
X52434453Y45708193D01*
X52519145Y45851399D01*
X52565562Y46011169D01*
X52568500Y46048498D01*
X52568500Y46481502D01*
X52568307Y46483958D01*
X52566067Y46512421D01*
X52566066Y46512426D01*
X52565562Y46518831D01*
X52519145Y46678601D01*
X52434453Y46821807D01*
X52431771Y46824489D01*
X52406498Y46888861D01*
X52420400Y46958484D01*
X52430572Y46974312D01*
X52434453Y46978193D01*
X52519145Y47121399D01*
X52522495Y47132928D01*
X52544284Y47207928D01*
X52565562Y47281169D01*
X52566677Y47295328D01*
X52568307Y47316042D01*
X52568307Y47316050D01*
X52568500Y47318498D01*
X52568500Y47751502D01*
X52568307Y47753958D01*
X52566067Y47782421D01*
X52566066Y47782426D01*
X52565562Y47788831D01*
X52519145Y47948601D01*
X52434453Y48091807D01*
X52431771Y48094489D01*
X52406498Y48158861D01*
X52420400Y48228484D01*
X52430572Y48244312D01*
X52434453Y48248193D01*
X52519145Y48391399D01*
X52565562Y48551169D01*
X52568500Y48588498D01*
X52568500Y49021502D01*
X52568307Y49023958D01*
X52566067Y49052421D01*
X52566066Y49052426D01*
X52565562Y49058831D01*
X52519145Y49218601D01*
X52434453Y49361807D01*
X52431771Y49364489D01*
X52406498Y49428861D01*
X52420400Y49498484D01*
X52430572Y49514312D01*
X52434453Y49518193D01*
X52519145Y49661399D01*
X52522495Y49672928D01*
X52540751Y49735769D01*
X52565562Y49821169D01*
X52567586Y49846878D01*
X52568307Y49856042D01*
X52568307Y49856050D01*
X52568500Y49858498D01*
X52568500Y50291502D01*
X52568307Y50293958D01*
X52566067Y50322421D01*
X52566066Y50322426D01*
X52565562Y50328831D01*
X52519145Y50488601D01*
X52434453Y50631807D01*
X52431771Y50634489D01*
X52406498Y50698861D01*
X52420400Y50768484D01*
X52430572Y50784312D01*
X52434453Y50788193D01*
X52519145Y50931399D01*
X52565562Y51091169D01*
X52568500Y51128498D01*
X52568500Y51561502D01*
X52568307Y51563958D01*
X52566067Y51592421D01*
X52566066Y51592426D01*
X52565562Y51598831D01*
X52519145Y51758601D01*
X52490686Y51806722D01*
X52438491Y51894980D01*
X52438489Y51894983D01*
X52434453Y51901807D01*
X52316807Y52019453D01*
X52309983Y52023489D01*
X52309980Y52023491D01*
X52180427Y52100108D01*
X52180428Y52100108D01*
X52173601Y52104145D01*
X52165990Y52106356D01*
X52165988Y52106357D01*
X52113769Y52121528D01*
X52013831Y52150562D01*
X52007426Y52151066D01*
X52007421Y52151067D01*
X51978958Y52153307D01*
X51978950Y52153307D01*
X51976502Y52153500D01*
X51585398Y52153500D01*
X51522398Y52170381D01*
X51472503Y52199188D01*
X51472502Y52199189D01*
X51466780Y52202492D01*
X51389059Y52227745D01*
X51286434Y52261090D01*
X51286433Y52261090D01*
X51280155Y52263130D01*
X51273592Y52263820D01*
X51273591Y52263820D01*
X51250595Y52266237D01*
X51133922Y52278500D01*
X47683858Y52278500D01*
X47615737Y52298502D01*
X47594763Y52315405D01*
X45214049Y54696119D01*
X45201207Y54711154D01*
X45192547Y54723074D01*
X45140247Y54770165D01*
X45135462Y54774706D01*
X45120491Y54789677D01*
X45104024Y54803012D01*
X45099009Y54807296D01*
X45051628Y54849958D01*
X45051627Y54849959D01*
X45046720Y54854377D01*
X45041007Y54857675D01*
X45041002Y54857679D01*
X45033965Y54861741D01*
X45017667Y54872942D01*
X45011354Y54878054D01*
X45006221Y54882211D01*
X44943500Y54914170D01*
X44937730Y54917303D01*
X44882499Y54949191D01*
X44882493Y54949194D01*
X44876780Y54952492D01*
X44870507Y54954530D01*
X44870501Y54954533D01*
X44862766Y54957046D01*
X44844507Y54964609D01*
X44837257Y54968303D01*
X44831379Y54971298D01*
X44763384Y54989517D01*
X44757083Y54991384D01*
X44690155Y55013130D01*
X44683594Y55013820D01*
X44683592Y55013820D01*
X44675503Y55014670D01*
X44656068Y55018272D01*
X44641836Y55022086D01*
X44635236Y55022432D01*
X44635235Y55022432D01*
X44571565Y55025769D01*
X44564991Y55026286D01*
X44547196Y55028156D01*
X44547194Y55028156D01*
X44543922Y55028500D01*
X44522744Y55028500D01*
X44516150Y55028673D01*
X44452467Y55032011D01*
X44452462Y55032011D01*
X44445875Y55032356D01*
X44439359Y55031324D01*
X44431322Y55030051D01*
X44411611Y55028500D01*
X41606333Y55028500D01*
X41538212Y55048502D01*
X41510522Y55072670D01*
X41434116Y55162131D01*
X41434111Y55162136D01*
X41430898Y55165898D01*
X41238376Y55330328D01*
X41022502Y55462616D01*
X41017932Y55464509D01*
X41017928Y55464511D01*
X40793164Y55557611D01*
X40793162Y55557612D01*
X40788591Y55559505D01*
X40703968Y55579821D01*
X40547216Y55617454D01*
X40547210Y55617455D01*
X40542403Y55618609D01*
X40290000Y55638474D01*
X40037597Y55618609D01*
X40032790Y55617455D01*
X40032784Y55617454D01*
X39876032Y55579821D01*
X39791409Y55559505D01*
X39786838Y55557612D01*
X39786836Y55557611D01*
X39562072Y55464511D01*
X39562068Y55464509D01*
X39557498Y55462616D01*
X39341624Y55330328D01*
X39149102Y55165898D01*
X38984672Y54973376D01*
X38852384Y54757502D01*
X38850491Y54752932D01*
X38850489Y54752928D01*
X38826958Y54696119D01*
X38755495Y54523591D01*
X38754340Y54518779D01*
X38710922Y54337928D01*
X38696391Y54277403D01*
X38676526Y54025000D01*
X38696391Y53772597D01*
X38755495Y53526409D01*
X38757388Y53521838D01*
X38757389Y53521836D01*
X38827413Y53352784D01*
X38852384Y53292498D01*
X38984672Y53076624D01*
X39149102Y52884102D01*
X39152858Y52880894D01*
X39152865Y52880887D01*
X39188080Y52850810D01*
X39226889Y52791359D01*
X39227395Y52720365D01*
X39188080Y52659190D01*
X39152865Y52629113D01*
X39152858Y52629106D01*
X39149102Y52625898D01*
X38984672Y52433376D01*
X38852384Y52217502D01*
X38850491Y52212932D01*
X38850489Y52212928D01*
X38769903Y52018376D01*
X38755495Y51983591D01*
X38754340Y51978779D01*
X38703119Y51765427D01*
X38696391Y51737403D01*
X38676526Y51485000D01*
X38696391Y51232597D01*
X38697545Y51227790D01*
X38697546Y51227784D01*
X38734243Y51074930D01*
X38755495Y50986409D01*
X38757388Y50981838D01*
X38757389Y50981836D01*
X38838000Y50787225D01*
X38852384Y50752498D01*
X38984672Y50536624D01*
X39149102Y50344102D01*
X39152858Y50340894D01*
X39152865Y50340887D01*
X39188080Y50310810D01*
X39226889Y50251359D01*
X39227395Y50180365D01*
X39188080Y50119190D01*
X39152865Y50089113D01*
X39152858Y50089106D01*
X39149102Y50085898D01*
X38984672Y49893376D01*
X38852384Y49677502D01*
X38850491Y49672932D01*
X38850489Y49672928D01*
X38760853Y49456526D01*
X38755495Y49443591D01*
X38749558Y49418861D01*
X38703119Y49225427D01*
X38696391Y49197403D01*
X38676526Y48945000D01*
X38696391Y48692597D01*
X38697545Y48687790D01*
X38697546Y48687784D01*
X38734243Y48534930D01*
X38755495Y48446409D01*
X38757388Y48441838D01*
X38757389Y48441836D01*
X38838000Y48247225D01*
X38852384Y48212498D01*
X38984672Y47996624D01*
X39149102Y47804102D01*
X39152858Y47800894D01*
X39152865Y47800887D01*
X39188080Y47770810D01*
X39226889Y47711359D01*
X39227395Y47640365D01*
X39188080Y47579190D01*
X39152865Y47549113D01*
X39152858Y47549106D01*
X39149102Y47545898D01*
X38984672Y47353376D01*
X38852384Y47137502D01*
X38850491Y47132932D01*
X38850489Y47132928D01*
X38757389Y46908164D01*
X38755495Y46903591D01*
X38754340Y46898779D01*
X38703119Y46685427D01*
X38696391Y46657403D01*
X38676526Y46405000D01*
X38696391Y46152597D01*
X38697545Y46147790D01*
X38697546Y46147784D01*
X38734243Y45994930D01*
X38755495Y45906409D01*
X38757388Y45901838D01*
X38757389Y45901836D01*
X38846236Y45687341D01*
X38852384Y45672498D01*
X38984672Y45456624D01*
X39149102Y45264102D01*
X39152858Y45260894D01*
X39152865Y45260887D01*
X39188080Y45230810D01*
X39226889Y45171359D01*
X39227395Y45100365D01*
X39188080Y45039190D01*
X39152865Y45009113D01*
X39152858Y45009106D01*
X39149102Y45005898D01*
X38984672Y44813376D01*
X38852384Y44597502D01*
X38850491Y44592932D01*
X38850489Y44592928D01*
X38760853Y44376526D01*
X38755495Y44363591D01*
X38754340Y44358779D01*
X38703119Y44145427D01*
X38696391Y44117403D01*
X38676526Y43865000D01*
X38696391Y43612597D01*
X38697545Y43607790D01*
X38697546Y43607784D01*
X38734243Y43454930D01*
X38755495Y43366409D01*
X38757388Y43361838D01*
X38757389Y43361836D01*
X38839626Y43163299D01*
X38852384Y43132498D01*
X38984672Y42916624D01*
X39149102Y42724102D01*
X39152858Y42720894D01*
X39152865Y42720887D01*
X39188080Y42690810D01*
X39226889Y42631359D01*
X39227395Y42560365D01*
X39188080Y42499190D01*
X39152865Y42469113D01*
X39152858Y42469106D01*
X39149102Y42465898D01*
X38984672Y42273376D01*
X38852384Y42057502D01*
X38850491Y42052932D01*
X38850489Y42052928D01*
X38757389Y41828164D01*
X38755495Y41823591D01*
X38742631Y41770007D01*
X38698656Y41586836D01*
X38696391Y41577403D01*
X38676526Y41325000D01*
X38696391Y41072597D01*
X38697545Y41067790D01*
X38697546Y41067784D01*
X38713763Y41000237D01*
X38755495Y40826409D01*
X38757388Y40821838D01*
X38757389Y40821836D01*
X38827413Y40652784D01*
X38852384Y40592498D01*
X38984672Y40376624D01*
X39149102Y40184102D01*
X39152858Y40180894D01*
X39152865Y40180887D01*
X39188080Y40150810D01*
X39226889Y40091359D01*
X39227395Y40020365D01*
X39188080Y39959190D01*
X39152865Y39929113D01*
X39152858Y39929106D01*
X39149102Y39925898D01*
X38984672Y39733376D01*
X38852384Y39517502D01*
X38850491Y39512932D01*
X38850489Y39512928D01*
X38760853Y39296526D01*
X38755495Y39283591D01*
X38754340Y39278779D01*
X38700653Y39055155D01*
X38696391Y39037403D01*
X38676526Y38785000D01*
X34283474Y38785000D01*
X34263609Y39037403D01*
X34259348Y39055155D01*
X34205660Y39278779D01*
X34204505Y39283591D01*
X34199147Y39296526D01*
X34109511Y39512928D01*
X34109509Y39512932D01*
X34107616Y39517502D01*
X33975328Y39733376D01*
X33810898Y39925898D01*
X33807142Y39929106D01*
X33807135Y39929113D01*
X33771920Y39959190D01*
X33733111Y40018641D01*
X33732605Y40089635D01*
X33771920Y40150810D01*
X33807135Y40180887D01*
X33807142Y40180894D01*
X33810898Y40184102D01*
X33975328Y40376624D01*
X34107616Y40592498D01*
X34132588Y40652784D01*
X34202611Y40821836D01*
X34202612Y40821838D01*
X34204505Y40826409D01*
X34246237Y41000237D01*
X34262454Y41067784D01*
X34262455Y41067790D01*
X34263609Y41072597D01*
X34283474Y41325000D01*
X34263609Y41577403D01*
X34261345Y41586836D01*
X34217369Y41770007D01*
X34204505Y41823591D01*
X34202611Y41828164D01*
X34109511Y42052928D01*
X34109509Y42052932D01*
X34107616Y42057502D01*
X33975328Y42273376D01*
X33810898Y42465898D01*
X33807142Y42469106D01*
X33807135Y42469113D01*
X33771920Y42499190D01*
X33733111Y42558641D01*
X33732605Y42629635D01*
X33771920Y42690810D01*
X33807135Y42720887D01*
X33807142Y42720894D01*
X33810898Y42724102D01*
X33975328Y42916624D01*
X34107616Y43132498D01*
X34120375Y43163299D01*
X34202611Y43361836D01*
X34202612Y43361838D01*
X34204505Y43366409D01*
X34225757Y43454930D01*
X34262454Y43607784D01*
X34262455Y43607790D01*
X34263609Y43612597D01*
X34283474Y43865000D01*
X34263609Y44117403D01*
X34256882Y44145427D01*
X34205660Y44358779D01*
X34204505Y44363591D01*
X34199147Y44376526D01*
X34109511Y44592928D01*
X34109509Y44592932D01*
X34107616Y44597502D01*
X33975328Y44813376D01*
X33810898Y45005898D01*
X33807142Y45009106D01*
X33807135Y45009113D01*
X33771920Y45039190D01*
X33733111Y45098641D01*
X33732605Y45169635D01*
X33771920Y45230810D01*
X33807135Y45260887D01*
X33807142Y45260894D01*
X33810898Y45264102D01*
X33975328Y45456624D01*
X34107616Y45672498D01*
X34113765Y45687341D01*
X34202611Y45901836D01*
X34202612Y45901838D01*
X34204505Y45906409D01*
X34225757Y45994930D01*
X34262454Y46147784D01*
X34262455Y46147790D01*
X34263609Y46152597D01*
X34283474Y46405000D01*
X34263609Y46657403D01*
X34256882Y46685427D01*
X34205660Y46898779D01*
X34204505Y46903591D01*
X34202611Y46908164D01*
X34109511Y47132928D01*
X34109509Y47132932D01*
X34107616Y47137502D01*
X33975328Y47353376D01*
X33810898Y47545898D01*
X33807142Y47549106D01*
X33807135Y47549113D01*
X33771920Y47579190D01*
X33733111Y47638641D01*
X33732605Y47709635D01*
X33771920Y47770810D01*
X33807135Y47800887D01*
X33807142Y47800894D01*
X33810898Y47804102D01*
X33975328Y47996624D01*
X34107616Y48212498D01*
X34122001Y48247225D01*
X34202611Y48441836D01*
X34202612Y48441838D01*
X34204505Y48446409D01*
X34225757Y48534930D01*
X34262454Y48687784D01*
X34262455Y48687790D01*
X34263609Y48692597D01*
X34283474Y48945000D01*
X34263609Y49197403D01*
X34256882Y49225427D01*
X34210442Y49418861D01*
X34204505Y49443591D01*
X34199147Y49456526D01*
X34109511Y49672928D01*
X34109509Y49672932D01*
X34107616Y49677502D01*
X33975328Y49893376D01*
X33810898Y50085898D01*
X33807142Y50089106D01*
X33807135Y50089113D01*
X33771920Y50119190D01*
X33733111Y50178641D01*
X33732605Y50249635D01*
X33771920Y50310810D01*
X33807135Y50340887D01*
X33807142Y50340894D01*
X33810898Y50344102D01*
X33975328Y50536624D01*
X34107616Y50752498D01*
X34122001Y50787225D01*
X34202611Y50981836D01*
X34202612Y50981838D01*
X34204505Y50986409D01*
X34225757Y51074930D01*
X34262454Y51227784D01*
X34262455Y51227790D01*
X34263609Y51232597D01*
X34283474Y51485000D01*
X34263609Y51737403D01*
X34256882Y51765427D01*
X34205660Y51978779D01*
X34204505Y51983591D01*
X34190097Y52018376D01*
X34109511Y52212928D01*
X34109509Y52212932D01*
X34107616Y52217502D01*
X33975328Y52433376D01*
X33810898Y52625898D01*
X33807142Y52629106D01*
X33807135Y52629113D01*
X33771920Y52659190D01*
X33733111Y52718641D01*
X33732605Y52789635D01*
X33771920Y52850810D01*
X33807135Y52880887D01*
X33807142Y52880894D01*
X33810898Y52884102D01*
X33975328Y53076624D01*
X34107616Y53292498D01*
X34132588Y53352784D01*
X34202611Y53521836D01*
X34202612Y53521838D01*
X34204505Y53526409D01*
X34263609Y53772597D01*
X34283474Y54025000D01*
X34263609Y54277403D01*
X34249079Y54337928D01*
X34205660Y54518779D01*
X34204505Y54523591D01*
X34133042Y54696119D01*
X34109511Y54752928D01*
X34109509Y54752932D01*
X34107616Y54757502D01*
X33975328Y54973376D01*
X33810898Y55165898D01*
X33618376Y55330328D01*
X33402502Y55462616D01*
X33397932Y55464509D01*
X33397928Y55464511D01*
X33173164Y55557611D01*
X33173162Y55557612D01*
X33168591Y55559505D01*
X33083968Y55579821D01*
X32927216Y55617454D01*
X32927210Y55617455D01*
X32922403Y55618609D01*
X32670000Y55638474D01*
X32417597Y55618609D01*
X32412790Y55617455D01*
X32412784Y55617454D01*
X32256032Y55579821D01*
X32171409Y55559505D01*
X32166838Y55557612D01*
X32166836Y55557611D01*
X31942072Y55464511D01*
X31942068Y55464509D01*
X31937498Y55462616D01*
X31721624Y55330328D01*
X31529102Y55165898D01*
X31398626Y55013130D01*
X31389691Y55002669D01*
X31330240Y54963860D01*
X31293880Y54958500D01*
X17080968Y54958500D01*
X17012847Y54978502D01*
X16973535Y55018665D01*
X16967402Y55028673D01*
X16955328Y55048376D01*
X16790898Y55240898D01*
X16598376Y55405328D01*
X16382502Y55537616D01*
X16377932Y55539509D01*
X16377928Y55539511D01*
X16153164Y55632611D01*
X16153162Y55632612D01*
X16148591Y55634505D01*
X16063968Y55654821D01*
X15907216Y55692454D01*
X15907210Y55692455D01*
X15902403Y55693609D01*
X15650000Y55713474D01*
X15397597Y55693609D01*
X15392790Y55692455D01*
X15392784Y55692454D01*
X15236032Y55654821D01*
X15151409Y55634505D01*
X15146838Y55632612D01*
X15146836Y55632611D01*
X14922072Y55539511D01*
X14922068Y55539509D01*
X14917498Y55537616D01*
X14701624Y55405328D01*
X14509102Y55240898D01*
X14344672Y55048376D01*
X14212384Y54832502D01*
X14210491Y54827932D01*
X14210489Y54827928D01*
X14155892Y54696119D01*
X14115495Y54598591D01*
X14056391Y54352403D01*
X14036526Y54100000D01*
X14056391Y53847597D01*
X14057545Y53842790D01*
X14057546Y53842784D01*
X14075552Y53767784D01*
X14115495Y53601409D01*
X14212384Y53367498D01*
X14344672Y53151624D01*
X14509102Y52959102D01*
X14512858Y52955894D01*
X14512865Y52955887D01*
X14548080Y52925810D01*
X14586889Y52866359D01*
X14587395Y52795365D01*
X14548080Y52734190D01*
X14512865Y52704113D01*
X14512858Y52704106D01*
X14509102Y52700898D01*
X14344672Y52508376D01*
X14212384Y52292502D01*
X14210491Y52287932D01*
X14210489Y52287928D01*
X14152847Y52148767D01*
X14115495Y52058591D01*
X14056391Y51812403D01*
X14036526Y51560000D01*
X14056391Y51307597D01*
X14057545Y51302790D01*
X14057546Y51302784D01*
X14075552Y51227784D01*
X14115495Y51061409D01*
X14117388Y51056838D01*
X14117389Y51056836D01*
X14209631Y50834145D01*
X14212384Y50827498D01*
X14344672Y50611624D01*
X14509102Y50419102D01*
X14512858Y50415894D01*
X14512865Y50415887D01*
X14548080Y50385810D01*
X14586889Y50326359D01*
X14587395Y50255365D01*
X14548080Y50194190D01*
X14512865Y50164113D01*
X14512858Y50164106D01*
X14509102Y50160898D01*
X14344672Y49968376D01*
X14212384Y49752502D01*
X14210491Y49747932D01*
X14210489Y49747928D01*
X14118159Y49525022D01*
X14115495Y49518591D01*
X14106270Y49480165D01*
X14058187Y49279883D01*
X14056391Y49272403D01*
X14036526Y49020000D01*
X14056391Y48767597D01*
X14057545Y48762790D01*
X14057546Y48762784D01*
X14075552Y48687784D01*
X14115495Y48521409D01*
X14212384Y48287498D01*
X14344672Y48071624D01*
X14509102Y47879102D01*
X14512858Y47875894D01*
X14512865Y47875887D01*
X14548080Y47845810D01*
X14586889Y47786359D01*
X14587395Y47715365D01*
X14548080Y47654190D01*
X14512865Y47624113D01*
X14512858Y47624106D01*
X14509102Y47620898D01*
X14344672Y47428376D01*
X14212384Y47212502D01*
X14210491Y47207932D01*
X14210489Y47207928D01*
X14118159Y46985022D01*
X14115495Y46978591D01*
X14056391Y46732403D01*
X14036526Y46480000D01*
X14056391Y46227597D01*
X14057545Y46222790D01*
X14057546Y46222784D01*
X14075552Y46147784D01*
X14115495Y45981409D01*
X14117388Y45976838D01*
X14117389Y45976836D01*
X14209631Y45754145D01*
X14212384Y45747498D01*
X14344672Y45531624D01*
X14509102Y45339102D01*
X14512858Y45335894D01*
X14512865Y45335887D01*
X14548080Y45305810D01*
X14586889Y45246359D01*
X14587395Y45175365D01*
X14548080Y45114190D01*
X14512865Y45084113D01*
X14512858Y45084106D01*
X14509102Y45080898D01*
X14505894Y45077142D01*
X14501391Y45071870D01*
X14344672Y44888376D01*
X14212384Y44672502D01*
X14210491Y44667932D01*
X14210489Y44667928D01*
X14135849Y44487731D01*
X14115495Y44438591D01*
X14056391Y44192403D01*
X14036526Y43940000D01*
X14056391Y43687597D01*
X14057545Y43682790D01*
X14057546Y43682784D01*
X14075552Y43607784D01*
X14115495Y43441409D01*
X14117388Y43436838D01*
X14117389Y43436836D01*
X14197820Y43242659D01*
X14212384Y43207498D01*
X14344672Y42991624D01*
X14509102Y42799102D01*
X14655627Y42673958D01*
X14672331Y42659691D01*
X14711140Y42600240D01*
X14716500Y42563880D01*
X14716500Y34119500D01*
X14696498Y34051379D01*
X14642842Y34004886D01*
X14590500Y33993500D01*
X11200201Y33993500D01*
X11132080Y34013502D01*
X11089313Y34059668D01*
X11077629Y34081322D01*
X11075516Y34085238D01*
X10914942Y34302638D01*
X10725338Y34495244D01*
X10546766Y34631526D01*
X10514028Y34656511D01*
X10514024Y34656513D01*
X10510487Y34659213D01*
X10274675Y34791273D01*
X10022609Y34888790D01*
X10018284Y34889793D01*
X10018279Y34889794D01*
X9912748Y34914254D01*
X9759318Y34949818D01*
X9490054Y34973139D01*
X9485619Y34972895D01*
X9485615Y34972895D01*
X9224634Y34958532D01*
X9224627Y34958531D01*
X9220191Y34958287D01*
X9105557Y34935485D01*
X8959484Y34906430D01*
X8959479Y34906429D01*
X8955112Y34905560D01*
X8950909Y34904084D01*
X8704315Y34817487D01*
X8704312Y34817486D01*
X8700107Y34816009D01*
X8696154Y34813956D01*
X8696148Y34813953D01*
X8652488Y34791273D01*
X8460264Y34691420D01*
X8456649Y34688837D01*
X8456643Y34688833D01*
X8243990Y34536869D01*
X8243986Y34536866D01*
X8240369Y34534281D01*
X8220829Y34515641D01*
X8049924Y34352605D01*
X8044808Y34347725D01*
X7877485Y34135476D01*
X7875253Y34131634D01*
X7875250Y34131629D01*
X7743974Y33905623D01*
X7743971Y33905616D01*
X7741736Y33901769D01*
X7640272Y33651265D01*
X7639201Y33646952D01*
X7639199Y33646947D01*
X7576189Y33393286D01*
X7575116Y33388965D01*
X7574662Y33384537D01*
X7574662Y33384535D01*
X7557358Y33215642D01*
X7547569Y33120101D01*
X478000Y33120101D01*
X478000Y61416000D01*
X498002Y61484121D01*
X551658Y61530614D01*
X604000Y61542000D01*
X86966000Y61542000D01*
X87034121Y61521998D01*
G37*
%TD.AperFunction*%
%TA.AperFunction,Conductor*%
G36*
X58569263Y22926498D02*
G01*
X58590237Y22909595D01*
X64050951Y17448881D01*
X64063790Y17433849D01*
X64072453Y17421926D01*
X64077363Y17417505D01*
X64077364Y17417504D01*
X64124753Y17374835D01*
X64129538Y17370294D01*
X64144509Y17355323D01*
X64147073Y17353247D01*
X64160976Y17341988D01*
X64165991Y17337704D01*
X64218280Y17290623D01*
X64223993Y17287325D01*
X64223998Y17287321D01*
X64231035Y17283259D01*
X64247332Y17272058D01*
X64258779Y17262789D01*
X64321500Y17230830D01*
X64327270Y17227697D01*
X64382501Y17195809D01*
X64382507Y17195806D01*
X64388220Y17192508D01*
X64394493Y17190470D01*
X64394499Y17190467D01*
X64402234Y17187954D01*
X64420492Y17180391D01*
X64433621Y17173702D01*
X64501616Y17155483D01*
X64507917Y17153616D01*
X64574845Y17131870D01*
X64581406Y17131180D01*
X64581408Y17131180D01*
X64589497Y17130330D01*
X64608932Y17126728D01*
X64623164Y17122914D01*
X64629764Y17122568D01*
X64629765Y17122568D01*
X64693435Y17119231D01*
X64700009Y17118714D01*
X64717804Y17116844D01*
X64717806Y17116844D01*
X64721078Y17116500D01*
X64742256Y17116500D01*
X64748850Y17116327D01*
X64812533Y17112989D01*
X64812538Y17112989D01*
X64819125Y17112644D01*
X64833679Y17114949D01*
X64853389Y17116500D01*
X66903880Y17116500D01*
X66972001Y17096498D01*
X66999690Y17072332D01*
X67139102Y16909102D01*
X67142858Y16905894D01*
X67142865Y16905887D01*
X67178080Y16875810D01*
X67216889Y16816359D01*
X67217395Y16745365D01*
X67178080Y16684190D01*
X67142865Y16654113D01*
X67142858Y16654106D01*
X67139102Y16650898D01*
X67010001Y16499740D01*
X66999691Y16487669D01*
X66940240Y16448860D01*
X66903880Y16443500D01*
X64883382Y16443500D01*
X64863673Y16445051D01*
X64849125Y16447355D01*
X64842538Y16447010D01*
X64842533Y16447010D01*
X64778869Y16443673D01*
X64772275Y16443500D01*
X64751078Y16443500D01*
X64747806Y16443156D01*
X64747804Y16443156D01*
X64729990Y16441284D01*
X64723416Y16440767D01*
X64659761Y16437431D01*
X64659758Y16437431D01*
X64653164Y16437085D01*
X64646787Y16435377D01*
X64646784Y16435376D01*
X64638940Y16433274D01*
X64619504Y16429671D01*
X64604845Y16428130D01*
X64598564Y16426089D01*
X64598563Y16426089D01*
X64537923Y16406386D01*
X64531598Y16404512D01*
X64463621Y16386298D01*
X64450493Y16379609D01*
X64432234Y16372046D01*
X64424499Y16369533D01*
X64424493Y16369530D01*
X64418220Y16367492D01*
X64412507Y16364194D01*
X64412501Y16364191D01*
X64357270Y16332303D01*
X64351500Y16329170D01*
X64288779Y16297211D01*
X64283646Y16293054D01*
X64277333Y16287942D01*
X64261035Y16276741D01*
X64253998Y16272679D01*
X64253993Y16272675D01*
X64248280Y16269377D01*
X64243373Y16264959D01*
X64243372Y16264958D01*
X64195991Y16222296D01*
X64190976Y16218012D01*
X64174509Y16204677D01*
X64159538Y16189706D01*
X64154753Y16185165D01*
X64137901Y16169991D01*
X64102453Y16138074D01*
X64094948Y16127744D01*
X64093793Y16126154D01*
X64080951Y16111119D01*
X57580237Y9610405D01*
X57517925Y9576379D01*
X57491142Y9573500D01*
X51526120Y9573500D01*
X51457999Y9593502D01*
X51430309Y9617669D01*
X51426210Y9622469D01*
X51290898Y9780898D01*
X51287142Y9784106D01*
X51287135Y9784113D01*
X51251920Y9814190D01*
X51213111Y9873641D01*
X51212605Y9944635D01*
X51251920Y10005810D01*
X51287135Y10035887D01*
X51287142Y10035894D01*
X51290898Y10039102D01*
X51455328Y10231624D01*
X51587616Y10447498D01*
X51590011Y10453278D01*
X51682611Y10676836D01*
X51682612Y10676838D01*
X51684505Y10681409D01*
X51712549Y10798220D01*
X51742454Y10922784D01*
X51742455Y10922790D01*
X51743609Y10927597D01*
X51763474Y11180000D01*
X51743609Y11432403D01*
X51741209Y11442403D01*
X51685660Y11673779D01*
X51684505Y11678591D01*
X51660577Y11736359D01*
X51589511Y11907928D01*
X51589509Y11907932D01*
X51587616Y11912502D01*
X51455328Y12128376D01*
X51290898Y12320898D01*
X51287142Y12324106D01*
X51287135Y12324113D01*
X51251920Y12354190D01*
X51213111Y12413641D01*
X51212605Y12484635D01*
X51251920Y12545810D01*
X51287135Y12575887D01*
X51287142Y12575894D01*
X51290898Y12579102D01*
X51455328Y12771624D01*
X51587616Y12987498D01*
X51590011Y12993278D01*
X51682611Y13216836D01*
X51682612Y13216838D01*
X51684505Y13221409D01*
X51743609Y13467597D01*
X51763474Y13720000D01*
X51743609Y13972403D01*
X51741209Y13982403D01*
X51689500Y14197784D01*
X51684505Y14218591D01*
X51660577Y14276359D01*
X51589511Y14447928D01*
X51589509Y14447932D01*
X51587616Y14452502D01*
X51455328Y14668376D01*
X51290898Y14860898D01*
X51287142Y14864106D01*
X51287135Y14864113D01*
X51251920Y14894190D01*
X51213111Y14953641D01*
X51212605Y15024635D01*
X51251920Y15085810D01*
X51287135Y15115887D01*
X51287142Y15115894D01*
X51290898Y15119102D01*
X51455328Y15311624D01*
X51587616Y15527498D01*
X51590011Y15533278D01*
X51682611Y15756836D01*
X51682612Y15756838D01*
X51684505Y15761409D01*
X51743609Y16007597D01*
X51763474Y16260000D01*
X51743609Y16512403D01*
X51741209Y16522403D01*
X51693067Y16722927D01*
X51684505Y16758591D01*
X51668369Y16797547D01*
X51589511Y16987928D01*
X51589509Y16987932D01*
X51587616Y16992502D01*
X51455328Y17208376D01*
X51290898Y17400898D01*
X51287142Y17404106D01*
X51287135Y17404113D01*
X51251920Y17434190D01*
X51213111Y17493641D01*
X51212605Y17564635D01*
X51251920Y17625810D01*
X51287135Y17655887D01*
X51287142Y17655894D01*
X51290898Y17659102D01*
X51455328Y17851624D01*
X51587616Y18067498D01*
X51590011Y18073278D01*
X51682611Y18296836D01*
X51682612Y18296838D01*
X51684505Y18301409D01*
X51743609Y18547597D01*
X51763474Y18800000D01*
X51743609Y19052403D01*
X51741209Y19062403D01*
X51702367Y19224190D01*
X51684505Y19298591D01*
X51660577Y19356359D01*
X51589511Y19527928D01*
X51589509Y19527932D01*
X51587616Y19532502D01*
X51455328Y19748376D01*
X51290898Y19940898D01*
X51287142Y19944106D01*
X51287135Y19944113D01*
X51251920Y19974190D01*
X51213111Y20033641D01*
X51212605Y20104635D01*
X51251920Y20165810D01*
X51287135Y20195887D01*
X51287142Y20195894D01*
X51290898Y20199102D01*
X51455328Y20391624D01*
X51587616Y20607498D01*
X51684505Y20841409D01*
X51743609Y21087597D01*
X51763474Y21340000D01*
X51743609Y21592403D01*
X51729035Y21653111D01*
X51685660Y21833779D01*
X51684505Y21838591D01*
X51660577Y21896359D01*
X51589511Y22067928D01*
X51589509Y22067932D01*
X51587616Y22072502D01*
X51455328Y22288376D01*
X51290898Y22480898D01*
X51287142Y22484106D01*
X51287135Y22484113D01*
X51251920Y22514190D01*
X51213111Y22573641D01*
X51212605Y22644635D01*
X51251920Y22705810D01*
X51287135Y22735887D01*
X51287142Y22735894D01*
X51290898Y22739102D01*
X51430310Y22902331D01*
X51489760Y22941140D01*
X51526120Y22946500D01*
X58501142Y22946500D01*
X58569263Y22926498D01*
G37*
%TD.AperFunction*%
%TA.AperFunction,Conductor*%
G36*
X31307153Y45526498D02*
G01*
X31346465Y45486335D01*
X31364672Y45456624D01*
X31529102Y45264102D01*
X31532858Y45260894D01*
X31532865Y45260887D01*
X31568080Y45230810D01*
X31606889Y45171359D01*
X31607395Y45100365D01*
X31568080Y45039190D01*
X31532865Y45009113D01*
X31532858Y45009106D01*
X31529102Y45005898D01*
X31428729Y44888376D01*
X31389691Y44842669D01*
X31330240Y44803860D01*
X31293880Y44798500D01*
X25538389Y44798500D01*
X25518678Y44800051D01*
X25510641Y44801324D01*
X25504125Y44802356D01*
X25497538Y44802011D01*
X25497533Y44802011D01*
X25433850Y44798673D01*
X25427256Y44798500D01*
X25406078Y44798500D01*
X25402806Y44798156D01*
X25402804Y44798156D01*
X25385009Y44796286D01*
X25378435Y44795769D01*
X25314765Y44792432D01*
X25314764Y44792432D01*
X25308164Y44792086D01*
X25293932Y44788272D01*
X25274497Y44784670D01*
X25266408Y44783820D01*
X25266406Y44783820D01*
X25259845Y44783130D01*
X25192917Y44761384D01*
X25186616Y44759517D01*
X25118621Y44741298D01*
X25112743Y44738303D01*
X25105493Y44734609D01*
X25087234Y44727046D01*
X25079499Y44724533D01*
X25079493Y44724530D01*
X25073220Y44722492D01*
X25067507Y44719194D01*
X25067501Y44719191D01*
X25012270Y44687303D01*
X25006500Y44684170D01*
X24943779Y44652211D01*
X24938646Y44648054D01*
X24932333Y44642942D01*
X24916035Y44631741D01*
X24908998Y44627679D01*
X24908993Y44627675D01*
X24903280Y44624377D01*
X24898373Y44619959D01*
X24898372Y44619958D01*
X24850991Y44577296D01*
X24845976Y44573012D01*
X24829509Y44559677D01*
X24814538Y44544706D01*
X24809753Y44540165D01*
X24757453Y44493074D01*
X24748793Y44481154D01*
X24735951Y44466119D01*
X22338881Y42069049D01*
X22323849Y42056210D01*
X22311926Y42047547D01*
X22307505Y42042637D01*
X22307504Y42042636D01*
X22264835Y41995247D01*
X22260294Y41990462D01*
X22245323Y41975491D01*
X22238430Y41966979D01*
X22231988Y41959024D01*
X22227704Y41954009D01*
X22208907Y41933133D01*
X22180623Y41901720D01*
X22177325Y41896007D01*
X22177321Y41896002D01*
X22173259Y41888965D01*
X22162058Y41872668D01*
X22152789Y41861221D01*
X22120830Y41798500D01*
X22117697Y41792730D01*
X22085809Y41737499D01*
X22085806Y41737493D01*
X22082508Y41731780D01*
X22080470Y41725507D01*
X22080467Y41725501D01*
X22077954Y41717766D01*
X22070391Y41699508D01*
X22063702Y41686379D01*
X22048218Y41628592D01*
X22045485Y41618391D01*
X22043616Y41612083D01*
X22021870Y41545155D01*
X22021180Y41538594D01*
X22021180Y41538592D01*
X22020330Y41530503D01*
X22016728Y41511068D01*
X22012914Y41496836D01*
X22012568Y41490236D01*
X22012568Y41490235D01*
X22009231Y41426565D01*
X22008714Y41419991D01*
X22006844Y41402196D01*
X22006500Y41398922D01*
X22006500Y41377744D01*
X22006327Y41371150D01*
X22004167Y41329930D01*
X22002644Y41300875D01*
X22003676Y41294359D01*
X22004949Y41286322D01*
X22006500Y41266611D01*
X22006500Y30846120D01*
X21986498Y30777999D01*
X21962332Y30750310D01*
X21799102Y30610898D01*
X21795894Y30607142D01*
X21795887Y30607135D01*
X21765810Y30571920D01*
X21706359Y30533111D01*
X21635365Y30532605D01*
X21574190Y30571920D01*
X21544113Y30607135D01*
X21544106Y30607142D01*
X21540898Y30610898D01*
X21348376Y30775328D01*
X21132502Y30907616D01*
X21127932Y30909509D01*
X21127928Y30909511D01*
X20903164Y31002611D01*
X20903162Y31002612D01*
X20898591Y31004505D01*
X20813968Y31024821D01*
X20657216Y31062454D01*
X20657210Y31062455D01*
X20652403Y31063609D01*
X20400000Y31083474D01*
X20147597Y31063609D01*
X20142790Y31062455D01*
X20142784Y31062454D01*
X19986032Y31024821D01*
X19901409Y31004505D01*
X19896838Y31002612D01*
X19896836Y31002611D01*
X19672072Y30909511D01*
X19672068Y30909509D01*
X19667498Y30907616D01*
X19451624Y30775328D01*
X19259102Y30610898D01*
X19123099Y30451659D01*
X19119691Y30447669D01*
X19060240Y30408860D01*
X19023880Y30403500D01*
X17428858Y30403500D01*
X17360737Y30423502D01*
X17339763Y30440405D01*
X16620405Y31159763D01*
X16586379Y31222075D01*
X16583500Y31248858D01*
X16583500Y33132275D01*
X16583673Y33138869D01*
X16587010Y33202533D01*
X16587010Y33202538D01*
X16587355Y33209125D01*
X16585051Y33223672D01*
X16583500Y33243383D01*
X16583500Y42563880D01*
X16603502Y42632001D01*
X16627669Y42659691D01*
X16644374Y42673958D01*
X16790898Y42799102D01*
X16955328Y42991624D01*
X17087616Y43207498D01*
X17102181Y43242659D01*
X17182611Y43436836D01*
X17182612Y43436838D01*
X17184505Y43441409D01*
X17224448Y43607784D01*
X17242454Y43682784D01*
X17242455Y43682790D01*
X17243609Y43687597D01*
X17263474Y43940000D01*
X17243609Y44192403D01*
X17184505Y44438591D01*
X17164151Y44487731D01*
X17089511Y44667928D01*
X17089509Y44667932D01*
X17087616Y44672502D01*
X16955328Y44888376D01*
X16798609Y45071870D01*
X16794106Y45077142D01*
X16790898Y45080898D01*
X16787142Y45084106D01*
X16787135Y45084113D01*
X16751920Y45114190D01*
X16713111Y45173641D01*
X16712605Y45244635D01*
X16751920Y45305810D01*
X16787135Y45335887D01*
X16787142Y45335894D01*
X16790898Y45339102D01*
X16930310Y45502331D01*
X16989760Y45541140D01*
X17026120Y45546500D01*
X31239032Y45546500D01*
X31307153Y45526498D01*
G37*
%TD.AperFunction*%
%TA.AperFunction,Conductor*%
G36*
X31362001Y42911498D02*
G01*
X31389690Y42887332D01*
X31529102Y42724102D01*
X31532858Y42720894D01*
X31532865Y42720887D01*
X31568080Y42690810D01*
X31606889Y42631359D01*
X31607395Y42560365D01*
X31568080Y42499190D01*
X31532865Y42469113D01*
X31532858Y42469106D01*
X31529102Y42465898D01*
X31414212Y42331379D01*
X31389691Y42302669D01*
X31330240Y42263860D01*
X31293880Y42258500D01*
X28028383Y42258500D01*
X28008672Y42260051D01*
X28000642Y42261323D01*
X28000640Y42261323D01*
X27994125Y42262355D01*
X27987538Y42262010D01*
X27987533Y42262010D01*
X27923869Y42258673D01*
X27917275Y42258500D01*
X27896078Y42258500D01*
X27892806Y42258156D01*
X27892804Y42258156D01*
X27874990Y42256284D01*
X27868416Y42255767D01*
X27804759Y42252431D01*
X27804755Y42252430D01*
X27798164Y42252085D01*
X27786957Y42249082D01*
X27783936Y42248273D01*
X27764505Y42244672D01*
X27756420Y42243822D01*
X27756412Y42243820D01*
X27749845Y42243130D01*
X27682878Y42221372D01*
X27676631Y42219521D01*
X27608621Y42201297D01*
X27595499Y42194611D01*
X27577234Y42187046D01*
X27569505Y42184535D01*
X27569497Y42184531D01*
X27563220Y42182492D01*
X27557502Y42179191D01*
X27557496Y42179188D01*
X27502264Y42147299D01*
X27496492Y42144164D01*
X27433779Y42112211D01*
X27422333Y42102942D01*
X27406035Y42091741D01*
X27398998Y42087679D01*
X27398993Y42087675D01*
X27393280Y42084377D01*
X27388373Y42079959D01*
X27388372Y42079958D01*
X27340991Y42037296D01*
X27335976Y42033012D01*
X27319509Y42019677D01*
X27304538Y42004706D01*
X27299753Y42000165D01*
X27247453Y41953074D01*
X27238793Y41941154D01*
X27225951Y41926119D01*
X24878881Y39579049D01*
X24863849Y39566210D01*
X24851926Y39557547D01*
X24847505Y39552637D01*
X24847504Y39552636D01*
X24804835Y39505247D01*
X24800294Y39500462D01*
X24785323Y39485491D01*
X24783247Y39482927D01*
X24771988Y39469024D01*
X24767704Y39464009D01*
X24720623Y39411720D01*
X24717325Y39406007D01*
X24717321Y39406002D01*
X24713259Y39398965D01*
X24702058Y39382668D01*
X24692789Y39371221D01*
X24660830Y39308500D01*
X24657697Y39302730D01*
X24625809Y39247499D01*
X24625806Y39247493D01*
X24622508Y39241780D01*
X24620470Y39235507D01*
X24620467Y39235501D01*
X24617954Y39227766D01*
X24610391Y39209508D01*
X24603702Y39196379D01*
X24601995Y39190007D01*
X24585485Y39128391D01*
X24583616Y39122083D01*
X24561870Y39055155D01*
X24561180Y39048594D01*
X24561180Y39048592D01*
X24560330Y39040503D01*
X24556728Y39021068D01*
X24552914Y39006836D01*
X24552568Y39000236D01*
X24552568Y39000235D01*
X24549231Y38936565D01*
X24548714Y38929991D01*
X24546844Y38912196D01*
X24546500Y38908922D01*
X24546500Y38887744D01*
X24546327Y38881150D01*
X24545417Y38863779D01*
X24542644Y38810875D01*
X24543676Y38804359D01*
X24544949Y38796322D01*
X24546500Y38776611D01*
X24546500Y30846120D01*
X24526498Y30777999D01*
X24502332Y30750310D01*
X24339102Y30610898D01*
X24335894Y30607142D01*
X24335887Y30607135D01*
X24305810Y30571920D01*
X24246359Y30533111D01*
X24175365Y30532605D01*
X24114190Y30571920D01*
X24084113Y30607135D01*
X24084106Y30607142D01*
X24080898Y30610898D01*
X23917669Y30750310D01*
X23878860Y30809760D01*
X23873500Y30846120D01*
X23873500Y40911142D01*
X23893502Y40979263D01*
X23910405Y41000237D01*
X25804763Y42894595D01*
X25867075Y42928621D01*
X25893858Y42931500D01*
X31293880Y42931500D01*
X31362001Y42911498D01*
G37*
%TD.AperFunction*%
%TA.AperFunction,Conductor*%
G36*
X31362001Y40371498D02*
G01*
X31389690Y40347332D01*
X31529102Y40184102D01*
X31532858Y40180894D01*
X31532865Y40180887D01*
X31568080Y40150810D01*
X31606889Y40091359D01*
X31607395Y40020365D01*
X31568080Y39959190D01*
X31532865Y39929113D01*
X31532858Y39929106D01*
X31529102Y39925898D01*
X31441939Y39823843D01*
X31389691Y39762669D01*
X31330240Y39723860D01*
X31293880Y39718500D01*
X29298382Y39718500D01*
X29278673Y39720051D01*
X29264125Y39722355D01*
X29257538Y39722010D01*
X29257533Y39722010D01*
X29193869Y39718673D01*
X29187275Y39718500D01*
X29166078Y39718500D01*
X29162806Y39718156D01*
X29162804Y39718156D01*
X29144990Y39716284D01*
X29138416Y39715767D01*
X29074759Y39712431D01*
X29074755Y39712430D01*
X29068164Y39712085D01*
X29056957Y39709082D01*
X29053936Y39708273D01*
X29034505Y39704672D01*
X29026420Y39703822D01*
X29026412Y39703820D01*
X29019845Y39703130D01*
X28952878Y39681372D01*
X28946631Y39679521D01*
X28878621Y39661297D01*
X28865499Y39654611D01*
X28847234Y39647046D01*
X28839505Y39644535D01*
X28839497Y39644531D01*
X28833220Y39642492D01*
X28827502Y39639191D01*
X28827496Y39639188D01*
X28772264Y39607299D01*
X28766492Y39604164D01*
X28703779Y39572211D01*
X28696365Y39566207D01*
X28692333Y39562942D01*
X28676035Y39551741D01*
X28668998Y39547679D01*
X28668993Y39547675D01*
X28663280Y39544377D01*
X28658373Y39539959D01*
X28658372Y39539958D01*
X28610991Y39497296D01*
X28605976Y39493012D01*
X28589509Y39479677D01*
X28574538Y39464706D01*
X28569753Y39460165D01*
X28517453Y39413074D01*
X28508793Y39401154D01*
X28495951Y39386119D01*
X27418881Y38309049D01*
X27403849Y38296210D01*
X27391926Y38287547D01*
X27387505Y38282637D01*
X27387504Y38282636D01*
X27344835Y38235247D01*
X27340294Y38230462D01*
X27325323Y38215491D01*
X27323247Y38212927D01*
X27311988Y38199024D01*
X27307704Y38194009D01*
X27277373Y38160323D01*
X27260623Y38141720D01*
X27257325Y38136007D01*
X27257321Y38136002D01*
X27253259Y38128965D01*
X27242058Y38112668D01*
X27232789Y38101221D01*
X27200830Y38038500D01*
X27197697Y38032730D01*
X27165809Y37977499D01*
X27165806Y37977493D01*
X27162508Y37971780D01*
X27160470Y37965507D01*
X27160467Y37965501D01*
X27157954Y37957766D01*
X27150391Y37939508D01*
X27143702Y37926379D01*
X27128973Y37871409D01*
X27125485Y37858391D01*
X27123616Y37852083D01*
X27101870Y37785155D01*
X27101180Y37778594D01*
X27101180Y37778592D01*
X27100330Y37770503D01*
X27096728Y37751068D01*
X27092914Y37736836D01*
X27092568Y37730236D01*
X27092568Y37730235D01*
X27089231Y37666565D01*
X27088714Y37659991D01*
X27087439Y37647858D01*
X27086500Y37638922D01*
X27086500Y37617744D01*
X27086327Y37611150D01*
X27082644Y37540875D01*
X27083676Y37534359D01*
X27084949Y37526322D01*
X27086500Y37506611D01*
X27086500Y30846120D01*
X27066498Y30777999D01*
X27042332Y30750310D01*
X26879102Y30610898D01*
X26875894Y30607142D01*
X26875887Y30607135D01*
X26845810Y30571920D01*
X26786359Y30533111D01*
X26715365Y30532605D01*
X26654190Y30571920D01*
X26624113Y30607135D01*
X26624106Y30607142D01*
X26620898Y30610898D01*
X26457669Y30750310D01*
X26418860Y30809760D01*
X26413500Y30846120D01*
X26413500Y38421142D01*
X26433502Y38489263D01*
X26450405Y38510237D01*
X28294763Y40354595D01*
X28357075Y40388621D01*
X28383858Y40391500D01*
X31293880Y40391500D01*
X31362001Y40371498D01*
G37*
%TD.AperFunction*%
%TA.AperFunction,Conductor*%
G36*
X31307153Y48066498D02*
G01*
X31346465Y48026335D01*
X31364672Y47996624D01*
X31529102Y47804102D01*
X31532858Y47800894D01*
X31532865Y47800887D01*
X31568080Y47770810D01*
X31606889Y47711359D01*
X31607395Y47640365D01*
X31568080Y47579190D01*
X31532865Y47549113D01*
X31532858Y47549106D01*
X31529102Y47545898D01*
X31525894Y47542142D01*
X31453747Y47457669D01*
X31394296Y47418860D01*
X31357936Y47413500D01*
X17026120Y47413500D01*
X16957999Y47433502D01*
X16930309Y47457669D01*
X16794106Y47617142D01*
X16790898Y47620898D01*
X16787142Y47624106D01*
X16787135Y47624113D01*
X16751920Y47654190D01*
X16713111Y47713641D01*
X16712605Y47784635D01*
X16751920Y47845810D01*
X16787135Y47875887D01*
X16787142Y47875894D01*
X16790898Y47879102D01*
X16930310Y48042331D01*
X16989760Y48081140D01*
X17026120Y48086500D01*
X31239032Y48086500D01*
X31307153Y48066498D01*
G37*
%TD.AperFunction*%
%TA.AperFunction,Conductor*%
G36*
X31362001Y50531498D02*
G01*
X31389690Y50507332D01*
X31529102Y50344102D01*
X31532858Y50340894D01*
X31532865Y50340887D01*
X31568080Y50310810D01*
X31606889Y50251359D01*
X31607395Y50180365D01*
X31568080Y50119190D01*
X31532865Y50089113D01*
X31532858Y50089106D01*
X31529102Y50085898D01*
X31525894Y50082142D01*
X31453747Y49997669D01*
X31394296Y49958860D01*
X31357936Y49953500D01*
X17026120Y49953500D01*
X16957999Y49973502D01*
X16930309Y49997669D01*
X16794106Y50157142D01*
X16790898Y50160898D01*
X16787142Y50164106D01*
X16787135Y50164113D01*
X16751920Y50194190D01*
X16713111Y50253641D01*
X16712605Y50324635D01*
X16751920Y50385810D01*
X16787135Y50415887D01*
X16787142Y50415894D01*
X16790898Y50419102D01*
X16866253Y50507331D01*
X16925704Y50546140D01*
X16962064Y50551500D01*
X31293880Y50551500D01*
X31362001Y50531498D01*
G37*
%TD.AperFunction*%
%TA.AperFunction,Conductor*%
G36*
X31362001Y53071498D02*
G01*
X31389690Y53047332D01*
X31529102Y52884102D01*
X31532858Y52880894D01*
X31532865Y52880887D01*
X31568080Y52850810D01*
X31606889Y52791359D01*
X31607395Y52720365D01*
X31568080Y52659190D01*
X31532865Y52629113D01*
X31532858Y52629106D01*
X31529102Y52625898D01*
X31398626Y52473130D01*
X31389691Y52462669D01*
X31330240Y52423860D01*
X31293880Y52418500D01*
X17080968Y52418500D01*
X17012847Y52438502D01*
X16973535Y52478665D01*
X16967402Y52488673D01*
X16955328Y52508376D01*
X16790898Y52700898D01*
X16787142Y52704106D01*
X16787135Y52704113D01*
X16751920Y52734190D01*
X16713111Y52793641D01*
X16712605Y52864635D01*
X16751920Y52925810D01*
X16787135Y52955887D01*
X16787142Y52955894D01*
X16790898Y52959102D01*
X16866253Y53047331D01*
X16925704Y53086140D01*
X16962064Y53091500D01*
X31293880Y53091500D01*
X31362001Y53071498D01*
G37*
%TD.AperFunction*%
%TD*%
%TA.AperFunction,NonConductor*%
G36*
X48777803Y32356844D02*
G01*
X48777807Y32356844D01*
X48781078Y32356500D01*
X48802256Y32356500D01*
X48808850Y32356327D01*
X48872533Y32352989D01*
X48872538Y32352989D01*
X48879125Y32352644D01*
X48893679Y32354949D01*
X48913389Y32356500D01*
X66903880Y32356500D01*
X66972001Y32336498D01*
X66999690Y32312332D01*
X67139102Y32149102D01*
X67142858Y32145894D01*
X67142865Y32145887D01*
X67178080Y32115810D01*
X67216889Y32056359D01*
X67217395Y31985365D01*
X67178080Y31924190D01*
X67142865Y31894113D01*
X67142858Y31894106D01*
X67139102Y31890898D01*
X66974672Y31698376D01*
X66842384Y31482502D01*
X66840491Y31477932D01*
X66840489Y31477928D01*
X66758358Y31279646D01*
X66745495Y31248591D01*
X66686391Y31002403D01*
X66666526Y30750000D01*
X66686391Y30497597D01*
X66687545Y30492790D01*
X66687546Y30492784D01*
X66708981Y30403500D01*
X66745495Y30251409D01*
X66747388Y30246838D01*
X66747389Y30246836D01*
X66811959Y30090951D01*
X66842384Y30017498D01*
X66974672Y29801624D01*
X67139102Y29609102D01*
X67142858Y29605894D01*
X67142865Y29605887D01*
X67178080Y29575810D01*
X67216889Y29516359D01*
X67217395Y29445365D01*
X67178080Y29384190D01*
X67142865Y29354113D01*
X67142858Y29354106D01*
X67139102Y29350898D01*
X66974672Y29158376D01*
X66842384Y28942502D01*
X66840491Y28937932D01*
X66840489Y28937928D01*
X66747389Y28713164D01*
X66745495Y28708591D01*
X66744340Y28703779D01*
X66688850Y28472644D01*
X66686391Y28462403D01*
X66666526Y28210000D01*
X66686391Y27957597D01*
X66687545Y27952790D01*
X66687546Y27952784D01*
X66710581Y27856836D01*
X66745495Y27711409D01*
X66842384Y27477498D01*
X66974672Y27261624D01*
X67139102Y27069102D01*
X67142858Y27065894D01*
X67142865Y27065887D01*
X67178080Y27035810D01*
X67216889Y26976359D01*
X67217395Y26905365D01*
X67178080Y26844190D01*
X67142865Y26814113D01*
X67142858Y26814106D01*
X67139102Y26810898D01*
X66974672Y26618376D01*
X66842384Y26402502D01*
X66745495Y26168591D01*
X66686391Y25922403D01*
X66666526Y25670000D01*
X66686391Y25417597D01*
X66745495Y25171409D01*
X66747388Y25166838D01*
X66747389Y25166836D01*
X66838444Y24947011D01*
X66842384Y24937498D01*
X66974672Y24721624D01*
X67139102Y24529102D01*
X67331624Y24364672D01*
X67547498Y24232384D01*
X67552068Y24230491D01*
X67552072Y24230489D01*
X67776643Y24137469D01*
X67781409Y24135495D01*
X67866032Y24115179D01*
X68022784Y24077546D01*
X68022790Y24077545D01*
X68027597Y24076391D01*
X68280000Y24056526D01*
X68532403Y24076391D01*
X68537210Y24077545D01*
X68537216Y24077546D01*
X68693968Y24115179D01*
X68778591Y24135495D01*
X68783357Y24137469D01*
X69007928Y24230489D01*
X69007932Y24230491D01*
X69012502Y24232384D01*
X69228376Y24364672D01*
X69420898Y24529102D01*
X69424106Y24532858D01*
X69424113Y24532865D01*
X69454190Y24568080D01*
X69513641Y24606889D01*
X69584635Y24607395D01*
X69645810Y24568080D01*
X69675887Y24532865D01*
X69675894Y24532858D01*
X69679102Y24529102D01*
X69682858Y24525894D01*
X69682865Y24525887D01*
X69718080Y24495810D01*
X69756889Y24436359D01*
X69757395Y24365365D01*
X69718080Y24304190D01*
X69682865Y24274113D01*
X69682858Y24274106D01*
X69679102Y24270898D01*
X69514672Y24078376D01*
X69382384Y23862502D01*
X69380491Y23857932D01*
X69380489Y23857928D01*
X69335681Y23749751D01*
X69285495Y23628591D01*
X69284340Y23623779D01*
X69253642Y23495911D01*
X69226391Y23382403D01*
X69206526Y23130000D01*
X69226391Y22877597D01*
X69227545Y22872790D01*
X69227546Y22872784D01*
X69237716Y22830424D01*
X69285495Y22631409D01*
X69287388Y22626838D01*
X69287389Y22626836D01*
X69370313Y22426641D01*
X69382384Y22397498D01*
X69514672Y22181624D01*
X69679102Y21989102D01*
X69682858Y21985894D01*
X69682865Y21985887D01*
X69718080Y21955810D01*
X69756889Y21896359D01*
X69757395Y21825365D01*
X69718080Y21764190D01*
X69682865Y21734113D01*
X69682858Y21734106D01*
X69679102Y21730898D01*
X69675894Y21727142D01*
X69675887Y21727135D01*
X69645810Y21691920D01*
X69586359Y21653111D01*
X69515365Y21652605D01*
X69454190Y21691920D01*
X69424113Y21727135D01*
X69424106Y21727142D01*
X69420898Y21730898D01*
X69228376Y21895328D01*
X69012502Y22027616D01*
X69007932Y22029509D01*
X69007928Y22029511D01*
X68783164Y22122611D01*
X68783162Y22122612D01*
X68778591Y22124505D01*
X68693968Y22144821D01*
X68537216Y22182454D01*
X68537210Y22182455D01*
X68532403Y22183609D01*
X68280000Y22203474D01*
X68027597Y22183609D01*
X68022790Y22182455D01*
X68022784Y22182454D01*
X67866032Y22144821D01*
X67781409Y22124505D01*
X67776838Y22122612D01*
X67776836Y22122611D01*
X67552072Y22029511D01*
X67552068Y22029509D01*
X67547498Y22027616D01*
X67331624Y21895328D01*
X67139102Y21730898D01*
X66974672Y21538376D01*
X66842384Y21322502D01*
X66745495Y21088591D01*
X66686391Y20842403D01*
X66666526Y20590000D01*
X66686391Y20337597D01*
X66687545Y20332790D01*
X66687546Y20332784D01*
X66707538Y20249511D01*
X66745495Y20091409D01*
X66747388Y20086838D01*
X66747389Y20086836D01*
X66807839Y19940898D01*
X66842384Y19857498D01*
X66974672Y19641624D01*
X67139102Y19449102D01*
X67142858Y19445894D01*
X67142865Y19445887D01*
X67178080Y19415810D01*
X67216889Y19356359D01*
X67217395Y19285365D01*
X67178080Y19224190D01*
X67142865Y19194113D01*
X67142858Y19194106D01*
X67139102Y19190898D01*
X67023457Y19055495D01*
X66999691Y19027669D01*
X66940240Y18988860D01*
X66903880Y18983500D01*
X65208858Y18983500D01*
X65140737Y19003502D01*
X65119763Y19020405D01*
X59659049Y24481119D01*
X59646207Y24496154D01*
X59637547Y24508074D01*
X59619761Y24524089D01*
X59585247Y24555165D01*
X59580462Y24559706D01*
X59565491Y24574677D01*
X59549024Y24588012D01*
X59544009Y24592296D01*
X59496628Y24634958D01*
X59496627Y24634959D01*
X59491720Y24639377D01*
X59486007Y24642675D01*
X59486002Y24642679D01*
X59478965Y24646741D01*
X59462667Y24657942D01*
X59456354Y24663054D01*
X59451221Y24667211D01*
X59388500Y24699170D01*
X59382730Y24702303D01*
X59327499Y24734191D01*
X59327493Y24734194D01*
X59321780Y24737492D01*
X59315507Y24739530D01*
X59315501Y24739533D01*
X59307766Y24742046D01*
X59289507Y24749609D01*
X59282257Y24753303D01*
X59276379Y24756298D01*
X59208384Y24774517D01*
X59202083Y24776384D01*
X59135155Y24798130D01*
X59128594Y24798820D01*
X59128592Y24798820D01*
X59120503Y24799670D01*
X59101068Y24803272D01*
X59086836Y24807086D01*
X59080236Y24807432D01*
X59080235Y24807432D01*
X59016565Y24810769D01*
X59009991Y24811286D01*
X58992196Y24813156D01*
X58992194Y24813156D01*
X58988922Y24813500D01*
X58967744Y24813500D01*
X58961150Y24813673D01*
X58897467Y24817011D01*
X58897462Y24817011D01*
X58890875Y24817356D01*
X58884359Y24816324D01*
X58876322Y24815051D01*
X58856611Y24813500D01*
X51526120Y24813500D01*
X51457999Y24833502D01*
X51430309Y24857669D01*
X51421920Y24867492D01*
X51290898Y25020898D01*
X51275434Y25034106D01*
X51172490Y25122028D01*
X51098376Y25185328D01*
X50882502Y25317616D01*
X50877932Y25319509D01*
X50877928Y25319511D01*
X50653164Y25412611D01*
X50653162Y25412612D01*
X50648591Y25414505D01*
X50563968Y25434821D01*
X50407216Y25472454D01*
X50407210Y25472455D01*
X50402403Y25473609D01*
X50150000Y25493474D01*
X49897597Y25473609D01*
X49892790Y25472455D01*
X49892784Y25472454D01*
X49736032Y25434821D01*
X49651409Y25414505D01*
X49646838Y25412612D01*
X49646836Y25412611D01*
X49422072Y25319511D01*
X49422068Y25319509D01*
X49417498Y25317616D01*
X49201624Y25185328D01*
X49127510Y25122028D01*
X49024567Y25034106D01*
X49009102Y25020898D01*
X49005894Y25017142D01*
X48855311Y24840833D01*
X48795860Y24802024D01*
X48724865Y24801518D01*
X48664867Y24839474D01*
X48634914Y24903843D01*
X48633500Y24922664D01*
X48633500Y32232074D01*
X48653502Y32300195D01*
X48707158Y32346688D01*
X48772676Y32357383D01*
X48777803Y32356844D01*
G37*
%TD.AperFunction*%
%TA.AperFunction,NonConductor*%
G36*
X66972001Y14556498D02*
G01*
X66999690Y14532332D01*
X67139102Y14369102D01*
X67142858Y14365894D01*
X67142865Y14365887D01*
X67178080Y14335810D01*
X67216889Y14276359D01*
X67217395Y14205365D01*
X67178080Y14144190D01*
X67142865Y14114113D01*
X67142858Y14114106D01*
X67139102Y14110898D01*
X66974672Y13918376D01*
X66842384Y13702502D01*
X66745495Y13468591D01*
X66744340Y13463779D01*
X66709308Y13317858D01*
X66686391Y13222403D01*
X66666526Y12970000D01*
X66686391Y12717597D01*
X66687545Y12712790D01*
X66687546Y12712784D01*
X66718739Y12582858D01*
X66745495Y12471409D01*
X66747388Y12466838D01*
X66747389Y12466836D01*
X66807839Y12320898D01*
X66842384Y12237498D01*
X66974672Y12021624D01*
X67139102Y11829102D01*
X67142858Y11825894D01*
X67142865Y11825887D01*
X67178080Y11795810D01*
X67216889Y11736359D01*
X67217395Y11665365D01*
X67178080Y11604190D01*
X67142865Y11574113D01*
X67142858Y11574106D01*
X67139102Y11570898D01*
X66974672Y11378376D01*
X66842384Y11162502D01*
X66840491Y11157932D01*
X66840489Y11157928D01*
X66749225Y10937597D01*
X66745495Y10928591D01*
X66744340Y10923779D01*
X66691897Y10705336D01*
X66686391Y10682403D01*
X66666526Y10430000D01*
X66686391Y10177597D01*
X66687545Y10172790D01*
X66687546Y10172784D01*
X66718739Y10042858D01*
X66745495Y9931409D01*
X66747388Y9926838D01*
X66747389Y9926836D01*
X66807839Y9780898D01*
X66842384Y9697498D01*
X66974672Y9481624D01*
X67139102Y9289102D01*
X67142858Y9285894D01*
X67142865Y9285887D01*
X67178080Y9255810D01*
X67216889Y9196359D01*
X67217395Y9125365D01*
X67178080Y9064190D01*
X67142865Y9034113D01*
X67142858Y9034106D01*
X67139102Y9030898D01*
X67007156Y8876409D01*
X66999691Y8867669D01*
X66940240Y8828860D01*
X66903880Y8823500D01*
X62433383Y8823500D01*
X62413672Y8825051D01*
X62405642Y8826323D01*
X62405640Y8826323D01*
X62399125Y8827355D01*
X62392538Y8827010D01*
X62392533Y8827010D01*
X62328869Y8823673D01*
X62322275Y8823500D01*
X62301078Y8823500D01*
X62297806Y8823156D01*
X62297804Y8823156D01*
X62279990Y8821284D01*
X62273416Y8820767D01*
X62209759Y8817431D01*
X62209755Y8817430D01*
X62203164Y8817085D01*
X62191957Y8814082D01*
X62188936Y8813273D01*
X62169505Y8809672D01*
X62161420Y8808822D01*
X62161412Y8808820D01*
X62154845Y8808130D01*
X62087878Y8786372D01*
X62081631Y8784521D01*
X62013621Y8766297D01*
X62000499Y8759611D01*
X61982234Y8752046D01*
X61974505Y8749535D01*
X61974497Y8749531D01*
X61968220Y8747492D01*
X61962502Y8744191D01*
X61962496Y8744188D01*
X61907264Y8712299D01*
X61901492Y8709164D01*
X61838779Y8677211D01*
X61827333Y8667942D01*
X61811035Y8656741D01*
X61803998Y8652679D01*
X61803993Y8652675D01*
X61798280Y8649377D01*
X61793373Y8644959D01*
X61793372Y8644958D01*
X61745991Y8602296D01*
X61740976Y8598012D01*
X61733021Y8591570D01*
X61724509Y8584677D01*
X61709538Y8569706D01*
X61704753Y8565165D01*
X61652453Y8518074D01*
X61643793Y8506154D01*
X61630951Y8491119D01*
X60210237Y7070405D01*
X60147925Y7036379D01*
X60121142Y7033500D01*
X51526120Y7033500D01*
X51457999Y7053502D01*
X51430309Y7077669D01*
X51426210Y7082469D01*
X51290898Y7240898D01*
X51287142Y7244106D01*
X51287135Y7244113D01*
X51251920Y7274190D01*
X51213111Y7333641D01*
X51212605Y7404635D01*
X51251920Y7465810D01*
X51287135Y7495887D01*
X51287142Y7495894D01*
X51290898Y7499102D01*
X51430310Y7662331D01*
X51489760Y7701140D01*
X51526120Y7706500D01*
X57846611Y7706500D01*
X57866321Y7704949D01*
X57880875Y7702644D01*
X57887462Y7702989D01*
X57887467Y7702989D01*
X57951150Y7706327D01*
X57957744Y7706500D01*
X57978922Y7706500D01*
X57982194Y7706844D01*
X57982196Y7706844D01*
X57999991Y7708714D01*
X58006565Y7709231D01*
X58070235Y7712568D01*
X58070236Y7712568D01*
X58076836Y7712914D01*
X58091068Y7716728D01*
X58110503Y7720330D01*
X58118592Y7721180D01*
X58118594Y7721180D01*
X58125155Y7721870D01*
X58192083Y7743616D01*
X58198384Y7745483D01*
X58266379Y7763702D01*
X58279508Y7770391D01*
X58297766Y7777954D01*
X58305501Y7780467D01*
X58305507Y7780470D01*
X58311780Y7782508D01*
X58317493Y7785806D01*
X58317499Y7785809D01*
X58372730Y7817697D01*
X58378500Y7820830D01*
X58441221Y7852789D01*
X58452668Y7862058D01*
X58468965Y7873259D01*
X58476002Y7877321D01*
X58476007Y7877325D01*
X58481720Y7880623D01*
X58534009Y7927704D01*
X58539024Y7931988D01*
X58552927Y7943247D01*
X58555491Y7945323D01*
X58570462Y7960294D01*
X58575247Y7964835D01*
X58622636Y8007504D01*
X58622637Y8007505D01*
X58627547Y8011926D01*
X58636210Y8023849D01*
X58649049Y8038881D01*
X65149763Y14539595D01*
X65212075Y14573621D01*
X65238858Y14576500D01*
X66903880Y14576500D01*
X66972001Y14556498D01*
G37*
%TD.AperFunction*%
%TA.AperFunction,NonConductor*%
G36*
X33582001Y15316498D02*
G01*
X33609690Y15292332D01*
X33749102Y15129102D01*
X33752858Y15125894D01*
X33752865Y15125887D01*
X33788080Y15095810D01*
X33826889Y15036359D01*
X33827395Y14965365D01*
X33788080Y14904190D01*
X33752865Y14874113D01*
X33752858Y14874106D01*
X33749102Y14870898D01*
X33613575Y14712216D01*
X33609691Y14707669D01*
X33550240Y14668860D01*
X33513880Y14663500D01*
X31203389Y14663500D01*
X31183678Y14665051D01*
X31175641Y14666324D01*
X31169125Y14667356D01*
X31162538Y14667011D01*
X31162533Y14667011D01*
X31098850Y14663673D01*
X31092256Y14663500D01*
X31071078Y14663500D01*
X31067806Y14663156D01*
X31067804Y14663156D01*
X31050009Y14661286D01*
X31043435Y14660769D01*
X30979765Y14657432D01*
X30979764Y14657432D01*
X30973164Y14657086D01*
X30958932Y14653272D01*
X30939497Y14649670D01*
X30931408Y14648820D01*
X30931406Y14648820D01*
X30924845Y14648130D01*
X30857917Y14626384D01*
X30851616Y14624517D01*
X30783621Y14606298D01*
X30777743Y14603303D01*
X30770493Y14599609D01*
X30752234Y14592046D01*
X30744499Y14589533D01*
X30744493Y14589530D01*
X30738220Y14587492D01*
X30732507Y14584194D01*
X30732501Y14584191D01*
X30677270Y14552303D01*
X30671500Y14549170D01*
X30608779Y14517211D01*
X30603646Y14513054D01*
X30597333Y14507942D01*
X30581035Y14496741D01*
X30573998Y14492679D01*
X30573993Y14492675D01*
X30568280Y14489377D01*
X30563373Y14484959D01*
X30563372Y14484958D01*
X30515991Y14442296D01*
X30510976Y14438012D01*
X30494509Y14424677D01*
X30479538Y14409706D01*
X30474753Y14405165D01*
X30422453Y14358074D01*
X30413793Y14346154D01*
X30400951Y14331119D01*
X26415237Y10345405D01*
X26352925Y10311379D01*
X26326142Y10308500D01*
X22736120Y10308500D01*
X22667999Y10328502D01*
X22640309Y10352669D01*
X22627974Y10367112D01*
X22500898Y10515898D01*
X22497142Y10519106D01*
X22497135Y10519113D01*
X22461920Y10549190D01*
X22423111Y10608641D01*
X22422605Y10679635D01*
X22461920Y10740810D01*
X22497135Y10770887D01*
X22497142Y10770894D01*
X22500898Y10774102D01*
X22640310Y10937331D01*
X22699760Y10976140D01*
X22736120Y10981500D01*
X26131611Y10981500D01*
X26151321Y10979949D01*
X26165875Y10977644D01*
X26172462Y10977989D01*
X26172467Y10977989D01*
X26236150Y10981327D01*
X26242744Y10981500D01*
X26263922Y10981500D01*
X26267194Y10981844D01*
X26267196Y10981844D01*
X26284991Y10983714D01*
X26291565Y10984231D01*
X26355235Y10987568D01*
X26355236Y10987568D01*
X26361836Y10987914D01*
X26376068Y10991728D01*
X26395503Y10995330D01*
X26403592Y10996180D01*
X26403594Y10996180D01*
X26410155Y10996870D01*
X26477083Y11018616D01*
X26483384Y11020483D01*
X26551379Y11038702D01*
X26564508Y11045391D01*
X26582766Y11052954D01*
X26590501Y11055467D01*
X26590507Y11055470D01*
X26596780Y11057508D01*
X26602493Y11060806D01*
X26602499Y11060809D01*
X26657730Y11092697D01*
X26663500Y11095830D01*
X26726221Y11127789D01*
X26737668Y11137058D01*
X26753965Y11148259D01*
X26761002Y11152321D01*
X26761007Y11152325D01*
X26766720Y11155623D01*
X26791881Y11178278D01*
X26819009Y11202704D01*
X26824024Y11206988D01*
X26837927Y11218247D01*
X26840491Y11220323D01*
X26855462Y11235294D01*
X26860247Y11239835D01*
X26907636Y11282504D01*
X26907637Y11282505D01*
X26912547Y11286926D01*
X26921210Y11298849D01*
X26934049Y11313881D01*
X30919763Y15299595D01*
X30982075Y15333621D01*
X31008858Y15336500D01*
X33513880Y15336500D01*
X33582001Y15316498D01*
G37*
%TD.AperFunction*%
%TA.AperFunction,NonConductor*%
G36*
X33582001Y17856498D02*
G01*
X33609690Y17832332D01*
X33749102Y17669102D01*
X33752858Y17665894D01*
X33752865Y17665887D01*
X33788080Y17635810D01*
X33826889Y17576359D01*
X33827395Y17505365D01*
X33788080Y17444190D01*
X33752865Y17414113D01*
X33752858Y17414106D01*
X33749102Y17410898D01*
X33622605Y17262789D01*
X33609691Y17247669D01*
X33550240Y17208860D01*
X33513880Y17203500D01*
X30653389Y17203500D01*
X30633678Y17205051D01*
X30625641Y17206324D01*
X30619125Y17207356D01*
X30612538Y17207011D01*
X30612533Y17207011D01*
X30548850Y17203673D01*
X30542256Y17203500D01*
X30521078Y17203500D01*
X30517806Y17203156D01*
X30517804Y17203156D01*
X30500009Y17201286D01*
X30493435Y17200769D01*
X30429765Y17197432D01*
X30429764Y17197432D01*
X30423164Y17197086D01*
X30408932Y17193272D01*
X30389497Y17189670D01*
X30381408Y17188820D01*
X30381406Y17188820D01*
X30374845Y17188130D01*
X30307917Y17166384D01*
X30301616Y17164517D01*
X30233621Y17146298D01*
X30227743Y17143303D01*
X30220493Y17139609D01*
X30202234Y17132046D01*
X30194499Y17129533D01*
X30194493Y17129530D01*
X30188220Y17127492D01*
X30182507Y17124194D01*
X30182501Y17124191D01*
X30127270Y17092303D01*
X30121500Y17089170D01*
X30058779Y17057211D01*
X30053646Y17053054D01*
X30047333Y17047942D01*
X30031035Y17036741D01*
X30023998Y17032679D01*
X30023993Y17032675D01*
X30018280Y17029377D01*
X30013373Y17024959D01*
X30013372Y17024958D01*
X29965991Y16982296D01*
X29960976Y16978012D01*
X29944509Y16964677D01*
X29929538Y16949706D01*
X29924753Y16945165D01*
X29872453Y16898074D01*
X29863793Y16886154D01*
X29850951Y16871119D01*
X25865237Y12885405D01*
X25802925Y12851379D01*
X25776142Y12848500D01*
X22736120Y12848500D01*
X22667999Y12868502D01*
X22640309Y12892669D01*
X22562922Y12983278D01*
X22500898Y13055898D01*
X22497142Y13059106D01*
X22497135Y13059113D01*
X22461920Y13089190D01*
X22423111Y13148641D01*
X22422605Y13219635D01*
X22461920Y13280810D01*
X22497135Y13310887D01*
X22497142Y13310894D01*
X22500898Y13314102D01*
X22665328Y13506624D01*
X22797616Y13722498D01*
X22800724Y13730000D01*
X22892611Y13951836D01*
X22892612Y13951838D01*
X22894505Y13956409D01*
X22922969Y14074970D01*
X22952454Y14197784D01*
X22952455Y14197790D01*
X22953609Y14202597D01*
X22973474Y14455000D01*
X22953609Y14707403D01*
X22948867Y14727158D01*
X22895660Y14948779D01*
X22894505Y14953591D01*
X22860936Y15034635D01*
X22799511Y15182928D01*
X22799509Y15182932D01*
X22797616Y15187502D01*
X22665328Y15403376D01*
X22500898Y15595898D01*
X22308376Y15760328D01*
X22092502Y15892616D01*
X22087932Y15894509D01*
X22087928Y15894511D01*
X21863164Y15987611D01*
X21863162Y15987612D01*
X21858591Y15989505D01*
X21761626Y16012784D01*
X21617216Y16047454D01*
X21617210Y16047455D01*
X21612403Y16048609D01*
X21360000Y16068474D01*
X21107597Y16048609D01*
X21102790Y16047455D01*
X21102784Y16047454D01*
X20958374Y16012784D01*
X20861409Y15989505D01*
X20856838Y15987612D01*
X20856836Y15987611D01*
X20632072Y15894511D01*
X20632068Y15894509D01*
X20627498Y15892616D01*
X20411624Y15760328D01*
X20219102Y15595898D01*
X20054672Y15403376D01*
X19922384Y15187502D01*
X19920491Y15182932D01*
X19920489Y15182928D01*
X19859064Y15034635D01*
X19825495Y14953591D01*
X19824340Y14948779D01*
X19771134Y14727158D01*
X19766391Y14707403D01*
X19746526Y14455000D01*
X19766391Y14202597D01*
X19767545Y14197790D01*
X19767546Y14197784D01*
X19797031Y14074970D01*
X19825495Y13956409D01*
X19827388Y13951838D01*
X19827389Y13951836D01*
X19919277Y13730000D01*
X19922384Y13722498D01*
X20054672Y13506624D01*
X20219102Y13314102D01*
X20222858Y13310894D01*
X20222865Y13310887D01*
X20258080Y13280810D01*
X20296889Y13221359D01*
X20297395Y13150365D01*
X20258080Y13089190D01*
X20222865Y13059113D01*
X20222858Y13059106D01*
X20219102Y13055898D01*
X20054672Y12863376D01*
X19922384Y12647502D01*
X19920491Y12642932D01*
X19920489Y12642928D01*
X19859064Y12494635D01*
X19825495Y12413591D01*
X19824340Y12408779D01*
X19771134Y12187158D01*
X19766391Y12167403D01*
X19746526Y11915000D01*
X19766391Y11662597D01*
X19767545Y11657790D01*
X19767546Y11657784D01*
X19805179Y11501032D01*
X19825495Y11416409D01*
X19827388Y11411838D01*
X19827389Y11411836D01*
X19919277Y11190000D01*
X19922384Y11182498D01*
X20054672Y10966624D01*
X20219102Y10774102D01*
X20222858Y10770894D01*
X20222865Y10770887D01*
X20258080Y10740810D01*
X20296889Y10681359D01*
X20297395Y10610365D01*
X20258080Y10549190D01*
X20222865Y10519113D01*
X20222858Y10519106D01*
X20219102Y10515898D01*
X20054672Y10323376D01*
X19922384Y10107502D01*
X19920491Y10102932D01*
X19920489Y10102928D01*
X19859064Y9954635D01*
X19825495Y9873591D01*
X19766391Y9627403D01*
X19746526Y9375000D01*
X19766391Y9122597D01*
X19767545Y9117790D01*
X19767546Y9117784D01*
X19805179Y8961032D01*
X19825495Y8876409D01*
X19827388Y8871838D01*
X19827389Y8871836D01*
X19919535Y8649377D01*
X19922384Y8642498D01*
X20054672Y8426624D01*
X20219102Y8234102D01*
X20222858Y8230894D01*
X20222865Y8230887D01*
X20258080Y8200810D01*
X20296889Y8141359D01*
X20297395Y8070365D01*
X20258080Y8009190D01*
X20222865Y7979113D01*
X20222858Y7979106D01*
X20219102Y7975898D01*
X20080553Y7813678D01*
X20079691Y7812669D01*
X20020240Y7773860D01*
X19983880Y7768500D01*
X18783858Y7768500D01*
X18715737Y7788502D01*
X18694763Y7805405D01*
X18400405Y8099763D01*
X18366379Y8162075D01*
X18363500Y8188858D01*
X18363500Y15661142D01*
X18383502Y15729263D01*
X18400405Y15750237D01*
X20489763Y17839595D01*
X20552075Y17873621D01*
X20578858Y17876500D01*
X33513880Y17876500D01*
X33582001Y17856498D01*
G37*
%TD.AperFunction*%
%TA.AperFunction,NonConductor*%
G36*
X33582001Y12776498D02*
G01*
X33609690Y12752332D01*
X33749102Y12589102D01*
X33752858Y12585894D01*
X33752865Y12585887D01*
X33788080Y12555810D01*
X33826889Y12496359D01*
X33827395Y12425365D01*
X33788080Y12364190D01*
X33752865Y12334113D01*
X33752858Y12334106D01*
X33749102Y12330898D01*
X33613575Y12172216D01*
X33609691Y12167669D01*
X33550240Y12128860D01*
X33513880Y12123500D01*
X31813389Y12123500D01*
X31793678Y12125051D01*
X31785641Y12126324D01*
X31779125Y12127356D01*
X31772538Y12127011D01*
X31772533Y12127011D01*
X31708850Y12123673D01*
X31702256Y12123500D01*
X31681078Y12123500D01*
X31677806Y12123156D01*
X31677804Y12123156D01*
X31660009Y12121286D01*
X31653435Y12120769D01*
X31589766Y12117432D01*
X31583165Y12117086D01*
X31568933Y12113272D01*
X31549498Y12109670D01*
X31541407Y12108820D01*
X31541404Y12108819D01*
X31534845Y12108130D01*
X31467926Y12086387D01*
X31461614Y12084517D01*
X31440327Y12078813D01*
X31399994Y12068006D01*
X31399991Y12068005D01*
X31393621Y12066298D01*
X31387743Y12063303D01*
X31380493Y12059609D01*
X31362234Y12052046D01*
X31354503Y12049534D01*
X31354499Y12049532D01*
X31348220Y12047492D01*
X31287251Y12012291D01*
X31281498Y12009168D01*
X31252758Y11994524D01*
X31224663Y11980210D01*
X31224660Y11980208D01*
X31218780Y11977212D01*
X31213648Y11973057D01*
X31213646Y11973055D01*
X31207325Y11967937D01*
X31191037Y11956743D01*
X31184001Y11952681D01*
X31183995Y11952676D01*
X31178280Y11949377D01*
X31173373Y11944959D01*
X31173372Y11944958D01*
X31126001Y11902305D01*
X31120985Y11898021D01*
X31107081Y11886762D01*
X31107067Y11886749D01*
X31104509Y11884678D01*
X31089528Y11869697D01*
X31084743Y11865156D01*
X31032453Y11818074D01*
X31028570Y11812729D01*
X31023794Y11806156D01*
X31010953Y11791122D01*
X27735299Y8515467D01*
X24485237Y5265405D01*
X24422925Y5231379D01*
X24396142Y5228500D01*
X22736120Y5228500D01*
X22667999Y5248502D01*
X22640309Y5272669D01*
X22592797Y5328299D01*
X22500898Y5435898D01*
X22497142Y5439106D01*
X22497135Y5439113D01*
X22461920Y5469190D01*
X22423111Y5528641D01*
X22422605Y5599635D01*
X22461920Y5660810D01*
X22497135Y5690887D01*
X22497142Y5690894D01*
X22500898Y5694102D01*
X22665328Y5886624D01*
X22797616Y6102498D01*
X22814252Y6142659D01*
X22892611Y6331836D01*
X22892612Y6331838D01*
X22894505Y6336409D01*
X22922969Y6454970D01*
X22952454Y6577784D01*
X22952455Y6577790D01*
X22953609Y6582597D01*
X22973474Y6835000D01*
X22953609Y7087403D01*
X22948856Y7107203D01*
X22902216Y7301473D01*
X22894505Y7333591D01*
X22879424Y7370000D01*
X22799511Y7562928D01*
X22799509Y7562932D01*
X22797616Y7567502D01*
X22665328Y7783376D01*
X22500898Y7975898D01*
X22497142Y7979106D01*
X22497135Y7979113D01*
X22461920Y8009190D01*
X22423111Y8068641D01*
X22422605Y8139635D01*
X22461920Y8200810D01*
X22497135Y8230887D01*
X22497142Y8230894D01*
X22500898Y8234102D01*
X22640310Y8397331D01*
X22699760Y8436140D01*
X22736120Y8441500D01*
X26681611Y8441500D01*
X26701321Y8439949D01*
X26715875Y8437644D01*
X26722462Y8437989D01*
X26722467Y8437989D01*
X26786150Y8441327D01*
X26792744Y8441500D01*
X26813922Y8441500D01*
X26817194Y8441844D01*
X26817196Y8441844D01*
X26834991Y8443714D01*
X26841565Y8444231D01*
X26905235Y8447568D01*
X26905236Y8447568D01*
X26911836Y8447914D01*
X26926068Y8451728D01*
X26945503Y8455330D01*
X26953592Y8456180D01*
X26953594Y8456180D01*
X26960155Y8456870D01*
X27027083Y8478616D01*
X27033384Y8480483D01*
X27101379Y8498702D01*
X27114508Y8505391D01*
X27132766Y8512954D01*
X27140501Y8515467D01*
X27140507Y8515470D01*
X27146780Y8517508D01*
X27152493Y8520806D01*
X27152499Y8520809D01*
X27207730Y8552697D01*
X27213500Y8555830D01*
X27276221Y8587789D01*
X27287668Y8597058D01*
X27303965Y8608259D01*
X27311002Y8612321D01*
X27311007Y8612325D01*
X27316720Y8615623D01*
X27341881Y8638278D01*
X27369009Y8662704D01*
X27374024Y8666988D01*
X27387927Y8678247D01*
X27390491Y8680323D01*
X27405462Y8695294D01*
X27410247Y8699835D01*
X27457636Y8742504D01*
X27457637Y8742505D01*
X27462547Y8746926D01*
X27471210Y8758849D01*
X27484049Y8773881D01*
X31469763Y12759595D01*
X31532075Y12793621D01*
X31558858Y12796500D01*
X33513880Y12796500D01*
X33582001Y12776498D01*
G37*
%TD.AperFunction*%
%TA.AperFunction,Conductor*%
%TO.N,5V*%
G36*
X81774103Y56140103D02*
G01*
X81842208Y56120045D01*
X81888657Y56066351D01*
X81900000Y56014103D01*
X81900000Y55799858D01*
X81915353Y51332212D01*
X81919317Y50178905D01*
X81919566Y50106319D01*
X81899798Y50038130D01*
X81846303Y49991453D01*
X81793681Y49979886D01*
X71941281Y49971002D01*
X71869350Y49993473D01*
X71736385Y50085714D01*
X71732192Y50087782D01*
X71500559Y50202011D01*
X71500556Y50202012D01*
X71496371Y50204076D01*
X71241497Y50285662D01*
X71096134Y50309335D01*
X70981976Y50327927D01*
X70981975Y50327927D01*
X70977364Y50328678D01*
X70843569Y50330429D01*
X70714451Y50332120D01*
X70714448Y50332120D01*
X70709774Y50332181D01*
X70444605Y50296093D01*
X70440118Y50294785D01*
X70440117Y50294785D01*
X70408817Y50285662D01*
X70187683Y50221208D01*
X70183430Y50219248D01*
X70183429Y50219247D01*
X70095921Y50178905D01*
X70025684Y50168550D01*
X69960998Y50197812D01*
X69922401Y50257401D01*
X69922148Y50328397D01*
X69928288Y50345082D01*
X69974740Y50448202D01*
X69976661Y50452466D01*
X70049302Y50710031D01*
X70083075Y50975505D01*
X70085549Y51070000D01*
X70065717Y51336877D01*
X70055161Y51383530D01*
X70007686Y51593334D01*
X70006655Y51597891D01*
X69909662Y51847309D01*
X69776868Y52079650D01*
X69749860Y52113910D01*
X69723394Y52179788D01*
X69722811Y52191494D01*
X69721858Y52485777D01*
X69741886Y52554347D01*
X69864219Y52744535D01*
X69864222Y52744540D01*
X69866747Y52748466D01*
X69976661Y52992466D01*
X70049302Y53250031D01*
X70083075Y53515505D01*
X70085549Y53610000D01*
X70065717Y53876877D01*
X70055161Y53923530D01*
X70007686Y54133334D01*
X70006655Y54137891D01*
X69909662Y54387309D01*
X69776868Y54619650D01*
X69741606Y54664380D01*
X69715140Y54730258D01*
X69714557Y54741963D01*
X69710409Y56023489D01*
X69730190Y56091673D01*
X69783695Y56138340D01*
X69836511Y56149896D01*
X81774103Y56140103D01*
G37*
%TD.AperFunction*%
%TD*%
M02*
