M48
; DRILL file {KiCad (6.0.2)} date Wed Jan  3 17:43:05 2024
; FORMAT={-:-/ absolute / metric / decimal}
; #@! TF.CreationDate,2024-01-03T17:43:05+03:00
; #@! TF.GenerationSoftware,Kicad,Pcbnew,(6.0.2)
; #@! TF.FileFunction,MixedPlating,1,2
FMAT,2
METRIC
; #@! TA.AperFunction,Plated,PTH,ComponentDrill
T1C1.200
%
G90
G05
T1
X9.46Y38.06
X9.46Y33.06
X15.65Y54.1
X15.65Y51.56
X15.65Y49.02
X15.65Y46.48
X15.65Y43.94
X17.632Y24.01
X20.132Y24.01
X20.4Y29.47
X21.36Y14.455
X21.36Y11.915
X21.36Y9.375
X21.36Y6.835
X21.36Y4.295
X22.94Y29.47
X25.48Y29.47
X28.02Y29.47
X32.67Y54.025
X32.67Y51.485
X32.67Y48.945
X32.67Y46.405
X32.67Y43.865
X32.67Y41.325
X32.67Y38.785
X32.67Y36.245
X34.89Y23.89
X34.89Y21.35
X34.89Y18.81
X34.89Y16.27
X34.89Y13.73
X34.89Y11.19
X34.89Y8.65
X34.89Y6.11
X40.29Y54.025
X40.29Y51.485
X40.29Y48.945
X40.29Y46.405
X40.29Y43.865
X40.29Y41.325
X40.29Y38.785
X40.29Y36.245
X50.15Y23.88
X50.15Y21.34
X50.15Y18.8
X50.15Y16.26
X50.15Y13.72
X50.15Y11.18
X50.15Y8.64
X50.15Y6.1
X60.102Y57.05
X62.602Y57.05
X68.28Y53.61
X68.28Y51.07
X68.28Y48.53
X68.28Y45.99
X68.28Y43.45
X68.28Y40.91
X68.28Y38.37
X68.28Y35.83
X68.28Y33.29
X68.28Y30.75
X68.28Y28.21
X68.28Y25.67
X68.28Y23.13
X68.28Y20.59
X68.28Y18.05
X68.28Y15.51
X68.28Y12.97
X68.28Y10.43
X68.28Y7.89
X68.28Y5.35
X70.82Y53.61
X70.82Y51.07
X70.82Y48.53
X70.82Y45.99
X70.82Y43.45
X70.82Y40.91
X70.82Y38.37
X70.82Y35.83
X70.82Y33.29
X70.82Y30.75
X70.82Y28.21
X70.82Y25.67
X70.82Y23.13
X70.82Y20.59
X70.82Y18.05
X70.82Y15.51
X70.82Y12.97
X70.82Y10.43
X70.82Y7.89
X70.82Y5.35
X79.84Y35.96
X79.84Y28.36
X79.94Y51.98
X79.94Y46.98
T0
M30
